<?xml version="1.0" encoding="UTF-8" standalone="no"?>
<!-- Created with Inkscape (http://www.inkscape.org/) -->

<svg
   width="512"
   height="512"
   viewBox="0 0 135.46666 135.46667"
   version="1.1"
   id="svg30180"
   inkscape:version="1.1 (c68e22c387, 2021-05-23)"
   sodipodi:docname="rottelogo512.svg"
   xmlns:inkscape="http://www.inkscape.org/namespaces/inkscape"
   xmlns:sodipodi="http://sodipodi.sourceforge.net/DTD/sodipodi-0.dtd"
   xmlns="http://www.w3.org/2000/svg"
   xmlns:svg="http://www.w3.org/2000/svg">
  <sodipodi:namedview
     id="namedview30182"
     pagecolor="#ffffff"
     bordercolor="#999999"
     borderopacity="1"
     inkscape:pageshadow="0"
     inkscape:pageopacity="0"
     inkscape:pagecheckerboard="0"
     inkscape:document-units="mm"
     showgrid="false"
     units="px"
     inkscape:zoom="0.49071405"
     inkscape:cx="-174.23589"
     inkscape:cy="58.07863"
     inkscape:window-width="1920"
     inkscape:window-height="1001"
     inkscape:window-x="-9"
     inkscape:window-y="-9"
     inkscape:window-maximized="1"
     inkscape:current-layer="layer1" />
  <defs
     id="defs30177" />
  <g
     inkscape:label="Layer 1"
     inkscape:groupmode="layer"
     id="layer1">
    <g
       id="g30503"
       transform="matrix(2.6666667,0,0,2.6666667,-360.29236,-324.70824)">
      <rect
         style="display:inline;fill:#005f73;fill-opacity:1;stroke:#000000;stroke-width:0.395051;stroke-linecap:round;stroke-linejoin:round;stroke-miterlimit:4;stroke-dasharray:none;paint-order:markers fill stroke"
         id="rect30097"
         width="50.404949"
         height="50.404949"
         x="135.30716"
         y="121.96311"
         ry="10.264503"
         inkscape:export-filename="C:\Users\Anna Pedersen\Google Drev\app ikoner\logo\rotteHjerneLogo192.png"
         inkscape:export-xdpi="96"
         inkscape:export-ydpi="96" />
      <path
         style="display:inline;fill:#dabeb7;fill-opacity:1;stroke:#000000;stroke-width:0.297715;stroke-linecap:butt;stroke-linejoin:miter;stroke-miterlimit:4;stroke-dasharray:none;stroke-opacity:1"
         d="m 146.10738,153.4413 c -6.30702,4.3978 2.04644,9.266 4.35236,9.9227 2.30592,0.6566 6.39801,2.3014 4.19219,7.4279 4.62945,-5.2158 -1.47102,-8.1355 -3.72571,-8.9699 -2.2547,-0.8345 -5.93819,-4.873 -3.61291,-6.1497 z"
         id="path30099"
         sodipodi:nodetypes="czczcc"
         inkscape:export-filename="C:\Users\Anna Pedersen\Google Drev\app ikoner\logo\rotteHjerneLogo192.png"
         inkscape:export-xdpi="96"
         inkscape:export-ydpi="96" />
      <path
         style="display:inline;fill:#dabeb7;fill-opacity:1;stroke:#000000;stroke-width:0.29629;stroke-linecap:butt;stroke-linejoin:miter;stroke-miterlimit:4;stroke-dasharray:none;stroke-opacity:1"
         d="m 153.87471,157.2772 c -7.09042,-1.0679 5.66079,11.5658 -5.40344,13.412 9.6652,-4.1638 -3.25521,-12.0944 2.73782,-14.8539 z"
         id="path30101"
         sodipodi:nodetypes="cccc"
         inkscape:export-filename="C:\Users\Anna Pedersen\Google Drev\app ikoner\logo\rotteHjerneLogo192.png"
         inkscape:export-xdpi="96"
         inkscape:export-ydpi="96" />
      <g
         id="g30157"
         transform="matrix(0.37327916,0,0,0.37327916,-13.56287,274.86628)"
         inkscape:export-filename="C:\Users\Anna Pedersen\Google Drev\app ikoner\logo\rotteHjerneLogo192.png"
         inkscape:export-xdpi="96"
         inkscape:export-ydpi="96">
        <path
           style="display:inline;fill:#e7e7e7;fill-opacity:1;stroke:#000000;stroke-width:0.231441px;stroke-linecap:butt;stroke-linejoin:miter;stroke-opacity:1"
           d="m 509.28986,-356.2718 c -0.9285,0.8089 -0.9693,1.10056 -1.5332,0.35065 -0.5643,-0.75036 -0.1329,-0.62699 0.5699,-0.99637 0.7027,-0.36938 1.8918,-0.16319 0.9633,0.64572 z"
           id="path30103"
           sodipodi:nodetypes="zzzz" />
        <path
           style="display:inline;fill:#3e3e3e;fill-opacity:1;stroke:#000000;stroke-width:0.231441px;stroke-linecap:butt;stroke-linejoin:miter;stroke-opacity:1"
           d="m 503.81686,-356.42507 c 0.9967,-0.92453 2.5895,-0.97762 4.2596,-0.62258 -0.6203,-6.40636 -10.8752,-3.96921 -4.2596,0.62258 z"
           id="path30105"
           sodipodi:nodetypes="ccc" />
        <path
           id="path30107"
           style="fill:#cac5b8;fill-opacity:1;stroke:#000000;stroke-width:0.79375;stroke-linecap:butt;stroke-linejoin:miter;stroke-miterlimit:4;stroke-dasharray:none;stroke-opacity:1"
           d="m 499.84818,-383.6714 c -20.40428,7.02463 -23.11271,-6.01728 -31.8637,4.55218 -7.2829,-7.52128 -19.35073,-1.50236 -21.27778,4.86947 -6.37886,-2.77458 -17.72244,3.95624 -15.56079,12.068 -5.08156,1.02653 -12.25993,10.0522 -6.88126,18.52496 -6.48017,2.64839 -4.53049,15.31302 1.37615,17.14934 -1.20068,8.96804 3.41712,10.56601 9.57977,10.20713 -1.52133,-3.94273 -2.34736,-7.89433 -2.44221,-11.51144 -0.085,-3.23894 0.41333,-6.22522 1.62523,-8.70128 0.57661,-1.17812 1.37311,-2.18251 2.32645,-3.02307 0.65009,-0.86542 1.38957,-1.48083 2.19057,-1.77973 -0.92676,-3.65806 -0.0598,-7.26085 1.66812,-10.01748 1.72826,-2.75716 4.1307,-4.76943 6.71689,-5.39657 0.49393,-2.05129 1.51517,-3.84556 3.01379,-5.13664 1.79242,-1.54422 4.03058,-2.55132 6.33398,-3.15019 2.3034,-0.59875 4.6774,-0.78766 6.8084,-0.59376 1.5449,0.14057 2.892,0.56416 4.0917,1.18907 1.5301,-1.26302 3.7096,-1.61137 5.8968,-1.35702 2.1255,0.24718 4.3299,1.16733 6.4063,2.41949 0.53369,-1.11369 1.2482,-2.18198 2.4138,-2.95279 0.9237,-0.61086 2.0727,-0.95286 3.342,-0.93586 1.0023,0.0134 2.0874,0.32869 3.1894,0.83405 0.9992,-0.57898 2.1156,-0.87815 3.1151,-0.58394 1.38419,0.40746 2.4705,1.36041 3.375,2.49442 1.5266,1.91375 2.5864,4.42681 2.37289,6.8864 l 7.12311,3.82974 c 0.6865,-0.15428 1.4061,-0.6232 2.36839,-1.47949 -0.7613,-0.95466 -6.372,-4.07974 -6.2007,-4.89531 0.1714,-0.81558 8.694,4.04954 9.27751,4.24625 0.93029,0.31359 4.85189,-2.23606 5.68329,-2.84014 -4.36679,-7.48458 -5.19279,-9.69974 -12.4147,-18.3472 0,0 1.6151,-4.89833 -3.6535,-6.56859 z"
           sodipodi:nodetypes="cccccccssccscssscscsscsccccssccc" />
        <path
           style="fill:#cac5b8;fill-opacity:1;stroke:#000000;stroke-width:0.79375;stroke-linecap:round;stroke-linejoin:miter;stroke-miterlimit:4;stroke-dasharray:none;stroke-opacity:1"
           d="m 495.50239,-380.36095 c 1.32988,-3.17256 -4.234,-7.0729 -7.21296,-6.29188 -3.6962,0.96905 -2.31041,5.23931 -2.36785,6.58102 -0.0573,1.34169 -0.92495,3.09545 -0.92495,3.09545"
           id="path30109"
           sodipodi:nodetypes="cssc" />
        <path
           style="display:inline;fill:#3e3e3e;fill-opacity:1;stroke:#000000;stroke-width:0.231441px;stroke-linecap:butt;stroke-linejoin:miter;stroke-opacity:1"
           d="m 499.70806,-343.028 c 0.5953,-1.2222 2.0613,-1.84722 3.7468,-2.11962 -2.8932,-5.74943 -11.5746,0.2285 -3.7468,2.11962 z"
           id="path30111"
           sodipodi:nodetypes="ccc" />
        <path
           style="display:inline;fill:#e7e7e7;fill-opacity:1;stroke:#000000;stroke-width:0.231441px;stroke-linecap:butt;stroke-linejoin:miter;stroke-opacity:1"
           d="m 502.81976,-343.73586 c -0.9286,0.8089 -0.9694,1.10056 -1.5333,0.35065 -0.5643,-0.75036 -0.1328,-0.62699 0.5699,-0.99637 0.7028,-0.36938 1.8919,-0.16319 0.9634,0.64572 z"
           id="path30113"
           sodipodi:nodetypes="zzzz" />
        <path
           style="display:inline;fill:#ccc5bf;fill-opacity:1;stroke:#000000;stroke-width:0.529167;stroke-linecap:butt;stroke-linejoin:miter;stroke-miterlimit:4;stroke-dasharray:none;stroke-opacity:1"
           d="m 454.43418,-319.53021 c -1.60851,0.40434 -1.82618,1.94017 -0.28297,2.35155 1.54321,0.41137 4.46983,0.41723 5.65917,0.47998 1.60437,0.0846 2.38088,0.9168 3.04236,0.98866 0.66149,0.0719 2.1783,-0.548 2.39463,-0.43888 0.49026,0.24723 0.0889,0.99068 0.84725,0.99593 0.60763,0.004 1.06154,-0.2627 0.82207,-1.18374 -0.3323,-1.27804 -2.31791,-0.9973 -2.31791,-0.9973 1.90161,-0.0609 2.09492,0.01 2.49759,1.49265 0.60382,0.13663 1.18887,0.23412 1.5942,-0.0428 0.0667,-0.61172 -0.55808,-2.01469 -1.46377,-2.49259 -0.39751,-0.20976 -0.63733,-0.0318 -2.08134,0.057 4.24419,-0.78574 2.47513,2.71561 4.75826,2.01582 0.90143,-0.27637 -0.38044,-0.63551 -0.60396,-1.43478 -0.50971,-1.82253 -0.72366,-1.7071 -3.73219,-1.53971 l 2.48106,-0.0597 c 0,0 -0.60667,-1.19102 -2.11837,-1.00184 -1.51172,0.1892 -1.89351,0.59932 -2.65453,0.50254 -5.9622,-0.42606 -8.13968,0.13083 -8.84155,0.30724 z"
           id="path30115"
           sodipodi:nodetypes="ssssssscccscssccscs" />
        <g
           id="g30121"
           transform="matrix(-0.71173651,-0.50852404,-0.50852404,0.71173651,421.44686,-531.97083)">
          <circle
             style="opacity:1;fill:#000000;fill-opacity:1;stroke:#000000;stroke-width:0.264999;stroke-linecap:round;stroke-linejoin:bevel;stroke-miterlimit:4;stroke-dasharray:none;paint-order:markers fill stroke"
             id="circle30117"
             cx="-179.60551"
             cy="97.116562"
             r="1.4153482" />
          <circle
             style="opacity:1;fill:#ffffff;fill-opacity:0.807843;stroke:none;stroke-width:0.185838;stroke-linecap:round;stroke-linejoin:bevel;stroke-miterlimit:4;stroke-dasharray:none;paint-order:stroke markers fill"
             id="circle30119"
             cx="-179.37532"
             cy="97.227715"
             r="0.35147223" />
        </g>
        <g
           id="g30129"
           transform="matrix(-0.7804986,-0.3966649,-0.33885663,0.66675203,366.12936,-498.62389)"
           style="fill:#cac5b8;fill-opacity:1">
          <g
             id="g30127"
             style="fill:#cac5b8;fill-opacity:1">
            <path
               style="fill:#cac5b8;fill-opacity:1;stroke:none;stroke-width:0.22917px;stroke-linecap:butt;stroke-linejoin:miter;stroke-opacity:1"
               d="m -206.28963,70.981959 c 2.35891,-1.11239 2.22412,0.505631 4.04385,0.809009 1.81974,0.30338 1.68494,-1.213515 3.43728,-0.758447 1.75233,0.455069 1.95452,2.123654 1.95452,2.123654 -0.42429,3.122878 -11.93941,4.099494 -9.43565,-2.174216 z"
               id="path30123"
               sodipodi:nodetypes="csscc" />
            <path
               style="fill:#cac5b8;fill-opacity:1;stroke:#000000;stroke-width:0.22917;stroke-linecap:round;stroke-linejoin:miter;stroke-miterlimit:4;stroke-dasharray:none;stroke-opacity:1"
               d="m -206.28963,70.981959 c 2.35891,-1.11239 2.22412,0.505631 4.04385,0.809009 1.81974,0.30338 1.68494,-1.213515 3.43728,-0.758447 1.75233,0.455069 1.95452,2.123654 1.95452,2.123654"
               id="path30125" />
          </g>
        </g>
        <path
           style="fill:#ceb7b7;fill-opacity:1;stroke:#000000;stroke-width:0.529167;stroke-linecap:butt;stroke-linejoin:miter;stroke-miterlimit:4;stroke-dasharray:none;stroke-opacity:1"
           d="m 516.05146,-358.01656 c -0.3498,0.2581 -4.09024,1.70125 -2.9356,-1.45954 1.29943,-3.93934 3.8178,0.6885 2.9356,1.45954 z"
           id="path30131"
           sodipodi:nodetypes="ccc" />
        <g
           id="g30137"
           style="fill:#d9d5cb;fill-opacity:1"
           transform="translate(-93.026955,-6.1001283)">
          <path
             id="path30133"
             style="fill:#d9d5cb;fill-opacity:1;stroke:#000000;stroke-width:0.79375;stroke-linecap:butt;stroke-linejoin:miter;stroke-miterlimit:4;stroke-dasharray:none;stroke-opacity:1"
             d="m 583.67604,-357.93504 c -0.1656,2.2e-4 -0.2987,0.10183 -0.5793,0.42168 l -0.8656,0.98598 -0.2754,-0.16123 -2.251,2.54042 c -1.7682,0.1634 -3.2424,0.0437 -4.5362,-0.22015 l -0.4687,2.20452 -2.0019,-1.55856 c -2.0276,-1.5784 -4.5274,-2.56334 -6.5877,-2.80293 -2.0604,-0.23959 -3.4222,0.27135 -3.9021,1.00769 l -0.9984,1.53169 -1.3767,-1.20354 c -0.5429,-0.47484 -1.9072,-1.00332 -3.6308,-1.16014 -1.7235,-0.15682 -3.7835,0.002 -5.7231,0.50591 -1.2072,0.31385 -2.3649,0.76314 -3.3828,1.3286 -0.52494,0.31668 -1.01519,0.64741 -1.46654,0.98599 -0.0697,0.0564 -0.14375,0.11014 -0.21085,0.16795 -1.30707,1.12607 -2.12156,2.46104 -2.29134,4.20336 l -0.12867,1.3317 -1.33583,0.0977 c -0.59698,0.0435 -1.4532,0.41102 -2.35439,1.03508 -2.17935,1.84594 -3.52362,3.90191 -4.28914,5.99447 -0.53133,1.84282 -0.548,3.85135 0.26252,5.84563 l 0.63305,1.55856 -1.59216,0.54312 c -1.83089,0.62418 -3.12669,1.86587 -4.04109,3.73414 -0.91442,1.86827 -1.37768,4.36793 -1.30278,7.22282 0.10369,3.95275 1.23992,8.55809 3.36002,13.06122 3.75007,3.20579 9.14821,0.64177 12.79041,1.29759 7.87569,-2.83632 16.06149,-20.263 6.84039,-19.40088 10.3672,-1.50109 21.472,-2.8096 23.7572,-6.5965 1.0854,-2.93671 3.9704,-4.75257 8.0311,-2.83807 3.3188,1.33762 6.8677,1.30125 5.8193,2.48925 0,0 4.335,-0.86752 4.3614,-1.5291 0.026,-0.66162 -4.5483,-4.473 -4.3568,-4.70617 0.6087,-0.741 5.6211,1.67305 7.2285,1.89187 1.2889,0.17547 3.55,-2.36616 4.8008,-3.91501 l -14.5185,-7.80727 0.3865,-1.24954 c 0.3453,-1.11272 -0.3741,-3.73581 -1.6428,-5.32629 -0.6343,-0.79524 -1.359,-1.30125 -1.789,-1.42782 -0.1613,-0.0475 -0.2722,-0.0838 -0.3716,-0.0837 z" />
          <path
             style="fill:#d9d5cb;fill-opacity:1;stroke:#000000;stroke-width:0.79375;stroke-linecap:round;stroke-linejoin:miter;stroke-miterlimit:4;stroke-dasharray:none;stroke-opacity:1"
             d="m 583.17454,-351.86417 c 1.445,-4.28126 -2.6359,-6.83985 -4.8209,-6.67987 -3.189,0.2335 -3.9395,3.90319 -4.3082,5.06402 -0.3686,1.16082 -1.7463,2.6249 -1.7463,2.6249"
             id="path30135"
             sodipodi:nodetypes="cssc" />
        </g>
        <path
           style="fill:#514a42;fill-opacity:1;stroke:none;stroke-width:0.207492px;stroke-linecap:round;stroke-linejoin:round;stroke-opacity:1"
           d="m 484.48846,-352.16154 c 0.9687,0.18631 2.6898,-0.97287 2.3599,-1.6131 -0.3299,-0.64022 -1.1979,-0.3637 -1.1979,-0.3637 0,0 3.3351,-3.45517 3.003,-4.88728 -0.3321,-1.43207 -0.6477,-3.28102 -2.3088,-3.72711 -1.6611,-0.4461 -3.9368,0.85638 -3.4005,2.02148 0.375,0.81445 0.7406,2.11156 0.357,3.42837 -0.1102,0.37863 1.225,-0.21284 1.636,-0.18589 0.4111,0.0272 1.1539,0.68553 1.2796,0.21813 0.1257,-0.46742 -2.0524,-0.38638 -2.2361,-1.08151 -0.1836,-0.6951 -0.5006,-2.66204 -0.5006,-2.66204 0.8148,-0.0613 1.1045,-0.56009 1.5756,-1.21692 l 1.0559,0.0337 c -0.7657,1.01878 -0.8121,1.91677 -0.9023,2.8219 0.4203,-0.71505 0.4555,-1.79548 1.5064,-1.91212 0,0 -0.077,1.44244 0.2063,1.8995 0.2835,0.45706 1.3393,-0.29676 1.1695,0.7793 -0.1699,1.07615 -3.0519,4.79817 -3.0519,4.79817 2.7881,-0.80299 1.3474,1.70624 -0.5511,1.64896 z"
           id="path30139"
           sodipodi:nodetypes="cscssssssscccccsscc" />
        <path
           style="fill:#514a42;fill-opacity:1;stroke:none;stroke-width:0.639812;stroke-linecap:round;stroke-linejoin:round;stroke-miterlimit:4;stroke-dasharray:none;stroke-opacity:1"
           d="m 488.66173,-370.94842 c 1.33595,0.32415 3.76882,-1.05084 3.33664,-1.91629 -0.43208,-0.86549 -1.64686,-0.57541 -1.64686,-0.57541 0,0 4.76218,-4.24705 4.3584,-6.14941 -0.40397,-1.90228 -0.76837,-4.34899 -3.05396,-5.07067 -2.28598,-0.72162 -5.49372,0.795 -4.79611,2.36476 0.48765,1.09728 0.94325,2.8257 0.35924,4.51783 -0.16799,0.48656 1.70712,-0.17719 2.27619,-0.10781 0.56901,0.0696 1.57289,0.99306 1.76578,0.39155 0.1929,-0.60152 -2.83095,-0.67587 -3.05806,-1.60111 -0.22681,-0.92526 -0.58844,-3.52652 -0.58844,-3.52652 1.13231,-0.0128 1.55395,-0.64176 2.23328,-1.4626 l 1.46307,0.13159 c -1.10248,1.27023 -1.20229,2.44206 -1.36327,3.61955 0.61117,-0.90128 0.70286,-2.31283 2.16481,-2.3785 0,0 -0.16412,1.882 0.21088,2.50384 0.3751,0.62184 1.86915,-0.27754 1.59086,1.11718 -0.27828,1.39476 -4.4227,6.0287 -4.4227,6.0287 3.89843,-0.82027 1.80106,2.34537 -0.82959,2.11311 z"
           id="path30141"
           sodipodi:nodetypes="cscssssssscccccsscc" />
        <path
           style="fill:#ceb7b7;fill-opacity:1;stroke:#000000;stroke-width:0.529167;stroke-linecap:butt;stroke-linejoin:miter;stroke-miterlimit:4;stroke-dasharray:none;stroke-opacity:1"
           d="m 508.9461,-348.18517 c -0.0985,0.34351 -2.04575,2.46183 -2.66687,0.47261 -0.95496,-2.75139 2.85517,-1.41865 2.66687,-0.47261 z"
           id="path30143"
           sodipodi:nodetypes="ccc" />
        <g
           id="g30149"
           transform="matrix(0.32307902,-0.6338813,-0.6338813,-0.32307902,612.55646,-434.55397)">
          <circle
             style="opacity:1;fill:#000000;fill-opacity:1;stroke:#000000;stroke-width:0.264999;stroke-linecap:round;stroke-linejoin:bevel;stroke-miterlimit:4;stroke-dasharray:none;paint-order:markers fill stroke"
             id="circle30145"
             cx="-180.3221"
             cy="97.456825"
             r="1.4153482" />
          <circle
             style="opacity:1;fill:#ffffff;fill-opacity:0.807843;stroke:none;stroke-width:0.185838;stroke-linecap:round;stroke-linejoin:bevel;stroke-miterlimit:4;stroke-dasharray:none;paint-order:stroke markers fill"
             id="circle30147"
             cx="-179.66188"
             cy="96.83358"
             r="0.35147223" />
        </g>
        <g
           id="g30155"
           transform="matrix(-0.61575178,-0.24729904,-0.27113586,0.49833508,396.58896,-442.42954)"
           style="fill:#d9d5cb;fill-opacity:1">
          <path
             style="fill:#d9d5cb;fill-opacity:1;stroke:none;stroke-width:0.22917px;stroke-linecap:butt;stroke-linejoin:miter;stroke-opacity:1"
             d="m -197.67967,85.927364 c 2.35891,-1.11239 2.22412,0.505631 4.04385,0.809009 1.81974,0.30338 1.68494,-1.213515 3.43728,-0.758447 1.75233,0.455069 1.95452,2.123654 1.95452,2.123654 -0.33699,2.376468 -11.52497,0.556194 -9.43565,-2.174216 z"
             id="path30151"
             sodipodi:nodetypes="csscc" />
          <path
             style="fill:#d9d5cb;fill-opacity:1;stroke:#000000;stroke-width:0.22917;stroke-linecap:round;stroke-linejoin:miter;stroke-miterlimit:4;stroke-dasharray:none;stroke-opacity:1"
             d="m -197.67967,85.927364 c 2.35891,-1.11239 2.22412,0.505631 4.04385,0.809009 1.81974,0.30338 1.68494,-1.213515 3.43728,-0.758447 1.75233,0.455069 1.95452,2.123654 1.95452,2.123654"
             id="path30153" />
        </g>
      </g>
      <path
         style="display:inline;fill:#ccc5bf;fill-opacity:1;stroke:#000000;stroke-width:0.0586672;stroke-linecap:butt;stroke-linejoin:bevel;stroke-miterlimit:4;stroke-dasharray:none;stroke-opacity:1"
         d="m 165.50476,150.8848 c 0.86236,0.01 1.49111,-0.2237 2.38351,0.7671 0.20112,0.2373 0.38741,0.3142 0.43594,0.8697 -0.1981,0.01 -0.17588,-0.4558 -0.56486,-0.7245 0.27835,0.4586 0.21726,0.5631 0.11046,0.9998 -0.19639,0.027 0.0563,-0.5197 -0.31097,-0.9021 0.10216,0.5604 0.0481,0.6544 -0.15281,1.0465 -0.20501,-0.049 -0.0174,-0.2383 -0.008,-0.467 0.01,-0.2287 -0.0575,-0.4835 -0.19285,-0.6601 -0.39698,-0.5181 -0.60035,-0.5448 -0.69648,-0.2686 -0.10661,0.3062 0.31049,0.3619 0.35235,0.499 -0.74586,0.1209 -0.75366,-0.623 -0.99605,-0.6346 -0.24239,-0.012 -0.6475,0.2042 -0.6475,0.2042 z"
         id="path30159"
         sodipodi:nodetypes="cccccccssscscc"
         inkscape:export-filename="C:\Users\Anna Pedersen\Google Drev\app ikoner\logo\rotteHjerneLogo192.png"
         inkscape:export-xdpi="96"
         inkscape:export-ydpi="96" />
      <path
         style="fill:#d9d5cb;fill-opacity:1;stroke:#000000;stroke-width:0.197527;stroke-linecap:butt;stroke-linejoin:miter;stroke-miterlimit:4;stroke-dasharray:none;stroke-opacity:1"
         d="m 163.7015,149.0844 c 0,0 5.21637,-1.6161 1.09326,-5.0789 -3.21331,-2.6988 -5.17897,5.7893 -4.65604,6.5097 0.90316,1.2442 6.27941,2.1905 5.92719,1.3352 -0.35221,-0.8554 -0.45284,-0.8051 0.20127,-1.2076 0.65411,-0.4025 -2.56569,-1.5584 -2.56569,-1.5584 z"
         id="path30161"
         sodipodi:nodetypes="csssscc"
         inkscape:export-filename="C:\Users\Anna Pedersen\Google Drev\app ikoner\logo\rotteHjerneLogo192.png"
         inkscape:export-xdpi="96"
         inkscape:export-ydpi="96" />
      <path
         style="fill:none;stroke:#000000;stroke-width:0.197527;stroke-linecap:butt;stroke-linejoin:miter;stroke-miterlimit:4;stroke-dasharray:none;stroke-opacity:1"
         d="m 154.04035,154.0068 c 0.25158,-1.8114 1.5598,-3.7234 3.82403,-3.5221"
         id="path30163"
         inkscape:export-filename="C:\Users\Anna Pedersen\Google Drev\app ikoner\logo\rotteHjerneLogo192.png"
         inkscape:export-xdpi="96"
         inkscape:export-ydpi="96" />
      <path
         style="fill:none;stroke:#000000;stroke-width:0.197527;stroke-linecap:butt;stroke-linejoin:miter;stroke-miterlimit:4;stroke-dasharray:none;stroke-opacity:1"
         d="m 147.53847,139.7376 c 1.31643,0.7471 3.66464,-1.9213 4.76758,-1.0674"
         id="path30165"
         inkscape:export-filename="C:\Users\Anna Pedersen\Google Drev\app ikoner\logo\rotteHjerneLogo192.png"
         inkscape:export-xdpi="96"
         inkscape:export-ydpi="96" />
      <path
         style="fill:none;stroke:#000000;stroke-width:0.197527;stroke-linecap:butt;stroke-linejoin:miter;stroke-miterlimit:4;stroke-dasharray:none;stroke-opacity:1"
         d="m 161.1601,133.3772 c -0.0755,2.0378 -5.55995,4.2265 -3.94983,1.3585"
         id="path30167"
         inkscape:export-filename="C:\Users\Anna Pedersen\Google Drev\app ikoner\logo\rotteHjerneLogo192.png"
         inkscape:export-xdpi="96"
         inkscape:export-ydpi="96" />
      <path
         style="fill:none;stroke:#000000;stroke-width:0.197527;stroke-linecap:butt;stroke-linejoin:miter;stroke-miterlimit:4;stroke-dasharray:none;stroke-opacity:1"
         d="m 151.87676,148.2204 c 2.56612,0.9057 3.22024,-4.3272 5.78636,-1.0566"
         id="path30169"
         sodipodi:nodetypes="cc"
         inkscape:export-filename="C:\Users\Anna Pedersen\Google Drev\app ikoner\logo\rotteHjerneLogo192.png"
         inkscape:export-xdpi="96"
         inkscape:export-ydpi="96" />
      <path
         style="fill:none;stroke:#000000;stroke-width:0.197527;stroke-linecap:butt;stroke-linejoin:miter;stroke-miterlimit:4;stroke-dasharray:none;stroke-opacity:1"
         d="m 167.5251,134.0816 c -0.90569,1.7862 -4.47815,-0.478 -5.5851,2.7674"
         id="path30171"
         sodipodi:nodetypes="cc"
         inkscape:export-filename="C:\Users\Anna Pedersen\Google Drev\app ikoner\logo\rotteHjerneLogo192.png"
         inkscape:export-xdpi="96"
         inkscape:export-ydpi="96" />
      <path
         style="fill:none;stroke:#000000;stroke-width:0.197527;stroke-linecap:butt;stroke-linejoin:miter;stroke-miterlimit:4;stroke-dasharray:none;stroke-opacity:1"
         d="m 161.23636,140.4136 c -0.56927,3.3088 -3.38,4.9098 -3.98484,1.6366"
         id="path30173"
         sodipodi:nodetypes="cc"
         inkscape:export-filename="C:\Users\Anna Pedersen\Google Drev\app ikoner\logo\rotteHjerneLogo192.png"
         inkscape:export-xdpi="96"
         inkscape:export-ydpi="96" />
      <path
         style="fill:none;stroke:#000000;stroke-width:0.197527;stroke-linecap:butt;stroke-linejoin:miter;stroke-miterlimit:4;stroke-dasharray:none;stroke-opacity:1"
         d="m 150.49152,144.5051 c -2.95304,-1.9924 -4.80315,2.455 -4.05599,5.0522"
         id="path30175"
         sodipodi:nodetypes="cc"
         inkscape:export-filename="C:\Users\Anna Pedersen\Google Drev\app ikoner\logo\rotteHjerneLogo192.png"
         inkscape:export-xdpi="96"
         inkscape:export-ydpi="96" />
    </g>
  </g>
</svg>
