<?xml version="1.0" encoding="UTF-8" standalone="no"?>
<!-- Created with Inkscape (http://www.inkscape.org/) -->

<svg
   width="500"
   height="500"
   viewBox="0 0 132.29166 132.29167"
   version="1.1"
   id="svg16639"
   inkscape:version="1.1 (c68e22c387, 2021-05-23)"
   sodipodi:docname="coca.svg"
   xmlns:inkscape="http://www.inkscape.org/namespaces/inkscape"
   xmlns:sodipodi="http://sodipodi.sourceforge.net/DTD/sodipodi-0.dtd"
   xmlns:xlink="http://www.w3.org/1999/xlink"
   xmlns="http://www.w3.org/2000/svg"
   xmlns:svg="http://www.w3.org/2000/svg">
  <sodipodi:namedview
     id="namedview16641"
     pagecolor="#ffffff"
     bordercolor="#999999"
     borderopacity="1"
     inkscape:pageshadow="0"
     inkscape:pageopacity="0"
     inkscape:pagecheckerboard="0"
     inkscape:document-units="mm"
     showgrid="false"
     units="px"
     inkscape:zoom="0.49071405"
     inkscape:cx="498.25351"
     inkscape:cy="7.1324633"
     inkscape:window-width="1920"
     inkscape:window-height="1001"
     inkscape:window-x="-9"
     inkscape:window-y="-9"
     inkscape:window-maximized="1"
     inkscape:current-layer="layer1" />
  <defs
     id="defs16636">
    <linearGradient
       inkscape:collect="always"
       xlink:href="#linearGradient2056"
       id="linearGradient2748"
       gradientUnits="userSpaceOnUse"
       gradientTransform="matrix(-0.08076697,0.52821892,-0.59813794,-0.17850914,866.70464,245.02773)"
       x1="217.35728"
       y1="965.96765"
       x2="251.47275"
       y2="968.56689" />
    <linearGradient
       inkscape:collect="always"
       id="linearGradient2056">
      <stop
         style="stop-color:#92fb85;stop-opacity:1"
         offset="0"
         id="stop2052" />
      <stop
         style="stop-color:#157b05;stop-opacity:1"
         offset="1"
         id="stop2054" />
    </linearGradient>
    <linearGradient
       inkscape:collect="always"
       xlink:href="#linearGradient2056"
       id="linearGradient3080"
       gradientUnits="userSpaceOnUse"
       gradientTransform="matrix(0.05579929,0.53162848,-0.62265997,-0.01179845,870.8608,57.075525)"
       x1="217.35728"
       y1="965.96765"
       x2="251.47275"
       y2="968.56689" />
    <linearGradient
       inkscape:collect="always"
       xlink:href="#linearGradient2056"
       id="linearGradient4668"
       gradientUnits="userSpaceOnUse"
       gradientTransform="matrix(0.45315668,-0.26134223,0.23366059,0.59427578,-113.84415,-330.79087)"
       x1="217.35728"
       y1="965.96765"
       x2="251.47275"
       y2="968.56689" />
    <linearGradient
       inkscape:collect="always"
       xlink:href="#linearGradient2056"
       id="linearGradient4672"
       gradientUnits="userSpaceOnUse"
       gradientTransform="matrix(0.47112583,-0.22516254,0.1891499,0.61082608,-58.010381,-380.38924)"
       x1="217.35728"
       y1="965.96765"
       x2="251.47275"
       y2="968.56689" />
    <linearGradient
       inkscape:collect="always"
       xlink:href="#linearGradient2056"
       id="linearGradient4676"
       gradientUnits="userSpaceOnUse"
       gradientTransform="matrix(0.50541023,0.14579479,-0.15956766,0.51305216,297.61366,-385.20157)"
       x1="217.35728"
       y1="965.96765"
       x2="251.47275"
       y2="968.56689" />
    <linearGradient
       inkscape:collect="always"
       xlink:href="#linearGradient2056"
       id="linearGradient6220"
       gradientUnits="userSpaceOnUse"
       gradientTransform="matrix(-0.08076697,0.52821892,-0.59813794,-0.17850914,853.52125,263.22334)"
       x1="217.35728"
       y1="965.96765"
       x2="251.47275"
       y2="968.56689" />
  </defs>
  <g
     inkscape:label="Layer 1"
     inkscape:groupmode="layer"
     id="layer1">
    <g
       id="g1075"
       transform="translate(130.84746,160.50239)">
      <ellipse
         style="display:inline;fill:#ecf0c6;fill-opacity:1;stroke:#000000;stroke-width:0.79375;stroke-miterlimit:4;stroke-dasharray:none;stroke-opacity:1"
         id="ellipse13634"
         cx="-64.70163"
         cy="-94.356552"
         rx="65.619385"
         ry="65.619377"
         inkscape:export-filename="C:\Users\Anna Pedersen\Desktop\path4850.png"
         inkscape:export-xdpi="96"
         inkscape:export-ydpi="96" />
      <g
         id="g12275"
         transform="translate(-314.90526,-276.89344)">
        <path
           style="fill:#926f25;fill-opacity:1;stroke:#000000;stroke-width:0.345721;stroke-linecap:butt;stroke-linejoin:miter;stroke-miterlimit:4;stroke-dasharray:none;stroke-opacity:1"
           d="m 257.29802,168.52826 c -3.47907,1.57926 -4.18179,2.80328 -6.33085,6.53979 -0.517,0.8887 -1.07048,1.75818 -1.7115,2.55171 -3.00912,3.96867 -6.01255,7.94324 -8.95179,11.97254 -2.70531,3.68798 -5.39749,7.38766 -8.02962,11.13608 -2.07614,3.00182 -4.01242,6.1084 -5.96755,9.19878 -1.65444,2.62126 -3.29316,5.25403 -4.97804,7.85387 -0.65384,1.00908 -1.34516,1.99224 -2.0986,2.91866 -0.88874,1.11965 -1.82538,2.19227 -2.74788,3.2786 0.27075,0.55297 0.64483,1.02289 0.96751,1.53403 0.21222,0.044 0.37207,-0.19913 0.50909,-0.35724 2.58998,-2.94167 4.96311,-6.12431 6.99923,-9.5352 2.37594,-3.92594 4.65736,-7.91511 7.10797,-11.79122 1.56598,-2.49117 3.19624,-4.93641 4.84616,-7.36574 3.4776,-5.15046 7.01102,-10.25779 10.57238,-15.34251 4.32511,-5.26853 6.88968,-8.75888 9.81349,-12.59215 z"
           id="path2714"
           sodipodi:nodetypes="ccccccsccccccccc" />
        <ellipse
           style="fill:#e10000;fill-opacity:1;stroke:#000000;stroke-width:0.324004;stroke-linejoin:round;stroke-miterlimit:4;stroke-dasharray:none;stroke-opacity:1"
           id="ellipse2722"
           cx="231.30247"
           cy="200.99344"
           rx="2.7295256"
           ry="4.8819056"
           transform="matrix(0.98698846,-0.16079112,0.11394569,0.99348698,0,0)" />
        <ellipse
           style="fill:#e10000;fill-opacity:1;stroke:#000000;stroke-width:0.324279;stroke-linejoin:round;stroke-miterlimit:4;stroke-dasharray:none;stroke-opacity:1"
           id="ellipse2724"
           cx="232.3006"
           cy="-191.70747"
           rx="2.8495951"
           ry="4.7933445"
           transform="matrix(0.29127249,0.95664013,-0.9757731,0.21878494,0,0)" />
        <ellipse
           style="fill:#e10000;fill-opacity:1;stroke:#000000;stroke-width:0.332076;stroke-linejoin:round;stroke-miterlimit:4;stroke-dasharray:none;stroke-opacity:1"
           id="ellipse2726"
           cx="180.5291"
           cy="187.6937"
           rx="2.5203216"
           ry="4.0695553"
           transform="matrix(0.99985097,0.01726372,0.29299559,0.95611379,0,0)" />
        <path
           style="fill:#97be8f;fill-opacity:1;stroke:#000000;stroke-width:0.161911;stroke-linecap:butt;stroke-linejoin:miter;stroke-miterlimit:4;stroke-dasharray:none;stroke-opacity:1"
           d="m 252.95036,166.38412 c -0.3844,0.0761 -0.73283,0.26778 -1.09329,0.41638 -0.19657,0.0841 -0.39647,0.16121 -0.60156,0.22065 -0.16137,0.053 -0.2465,0.27608 -0.1521,0.42378 0.28499,0.36775 0.59831,0.71418 0.84386,1.11265 0.1586,0.24576 0.30029,0.50234 0.43777,0.76111 0.16073,0.38556 0.18997,0.81135 0.18848,1.22622 0.008,0.53706 -0.015,1.07403 -0.0179,1.61109 -0.0155,0.27928 -0.13505,0.53485 -0.22631,0.79373 -0.006,0.01 -0.0395,0.0971 -0.002,0.031 0.12417,-0.1487 0.25268,-0.2941 0.36691,-0.4514 0.14234,-0.39087 0.13414,-0.81485 0.14871,-1.22573 0.0124,-0.46391 0.0307,-0.92772 0.0381,-1.39163 -0.006,-0.40998 -0.10102,-0.81024 -0.16349,-1.21332 -0.0418,-0.17281 -0.0171,-0.35173 -6.1e-4,-0.52645 0.0351,-0.31351 0.1039,-0.62162 0.16567,-0.93022 0.0494,-0.21775 0.0988,-0.4353 0.1482,-0.65284 0.004,-0.074 0.004,-0.17602 -0.0804,-0.20474 z"
           id="path2728" />
        <path
           style="fill:#97be8f;fill-opacity:1;stroke:#000000;stroke-width:0.161911;stroke-linecap:butt;stroke-linejoin:miter;stroke-miterlimit:4;stroke-dasharray:none;stroke-opacity:1"
           d="m 250.10534,179.65413 c 0.1379,0.37715 0.16155,0.78313 0.22704,1.17709 0.033,0.21655 0.0739,0.43209 0.132,0.64313 0.0409,0.16902 -0.0997,0.36074 -0.27134,0.35514 -0.45355,-0.058 -0.90424,-0.1515 -1.36257,-0.15851 -0.28637,-0.011 -0.57299,0 -0.85908,0.014 -0.40333,0.061 -0.77118,0.25768 -1.11384,0.47592 -0.44878,0.27399 -0.88138,0.57489 -1.32454,0.85828 -0.22311,0.15971 -0.37222,0.39827 -0.53881,0.61371 -0.004,0.011 -0.0593,0.0851 -0.0245,0.018 0.0582,-0.18672 0.11139,-0.37555 0.18188,-0.55807 0.24919,-0.32932 0.60447,-0.54387 0.93712,-0.77152 0.37758,-0.25357 0.75204,-0.51214 1.13223,-0.76131 0.34264,-0.20894 0.72364,-0.33512 1.09004,-0.49113 0.16495,-0.054 0.30013,-0.16901 0.43632,-0.27468 0.24109,-0.19483 0.46028,-0.41618 0.68352,-0.63183 0.15433,-0.1571 0.30869,-0.31431 0.46302,-0.47141 0.0592,-0.042 0.14365,-0.0961 0.21156,-0.037 z"
           id="path2730" />
        <path
           style="fill:#97be8f;fill-opacity:1;stroke:#000000;stroke-width:0.242867;stroke-linecap:butt;stroke-linejoin:miter;stroke-miterlimit:4;stroke-dasharray:none;stroke-opacity:1"
           d="m 237.88704,185.54188 c -0.3844,0.0761 -0.73283,0.26778 -1.09329,0.41638 -0.19658,0.0841 -0.39648,0.16121 -0.60156,0.22055 -0.16137,0.053 -0.24651,0.27619 -0.1521,0.42389 1.18914,1.61068 1.25196,5.2114 0.62968,6.95837 2.04517,2.77536 1.00163,-6.22838 1.14945,-7.16151 0.0494,-0.21765 0.0988,-0.43529 0.14817,-0.65284 0.004,-0.074 0.004,-0.17612 -0.0804,-0.20484 z"
           id="path2732"
           sodipodi:nodetypes="sccccccss" />
        <path
           id="path2744"
           style="fill:url(#linearGradient2748);fill-opacity:1;stroke:#000000;stroke-width:0.304152;stroke-linejoin:round"
           d="m 276.49561,191.11152 c -4.34475,-2.24891 -9.39555,-2.94918 -14.17985,-2.11091 -4.24482,0.57418 -8.4023,1.70854 -12.66528,2.15664 -0.60132,0.0991 -1.31843,0.15491 -1.71266,0.69977 -0.36153,0.63173 -0.0878,1.46709 0.45201,1.89318 1.05069,1.17338 2.46363,1.88736 3.79689,2.65588 3.6287,1.939 7.4788,3.37837 11.21107,5.08311 2.82398,1.23183 5.68689,2.53901 8.76682,2.88734 2.36034,0.28509 4.7473,-0.049 7.04125,-0.63353 2.08831,-0.48312 4.21805,-0.86478 6.21046,-1.69493 0.48179,-0.22626 1.04435,-0.589 1.06835,-1.19521 0.0103,-0.76131 -0.46181,-1.39793 -0.8234,-2.02235 -1.14981,-1.72126 -2.79056,-2.99001 -4.3086,-4.34272 -1.50577,-1.28436 -3.11498,-2.45535 -4.85706,-3.37627 z" />
        <path
           id="path3078"
           style="fill:url(#linearGradient3080);fill-opacity:1;stroke:#000000;stroke-width:0.304152;stroke-linejoin:round"
           d="m 298.25003,168.75972 c -3.45746,-1.83123 -6.82708,-3.91053 -10.54569,-5.14726 -3.48954,-0.98126 -7.2146,-0.76131 -10.68719,0.18412 -3.68404,1.05691 -7.05499,2.95939 -10.5084,4.60349 -1.93033,0.95014 -3.89891,1.81592 -5.85636,2.70322 -0.55895,0.31431 -0.86597,1.12986 -0.47793,1.69884 0.40687,0.71938 1.22791,0.97916 1.92591,1.29377 2.0752,0.86108 4.306,1.18259 6.49429,1.58957 3.9343,0.63682 7.88892,1.12885 11.83346,1.69103 2.78864,0.33292 5.65063,0.3033 8.38079,-0.42679 2.99514,-0.69546 5.93037,-1.65921 8.78015,-2.8328 1.08517,-0.50674 2.20164,-1.09723 2.93845,-2.0922 0.33767,-0.7452 -0.0364,-1.6312 -0.62761,-2.11542 -0.4825,-0.47572 -1.06462,-0.82596 -1.64987,-1.14957 z" />
        <path
           id="path4666"
           style="fill:url(#linearGradient4668);fill-opacity:1;stroke:#000000;stroke-width:0.304152;stroke-linejoin:round"
           d="m 215.15253,166.21581 c -0.85694,-0.45881 -1.86113,-0.83396 -2.82902,-0.54447 -1.14012,0.5979 -1.82062,1.82703 -2.16493,3.05325 -0.53584,1.91018 -0.45268,3.92083 -0.46249,5.88766 -0.019,3.35535 0.54954,6.75383 1.94573,9.80258 1.09147,2.40591 2.7874,4.45239 4.61248,6.30213 0.80899,0.82185 1.63947,1.62099 2.41452,2.47746 2.79194,2.98451 5.49987,6.05717 8.42593,8.90498 0.37358,0.38036 0.93088,0.66245 1.45734,0.46671 0.60637,-0.25497 0.86484,-0.96374 0.89412,-1.59397 0.0747,-1.22602 0.0298,-2.45494 -0.0578,-3.67897 -0.0823,-1.09203 -0.119,-2.18666 -0.1199,-3.2817 -0.0606,-3.38507 0.0925,-6.82308 -0.69347,-10.13951 -0.91951,-3.79585 -2.91096,-7.24836 -5.41744,-10.16132 -1.79594,-2.15345 -3.7018,-4.22564 -5.84077,-6.02274 -0.67902,-0.55268 -1.39704,-1.05761 -2.16429,-1.47209 z" />
        <path
           id="path4670"
           style="fill:url(#linearGradient4672);fill-opacity:1;stroke:#000000;stroke-width:0.304152;stroke-linejoin:round"
           d="m 230.21419,140.32702 c -1.50608,1.01559 -2.43664,3.09568 -2.6319,5.24583 -0.47941,3.17753 -0.75618,6.49866 -0.19206,9.72823 0.69925,4.18831 2.50938,8.06241 4.98514,10.97537 2.33133,2.9811 4.9869,5.48828 7.52287,8.16368 1.03987,1.15968 1.98342,2.46185 3.06871,3.55279 0.56777,0.44559 1.42387,0.37194 1.78516,-0.37856 0.50202,-0.90971 0.46434,-2.09411 0.46827,-3.17283 -0.0435,-3.09578 -0.72204,-6.1142 -1.25394,-9.13003 -0.62465,-3.25709 -1.19699,-6.52958 -1.86204,-9.77496 -0.48786,-2.13934 -1.25823,-4.18271 -2.28923,-5.99573 -1.3175,-2.43463 -2.89647,-4.62691 -4.58856,-6.64216 -1.09908,-1.22742 -2.3525,-2.34427 -3.79028,-2.73113 -0.41114,-0.0861 -0.84302,-0.053 -1.22211,0.1594 z" />
        <path
           style="fill:#3ea333;fill-opacity:1;stroke:#000000;stroke-width:0.323823;stroke-linecap:butt;stroke-linejoin:miter;stroke-miterlimit:4;stroke-dasharray:none;stroke-opacity:1"
           d="m 239.07114,161.4319 c -0.15138,0.88049 0.14591,1.74767 0.35532,2.59013 0.71298,2.66639 1.72798,5.24803 2.2285,7.97296 0.65131,3.21706 1.28853,6.45173 1.48501,9.73854 0.0626,0.905 0.12249,1.81031 0.19392,2.71452 -0.0485,0.17602 0.15286,0.38316 0.31522,0.27138 0.33509,-0.25807 0.69619,-0.55537 0.79605,-0.99667 0.0468,-0.26978 0.0148,-0.54696 0.0236,-0.81995 -0.0236,-1.95891 -0.38308,-3.89441 -0.82302,-5.79409 -0.45354,-1.91979 -0.92498,-3.83587 -1.3112,-5.77167 -0.38096,-1.72626 -0.9211,-3.40959 -1.50819,-5.07171 -0.55148,-1.60908 -1.05955,-3.23567 -1.70322,-4.80933 -0.009,-0.018 -0.0324,-0.038 -0.0525,-0.023 z"
           id="path2736" />
        <path
           style="fill:#3ea333;fill-opacity:1;stroke:#000000;stroke-width:0.323823;stroke-linecap:butt;stroke-linejoin:miter;stroke-miterlimit:4;stroke-dasharray:none;stroke-opacity:1"
           d="m 223.18401,183.7733 c -0.13795,0.88299 0.17259,1.74517 0.3948,2.58423 0.75362,2.65448 1.80794,5.21931 2.35005,7.93583 0.70037,3.20605 1.38693,6.43012 1.6336,9.71332 0.0764,0.90391 0.15013,1.80802 0.23534,2.71102 -0.0458,0.17672 0.15869,0.38066 0.3194,0.26608 0.33111,-0.26338 0.68765,-0.56658 0.78076,-1.00948 0.0427,-0.27038 0.006,-0.54716 0.0112,-0.82025 -0.0535,-1.95811 -0.44257,-3.88751 -0.91141,-5.77988 -0.48284,-1.91228 -0.9835,-3.82046 -1.39923,-5.74976 -0.40729,-1.71985 -0.97313,-3.39418 -1.58551,-5.04669 -0.576,-1.59987 -1.10885,-3.21806 -1.77648,-4.78111 -0.008,-0.019 -0.0339,-0.037 -0.0525,-0.023 z"
           id="path2738" />
        <path
           style="fill:#3ea333;fill-opacity:1;stroke:#000000;stroke-width:0.323823;stroke-linecap:butt;stroke-linejoin:miter;stroke-miterlimit:4;stroke-dasharray:none;stroke-opacity:1"
           d="m 276.34717,172.43598 c -0.79514,0.36025 -1.6839,0.26848 -2.52864,0.25898 -2.68521,-0.0811 -5.3621,-0.48373 -8.05224,-0.33813 -3.19029,0.11158 -6.39399,0.24146 -9.5422,0.82425 -0.8689,0.15201 -1.73732,0.30681 -2.60768,0.44991 -0.15457,0.0901 -0.39776,-0.062 -0.33073,-0.25097 0.16419,-0.39637 0.35905,-0.82806 0.75183,-1.0326 0.24336,-0.11077 0.51261,-0.14449 0.76813,-0.21804 1.8541,-0.441 3.76581,-0.54036 5.66282,-0.55097 1.91926,0 3.83921,0.015 5.75754,-0.057 1.71938,-0.028 3.43595,0.11278 5.14376,0.3056 1.64911,0.17002 3.30467,0.2924 4.94228,0.56298 0.0191,0.01 0.0429,0.025 0.035,0.047 z"
           id="path2742" />
        <path
           style="fill:#3ea333;fill-opacity:1;stroke:#000000;stroke-width:0.242867;stroke-linecap:butt;stroke-linejoin:miter;stroke-miterlimit:4;stroke-dasharray:none;stroke-opacity:1"
           d="m 274.37007,196.55188 c -1.31401,-0.31862 -2.62679,-0.64264 -3.94464,-0.94424 -2.43684,-0.56708 -4.87787,-1.11555 -7.32395,-1.6388 -1.68135,-0.35213 -3.37409,-0.64613 -5.07463,-0.88119 -2.17652,-0.31231 -4.35258,-0.62782 -6.52696,-0.95544 -1.57299,-0.23206 -3.14596,-0.46681 -4.72443,-0.65634 -1.39274,-0.15851 -2.79319,-0.27238 -4.19532,-0.25357 -0.95908,0.049 -1.88276,0.34203 -2.80745,0.58439 -0.3772,0.10057 -0.72821,0.31001 -0.98337,0.61541 -0.21783,0.25237 -0.38341,0.55498 -0.48024,0.87699 -0.0556,0.27909 0.18445,0.58119 0.46636,0.55508 0.71087,0.016 1.39438,-0.22456 2.06039,-0.45221 0.77797,-0.26948 1.56461,-0.57358 2.39484,-0.5972 0.9748,-0.042 1.95012,0.01 2.92418,0.048 2.92864,0.13089 5.84641,0.4395 8.7574,0.78593 1.48065,0.17942 2.96115,0.36114 4.43931,0.56118 2.49595,0.34353 4.96088,0.88099 7.43209,1.37152 1.91133,0.38025 3.82197,0.77182 5.75049,1.0498 0.58776,0.0811 1.18678,0.11938 1.77594,0.031 0.0632,0.023 0.1857,-0.071 0.06,-0.10026 z"
           id="path2746" />
        <path
           id="path4674"
           style="fill:url(#linearGradient4676);fill-opacity:1;stroke:#000000;stroke-width:0.299482;stroke-linejoin:round;stroke-miterlimit:4;stroke-dasharray:none"
           d="m 265.78534,130.17761 c -0.76473,-0.24827 -1.52751,0.17442 -2.15839,0.58499 -1.76268,1.1907 -3.16605,2.8322 -4.68198,4.3194 -2.76617,2.94268 -4.37061,7.01761 -4.32468,11.11707 -0.008,3.39778 0.8739,6.69849 1.5621,9.99571 0.48616,2.22789 0.91678,4.4693 1.28165,6.72131 0.17884,0.70107 0.92389,1.26835 1.63228,1.0416 0.84246,-0.18512 1.38654,-0.94073 1.91698,-1.57576 1.41138,-1.75468 2.34802,-3.83727 3.35349,-5.84912 1.31476,-2.74905 2.63128,-5.4981 3.88976,-8.27486 0.91786,-2.17136 1.4887,-4.55266 1.28293,-6.93266 -0.18124,-2.6895 -1.09277,-5.24332 -1.92825,-7.77432 -0.41391,-1.13206 -0.8076,-2.32486 -1.61412,-3.23287 -0.0643,-0.056 -0.13712,-0.10056 -0.21177,-0.14049 z" />
        <path
           style="fill:#3ea333;fill-opacity:1;stroke:#000000;stroke-width:0.323823;stroke-linecap:butt;stroke-linejoin:miter;stroke-miterlimit:4;stroke-dasharray:none;stroke-opacity:1"
           d="m 261.96751,146.11321 c -0.51958,0.71668 -0.63245,1.62879 -0.81313,2.47826 -0.5268,2.71192 -0.74679,5.48769 -1.48895,8.15358 -0.82227,3.17533 -1.66483,6.35987 -2.92391,9.3872 -0.339,0.83746 -0.68063,1.67373 -1.01156,2.51469 -0.1202,0.13479 -0.0306,0.41298 0.1632,0.38816 0.41204,-0.0761 0.8644,-0.17412 1.14621,-0.52215 0.15955,-0.21935 0.25196,-0.48182 0.37898,-0.72148 0.83391,-1.76099 1.35749,-3.65636 1.79359,-5.55694 0.43278,-1.92499 0.8479,-3.85478 1.34776,-5.76277 0.41311,-1.71845 0.66526,-3.47213 0.86625,-5.22861 0.2096,-1.69253 0.46571,-3.38077 0.57747,-5.08431 -7e-5,-0.02 -0.0122,-0.049 -0.0359,-0.045 z"
           id="path2734" />
        <path
           id="path6218"
           style="fill:url(#linearGradient6220);fill-opacity:1;stroke:#000000;stroke-width:0.304152;stroke-linejoin:round"
           d="m 263.64265,209.48506 c -4.52087,-2.44464 -9.84588,-3.16212 -14.8555,-2.2369 -4.27081,0.63923 -8.47748,1.68973 -12.77059,2.17806 -0.54865,0.079 -1.20759,0.31091 -1.37692,0.91892 -0.18777,0.71328 0.25017,1.42716 0.79818,1.83143 1.31974,1.30077 3.0004,2.0958 4.60118,2.95668 3.73203,1.86285 7.61838,3.36676 11.41041,5.09072 2.57191,1.12396 5.23824,2.13914 8.04046,2.40652 3.21256,0.41788 6.48834,0.01 9.57842,-0.95264 1.25516,-0.37385 2.58118,-0.72939 3.59398,-1.62539 0.45174,-0.51185 0.34109,-1.28697 0.0839,-1.86696 -0.64126,-1.81422 -1.97065,-3.25819 -3.39431,-4.4653 -1.76932,-1.58926 -3.63737,-3.08377 -5.70914,-4.23514 z" />
        <path
           style="fill:#3ea333;fill-opacity:1;stroke:#000000;stroke-width:0.242867;stroke-linecap:butt;stroke-linejoin:miter;stroke-miterlimit:4;stroke-dasharray:none;stroke-opacity:1"
           d="m 262.89094,214.97645 c -1.31401,-0.31862 -2.62679,-0.64263 -3.94465,-0.94424 -2.43683,-0.56708 -4.87786,-1.11545 -7.32394,-1.6388 -1.68137,-0.35213 -3.3741,-0.64613 -5.07463,-0.88119 -2.17652,-0.31231 -4.35258,-0.62782 -6.52696,-0.95544 -1.573,-0.23206 -3.14596,-0.46681 -4.72443,-0.65624 -1.39274,-0.15841 -2.79319,-0.27248 -4.19531,-0.25367 -0.9591,0.049 -1.88277,0.34203 -2.80747,0.58449 -0.3772,0.10047 -0.7282,0.31001 -0.98336,0.61531 -0.21783,0.25237 -0.38341,0.55498 -0.48024,0.87709 -0.0556,0.27899 0.18445,0.58119 0.46635,0.55498 0.71088,0.016 1.39439,-0.22455 2.06039,-0.45221 0.77798,-0.26948 1.56462,-0.57358 2.39484,-0.5972 0.97481,-0.042 1.95013,0.01 2.92419,0.048 2.92864,0.13099 5.84641,0.4395 8.75738,0.78593 1.48065,0.17942 2.96115,0.36114 4.43932,0.56128 2.49596,0.34343 4.96089,0.88089 7.4321,1.37142 1.91132,0.38025 3.82197,0.77182 5.75049,1.0498 0.58776,0.0811 1.18677,0.11938 1.77594,0.031 0.0632,0.023 0.18569,-0.071 0.06,-0.10026 z"
           id="path6222" />
        <ellipse
           style="fill:#e10000;fill-opacity:1;stroke:#000000;stroke-width:0.336444;stroke-linejoin:round;stroke-miterlimit:4;stroke-dasharray:none;stroke-opacity:1"
           id="ellipse6224"
           cx="16.400478"
           cy="291.14709"
           rx="2.4862087"
           ry="3.8474054"
           transform="matrix(0.90050837,-0.43483868,0.74194305,0.67046291,0,0)" />
        <path
           style="fill:#97be8f;fill-opacity:1;stroke:#000000;stroke-width:0.242867;stroke-linecap:butt;stroke-linejoin:miter;stroke-miterlimit:4;stroke-dasharray:none;stroke-opacity:1"
           d="m 234.14929,188.44373 c -0.0424,0.46091 -1.68569,1.50181 -1.13477,1.83724 2.00757,0.87558 3.17644,2.41752 3.49584,4.50282 0.003,0.47952 0.21959,0.1514 0.57532,-0.027 -0.60214,-1.61128 -1.61177,-5.98262 -2.96332,-6.4115 z"
           id="path6226"
           sodipodi:nodetypes="cccccc" />
        <ellipse
           style="fill:#e10000;fill-opacity:1;stroke:#000000;stroke-width:0.341375;stroke-linejoin:round;stroke-miterlimit:4;stroke-dasharray:none;stroke-opacity:1"
           id="ellipse6228"
           cx="302.60175"
           cy="-277.38675"
           rx="2.1450059"
           ry="2.8609231"
           transform="matrix(-0.07739945,0.99700016,-0.93087581,0.36533578,0,0)" />
        <path
           style="fill:#97be8f;fill-opacity:1;stroke:#000000;stroke-width:0.242867;stroke-linecap:butt;stroke-linejoin:miter;stroke-miterlimit:4;stroke-dasharray:none;stroke-opacity:1"
           d="m 235.8325,198.16226 c 0.86329,-0.16341 1.00763,-2.16315 1.15707,-3.2722 -0.1522,0.11938 0.24975,-0.20544 0.3379,-0.13629 0.18873,0.66655 0.14859,3.726 -0.0886,4.08975 -0.38567,-0.1412 -1.05824,-0.53276 -1.4064,-0.68126 z"
           id="path6230"
           sodipodi:nodetypes="ccccc" />
      </g>
    </g>
  </g>
</svg>
