<?xml version="1.0" encoding="UTF-8" standalone="no"?>
<!-- Created with Inkscape (http://www.inkscape.org/) -->

<svg
   width="500"
   height="500"
   viewBox="0 0 132.29166 132.29167"
   version="1.1"
   id="svg92861"
   inkscape:version="1.1 (c68e22c387, 2021-05-23)"
   sodipodi:docname="GoldenTeacher.svg"
   xmlns:inkscape="http://www.inkscape.org/namespaces/inkscape"
   xmlns:sodipodi="http://sodipodi.sourceforge.net/DTD/sodipodi-0.dtd"
   xmlns:xlink="http://www.w3.org/1999/xlink"
   xmlns="http://www.w3.org/2000/svg"
   xmlns:svg="http://www.w3.org/2000/svg">
  <sodipodi:namedview
     id="namedview92863"
     pagecolor="#ffffff"
     bordercolor="#999999"
     borderopacity="1"
     inkscape:pageshadow="0"
     inkscape:pageopacity="0"
     inkscape:pagecheckerboard="0"
     inkscape:document-units="px"
     showgrid="false"
     units="px"
     inkscape:zoom="0.69397447"
     inkscape:cx="339.34966"
     inkscape:cy="346.55454"
     inkscape:window-width="1920"
     inkscape:window-height="1001"
     inkscape:window-x="-9"
     inkscape:window-y="-9"
     inkscape:window-maximized="1"
     inkscape:current-layer="layer1" />
  <defs
     id="defs92858">
    <linearGradient
       id="linearGradient2896"
       inkscape:swatch="gradient">
      <stop
         style="stop-color:#fdfded;stop-opacity:1"
         offset="0"
         id="stop2892" />
      <stop
         style="stop-color:#c1b57f;stop-opacity:1"
         offset="1"
         id="stop2894" />
    </linearGradient>
    <linearGradient
       inkscape:collect="always"
       xlink:href="#linearGradient157944"
       id="linearGradient69100"
       gradientUnits="userSpaceOnUse"
       gradientTransform="matrix(-0.20626271,0.02808453,0.03362145,0.24692783,-776.79875,671.78189)"
       x1="177.94324"
       y1="-330.32742"
       x2="178.2088"
       y2="-292.53549" />
    <linearGradient
       inkscape:collect="always"
       id="linearGradient157944">
      <stop
         style="stop-color:#c8aa21;stop-opacity:1"
         offset="0"
         id="stop157940" />
      <stop
         style="stop-color:#ffffff;stop-opacity:0"
         offset="1"
         id="stop157942" />
    </linearGradient>
    <linearGradient
       inkscape:collect="always"
       xlink:href="#linearGradient168751"
       id="linearGradient69102"
       gradientUnits="userSpaceOnUse"
       gradientTransform="matrix(-0.20626271,0.02808453,0.03362145,0.24692783,-776.79875,671.78189)"
       x1="177.98961"
       y1="-310.64322"
       x2="177.94423"
       y2="-294.84933" />
    <linearGradient
       inkscape:collect="always"
       id="linearGradient168751">
      <stop
         style="stop-color:#ffffff;stop-opacity:0"
         offset="0"
         id="stop168747" />
      <stop
         style="stop-color:#ffffff;stop-opacity:1"
         offset="1"
         id="stop168749" />
    </linearGradient>
    <linearGradient
       inkscape:collect="always"
       xlink:href="#linearGradient57240"
       id="linearGradient69104"
       gradientUnits="userSpaceOnUse"
       gradientTransform="matrix(-0.55972651,0.07621181,0.08442,0.6200104,-845.47797,518.8918)"
       x1="-18.901667"
       y1="131.76489"
       x2="-18.622931"
       y2="137.72958" />
    <linearGradient
       inkscape:collect="always"
       id="linearGradient57240">
      <stop
         style="stop-color:#000000;stop-opacity:1"
         offset="0"
         id="stop57236" />
      <stop
         style="stop-color:#1e6c1e;stop-opacity:0"
         offset="1"
         id="stop57238" />
    </linearGradient>
    <linearGradient
       inkscape:collect="always"
       xlink:href="#linearGradient2896"
       id="linearGradient69106"
       gradientUnits="userSpaceOnUse"
       gradientTransform="matrix(0.18326064,0.02859056,-0.02606409,0.2575747,-817.56928,569.31136)"
       x1="-4.8125"
       y1="144.99805"
       x2="-13.482976"
       y2="281.73169" />
    <linearGradient
       inkscape:collect="always"
       xlink:href="#linearGradient157944"
       id="linearGradient69108"
       gradientUnits="userSpaceOnUse"
       gradientTransform="matrix(0.31011563,0.06483338,-0.05988257,0.39216993,-913.83607,686.80593)"
       x1="177.94324"
       y1="-330.32742"
       x2="178.2088"
       y2="-292.53549" />
    <linearGradient
       inkscape:collect="always"
       xlink:href="#linearGradient168751"
       id="linearGradient69110"
       gradientUnits="userSpaceOnUse"
       gradientTransform="matrix(0.31011563,0.06483338,-0.05988257,0.39216993,-913.83607,686.80593)"
       x1="177.98961"
       y1="-310.64322"
       x2="177.94423"
       y2="-294.84933" />
    <linearGradient
       inkscape:collect="always"
       xlink:href="#linearGradient57240"
       id="linearGradient69112"
       gradientUnits="userSpaceOnUse"
       gradientTransform="matrix(0.93554203,0.19558624,-0.14990493,0.98172477,-803.41187,449.35907)"
       x1="-18.901667"
       y1="131.76489"
       x2="-18.622931"
       y2="137.72958" />
    <linearGradient
       inkscape:collect="always"
       xlink:href="#linearGradient2896"
       id="linearGradient69114"
       gradientUnits="userSpaceOnUse"
       gradientTransform="matrix(-0.32405605,0.07659555,0.05408984,0.4498022,-854.73474,524.16505)"
       x1="-4.8125"
       y1="144.99805"
       x2="-13.482976"
       y2="281.73169" />
    <linearGradient
       inkscape:collect="always"
       xlink:href="#linearGradient2896"
       id="linearGradient69116"
       gradientUnits="userSpaceOnUse"
       gradientTransform="matrix(-0.13023688,0.14775843,0.18705321,0.27937215,-932.39684,573.06424)"
       x1="-4.8125"
       y1="144.99805"
       x2="-13.482976"
       y2="281.73169" />
    <linearGradient
       inkscape:collect="always"
       xlink:href="#linearGradient157944"
       id="linearGradient69118"
       gradientUnits="userSpaceOnUse"
       gradientTransform="matrix(0.28262864,-0.06307363,0.06731033,0.3288899,-901.91332,675.81361)"
       x1="177.94324"
       y1="-330.32742"
       x2="178.2088"
       y2="-292.53549" />
    <linearGradient
       inkscape:collect="always"
       xlink:href="#linearGradient168751"
       id="linearGradient69120"
       gradientUnits="userSpaceOnUse"
       gradientTransform="matrix(0.28262864,-0.06307363,0.06731033,0.3288899,-901.91332,675.81335)"
       x1="177.98961"
       y1="-310.64322"
       x2="177.94423"
       y2="-294.84933" />
    <linearGradient
       inkscape:collect="always"
       xlink:href="#linearGradient157944"
       id="linearGradient69122"
       gradientUnits="userSpaceOnUse"
       gradientTransform="matrix(0.23891473,0.03223363,-0.04065308,0.33869912,-856.64327,684.69584)"
       x1="177.94324"
       y1="-330.32742"
       x2="178.2088"
       y2="-292.53549" />
    <linearGradient
       inkscape:collect="always"
       xlink:href="#linearGradient168751"
       id="linearGradient69124"
       gradientUnits="userSpaceOnUse"
       gradientTransform="matrix(0.23891473,0.03223363,-0.04065308,0.33869912,-856.64328,684.69584)"
       x1="177.98961"
       y1="-310.64322"
       x2="177.94423"
       y2="-294.84933" />
    <linearGradient
       inkscape:collect="always"
       xlink:href="#linearGradient2896"
       id="linearGradient69126"
       gradientUnits="userSpaceOnUse"
       gradientTransform="matrix(0.23794635,0.09827832,-0.08692195,0.37688299,-788.50272,540.69851)"
       x1="-4.8125"
       y1="144.99805"
       x2="-13.482976"
       y2="281.73169" />
    <linearGradient
       inkscape:collect="always"
       xlink:href="#linearGradient2896"
       id="linearGradient69128"
       gradientUnits="userSpaceOnUse"
       gradientTransform="matrix(0.0292977,0.14024124,-0.15901486,0.06880877,-745.63226,620.17554)"
       x1="-4.8125"
       y1="144.99805"
       x2="-13.482976"
       y2="281.73169" />
    <linearGradient
       inkscape:collect="always"
       xlink:href="#linearGradient157944"
       id="linearGradient69130"
       gradientUnits="userSpaceOnUse"
       gradientTransform="matrix(-0.1248502,-0.16274643,-0.11154116,0.15029102,-777.35035,701.53843)"
       x1="177.94324"
       y1="-330.32742"
       x2="178.2088"
       y2="-292.53549" />
    <linearGradient
       inkscape:collect="always"
       xlink:href="#linearGradient168751"
       id="linearGradient69132"
       gradientUnits="userSpaceOnUse"
       gradientTransform="matrix(-0.1248502,-0.16274643,-0.11154116,0.15029102,-777.35035,701.53845)"
       x1="177.98961"
       y1="-310.64322"
       x2="177.94423"
       y2="-294.84933" />
    <linearGradient
       inkscape:collect="always"
       xlink:href="#linearGradient2896"
       id="linearGradient69134"
       gradientUnits="userSpaceOnUse"
       gradientTransform="matrix(0.08242219,0.02379507,-0.01212883,0.09722425,-814.3483,611.34347)"
       x1="-4.8125"
       y1="144.99805"
       x2="-13.482976"
       y2="281.73169" />
    <linearGradient
       inkscape:collect="always"
       xlink:href="#linearGradient157944"
       id="linearGradient69136"
       gradientUnits="userSpaceOnUse"
       gradientTransform="matrix(-0.12319342,0.01721168,0.04499204,0.09602508,-781.50639,649.02942)"
       x1="177.94324"
       y1="-330.32742"
       x2="178.2088"
       y2="-292.53549" />
    <linearGradient
       inkscape:collect="always"
       xlink:href="#linearGradient168751"
       id="linearGradient69138"
       gradientUnits="userSpaceOnUse"
       gradientTransform="matrix(-0.12319342,0.01721168,0.04499204,0.09602508,-781.50639,649.02942)"
       x1="177.98961"
       y1="-310.64322"
       x2="177.94423"
       y2="-294.84933" />
    <linearGradient
       inkscape:collect="always"
       xlink:href="#linearGradient157944"
       id="linearGradient69140"
       gradientUnits="userSpaceOnUse"
       gradientTransform="matrix(0.15706683,-0.03525215,0.04420308,0.21206149,-858.66981,687.84624)"
       x1="177.94324"
       y1="-330.32742"
       x2="178.2088"
       y2="-292.53549" />
    <linearGradient
       inkscape:collect="always"
       xlink:href="#linearGradient168751"
       id="linearGradient69142"
       gradientUnits="userSpaceOnUse"
       gradientTransform="matrix(0.15706683,-0.03525215,0.04420308,0.21206149,-858.63823,687.83782)"
       x1="177.98961"
       y1="-310.64322"
       x2="177.94423"
       y2="-294.84933" />
    <linearGradient
       inkscape:collect="always"
       xlink:href="#linearGradient57240"
       id="linearGradient69144"
       gradientUnits="userSpaceOnUse"
       gradientTransform="matrix(0.42622569,-0.09566229,0.11098939,0.53246462,-851.32809,542.82362)"
       x1="-18.901667"
       y1="131.76489"
       x2="-18.622931"
       y2="137.72958" />
    <linearGradient
       inkscape:collect="always"
       xlink:href="#linearGradient2896"
       id="linearGradient69146"
       gradientUnits="userSpaceOnUse"
       gradientTransform="matrix(-0.12469009,0.07524343,0.09035244,0.20392803,-857.46617,591.17178)"
       x1="-4.8125"
       y1="144.99805"
       x2="-13.482976"
       y2="281.73169" />
  </defs>
  <g
     inkscape:label="Layer 1"
     inkscape:groupmode="layer"
     id="layer1">
    <g
       id="g1752"
       transform="translate(-131.72708,48.226706)">
      <ellipse
         style="display:inline;fill:#ecf0c6;fill-opacity:1;stroke:#000000;stroke-width:0.79375;stroke-miterlimit:4;stroke-dasharray:none;stroke-opacity:1"
         id="ellipse152604"
         cx="197.87291"
         cy="17.919127"
         rx="65.619316"
         ry="65.619324"
         inkscape:export-filename="C:\Users\Anna Pedersen\Desktop\path4850.png"
         inkscape:export-xdpi="96"
         inkscape:export-ydpi="96" />
      <g
         id="g69098"
         transform="matrix(1.104029,0,0,1.104029,1081.8277,-637.58048)">
        <g
           id="g69016"
           transform="translate(34.990679,-4.0527969)">
          <path
             id="path69004"
             style="fill:#f0e2a3;fill-opacity:1;stroke:#000000;stroke-width:0.120525;stroke-linejoin:round;paint-order:stroke markers fill"
             d="m -825.38869,593.29106 c 1.79797,-0.0678 3.66631,0.15911 5.31187,1.07435 1.61046,0.9528 2.87442,2.5341 3.72002,4.30268 0.33878,0.7898 0.31489,1.7022 0.0842,2.50648 -0.25885,1.03812 -0.70518,2.04882 -1.42565,2.78081 -0.66365,0.64406 -1.44965,1.11928 -2.25563,1.51588 -1.02853,0.40915 -2.14927,0.35364 -3.22764,0.48658 -1.96971,0.17242 -3.97409,0.29025 -5.94037,-0.13009 -0.81581,-0.23959 -1.39347,-1.00661 -1.82453,-1.76831 -0.69098,-1.19179 -0.91958,-2.71876 -0.49728,-4.03715 0.27533,-0.94266 0.68378,-1.82643 1.09912,-2.69788 0.61409,-1.18221 1.48634,-2.20748 2.56899,-2.87512 0.73148,-0.48944 1.51621,-0.89871 2.34488,-1.15402 l 0.0272,-0.002 z" />
          <path
             id="path69006"
             style="fill:url(#linearGradient69100);fill-opacity:1;stroke:none;stroke-width:0.120525;stroke-linejoin:round;paint-order:stroke markers fill"
             d="m -825.38869,593.29106 c 1.79797,-0.0678 3.66631,0.15911 5.31187,1.07435 1.61046,0.9528 2.87442,2.5341 3.72002,4.30268 0.33878,0.7898 0.31489,1.7022 0.0842,2.50648 -0.25885,1.03812 -0.70518,2.04882 -1.42565,2.78081 -0.66365,0.64406 -1.44965,1.11928 -2.25563,1.51588 -1.02853,0.40915 -2.14927,0.35364 -3.22764,0.48658 -1.96971,0.17242 -3.97409,0.29025 -5.94037,-0.13009 -0.81581,-0.23959 -1.39347,-1.00661 -1.82453,-1.76831 -0.69098,-1.19179 -0.91958,-2.71876 -0.49728,-4.03715 0.27533,-0.94266 0.68378,-1.82643 1.09912,-2.69788 0.61409,-1.18221 1.48634,-2.20748 2.56899,-2.87512 0.73148,-0.48944 1.51621,-0.89871 2.34488,-1.15402 l 0.0272,-0.002 z" />
          <path
             id="path69008"
             style="fill:url(#linearGradient69102);fill-opacity:1;stroke:#000000;stroke-width:0.264583;stroke-linejoin:round;stroke-miterlimit:4;stroke-dasharray:none;paint-order:markers fill stroke"
             d="m -825.38869,593.29106 c 1.79797,-0.0678 3.66631,0.15911 5.31187,1.07435 1.61046,0.9528 2.87442,2.5341 3.72002,4.30268 0.33878,0.7898 0.31489,1.7022 0.0842,2.50648 -0.25885,1.03812 -0.70518,2.04882 -1.42565,2.78081 -0.66365,0.64406 -1.44965,1.11928 -2.25563,1.51588 -1.02853,0.40915 -2.14927,0.35364 -3.22764,0.48658 -1.96971,0.17242 -3.97409,0.29025 -5.94037,-0.13009 -0.81581,-0.23959 -1.39347,-1.00661 -1.82453,-1.76831 -0.69098,-1.19179 -0.91958,-2.71876 -0.49728,-4.03715 0.27533,-0.94266 0.68378,-1.82643 1.09912,-2.69788 0.61409,-1.18221 1.48634,-2.20748 2.56899,-2.87512 0.73148,-0.48944 1.51621,-0.89871 2.34488,-1.15402 l 0.0272,-0.002 z" />
          <path
             style="fill:url(#linearGradient69104);fill-opacity:1;stroke:#000000;stroke-width:0.198437;stroke-linecap:butt;stroke-linejoin:miter;stroke-miterlimit:4;stroke-dasharray:none;stroke-opacity:1"
             d="m -817.95682,602.69396 c 1.39825,-3.78572 -13.24803,-1.14774 -11.56823,0.98353"
             id="path69010"
             sodipodi:nodetypes="cc" />
          <path
             id="path69012"
             style="fill:#fdfded;stroke:#000000;stroke-width:0.264583;stroke-linejoin:round;stroke-miterlimit:4;stroke-dasharray:none;paint-order:markers fill stroke"
             d="m -824.08826,601.03878 c 0.61252,-0.0615 1.22424,-0.13385 1.83888,-0.17269 0.15372,-0.007 0.33591,0.0171 0.4349,0.16814 0.14192,0.18642 0.18282,0.43089 0.25419,0.65324 0.18597,0.68705 0.25737,1.39867 0.36496,2.10134 0.11873,0.85274 0.25005,1.7045 0.33894,2.5608 0.0189,0.43872 -0.056,0.89916 -0.30002,1.24878 -0.29297,0.47011 -0.77236,0.758 -1.26868,0.89584 -0.60271,0.18717 -1.27254,0.17832 -1.86242,-0.10311 -0.57202,-0.30001 -0.97275,-0.96051 -1.01658,-1.64966 -0.036,-0.47056 -0.008,-0.94138 -0.0221,-1.41218 -0.003,-0.44433 -0.0305,-0.88865 -0.0545,-1.33257 -0.005,-0.71767 -0.003,-1.43667 -0.0647,-2.15348 -0.007,-0.16532 -0.01,-0.33492 0.0368,-0.49268 0.15092,-0.16647 0.38168,-0.15748 0.5799,-0.19586 0.2463,-0.0422 0.49226,-0.087 0.74055,-0.11592 z" />
          <path
             id="path69014"
             style="fill:url(#linearGradient69106);fill-opacity:1;stroke:#000000;stroke-width:0.264583;stroke-linejoin:round;stroke-miterlimit:4;stroke-dasharray:none;stroke-opacity:1;paint-order:markers fill stroke"
             d="m -821.00612,606.03692 c 0.29619,0.002 0.61001,-0.0371 0.88958,0.1068 0.15545,0.0875 0.26249,0.3157 0.17068,0.49148 -0.12605,0.31664 -0.40992,0.51199 -0.53594,0.82937 -0.17617,0.37575 -0.13961,0.81623 -0.16857,1.22869 -0.10508,2.20955 -0.19442,4.42103 -0.35328,6.62529 -0.19205,2.42462 -0.56004,4.82798 -1.11192,7.17402 -0.54953,2.29655 -1.30732,4.52554 -2.24197,6.65435 -0.53944,1.19802 -1.20014,2.34259 -2.06796,3.27959 -0.64071,0.69954 -1.3502,1.31592 -2.02349,1.97604 -0.90589,0.8622 -1.79665,1.74348 -2.68308,2.62965 -0.35765,0.3306 -0.77394,0.6353 -1.25824,0.66967 -0.60932,0.0523 -1.22672,-0.36021 -1.49928,-0.96883 -0.34282,-0.66948 -0.32439,-1.51149 -0.0163,-2.17228 0.34774,-0.83062 0.95378,-1.48653 1.61764,-2.01364 1.04558,-0.86911 2.14415,-1.66499 3.13266,-2.61405 0.88769,-0.91622 1.51533,-2.09577 1.98872,-3.32677 0.56411,-1.43287 1.0401,-2.90916 1.44745,-4.40895 0.30935,-1.15962 0.54737,-2.34489 0.69626,-3.54729 0.10065,-0.68666 0.19636,-1.37469 0.31145,-2.0581 0.23177,-1.15354 0.4602,-2.31879 0.47561,-3.51156 0.0487,-1.13847 -0.002,-2.30155 -0.30253,-3.40902 -0.19643,-0.62725 -0.60015,-1.14305 -1.01354,-1.61515 -0.11884,-0.14149 -0.24696,-0.32316 -0.21331,-0.52517 0.078,-0.25743 0.32209,-0.36891 0.51188,-0.50729 0.4719,-0.32395 1.0115,-0.52367 1.56708,-0.60019 0.85037,-0.14863 1.70513,-0.26899 2.56001,-0.38754 0.0401,2.2e-4 0.0802,5.7e-4 0.12038,9.2e-4 z" />
        </g>
        <g
           id="g69030"
           transform="translate(26.983613,-14.049904)">
          <path
             id="path69018"
             style="fill:#f0e2a3;fill-opacity:1;stroke:#000000;stroke-width:0.187463;stroke-linejoin:round;paint-order:stroke markers fill"
             d="m -838.61777,568.45661 c -0.32431,0.006 -0.63597,0.14889 -0.95655,0.20519 -2.3715,0.60134 -4.7769,1.09356 -7.06676,2.05739 -1.43366,0.63385 -2.82432,1.51386 -3.89743,2.81389 -0.88528,1.19896 -1.15819,2.84626 -1.13657,4.39131 0.0241,1.38424 0.34691,2.82909 1.17974,3.85582 0.67643,0.85251 1.55015,1.44176 2.40511,2.01399 1.98454,1.24915 4.14381,2.05656 6.30715,2.76094 2.76139,0.81389 5.73882,0.70552 8.42253,-0.43357 0.54521,-0.24328 1.11773,-0.48465 1.52383,-0.99949 0.62894,-0.76147 0.99419,-1.75359 1.3396,-2.71669 0.48969,-1.46523 0.55889,-3.16945 -0.0159,-4.61679 -0.49682,-1.27378 -1.37566,-2.25777 -2.15926,-3.28934 -1.68587,-2.10988 -3.56985,-3.98398 -5.45973,-5.83591 -0.14979,-0.10142 -0.31238,-0.18386 -0.48575,-0.20674 z" />
          <path
             id="path69020"
             style="fill:url(#linearGradient69108);fill-opacity:1;stroke:none;stroke-width:0.187463;stroke-linejoin:round;paint-order:stroke markers fill"
             d="m -838.61777,568.45661 c -0.32431,0.006 -0.63597,0.14889 -0.95655,0.20519 -2.3715,0.60134 -4.7769,1.09356 -7.06676,2.05739 -1.43366,0.63385 -2.82432,1.51386 -3.89743,2.81389 -0.88528,1.19896 -1.15819,2.84626 -1.13657,4.39131 0.0241,1.38424 0.34691,2.82909 1.17974,3.85582 0.67643,0.85251 1.55015,1.44176 2.40511,2.01399 1.98454,1.24915 4.14381,2.05656 6.30715,2.76094 2.76139,0.81389 5.73882,0.70552 8.42253,-0.43357 0.54521,-0.24328 1.11773,-0.48465 1.52383,-0.99949 0.62894,-0.76147 0.99419,-1.75359 1.3396,-2.71669 0.48969,-1.46523 0.55889,-3.16945 -0.0159,-4.61679 -0.49682,-1.27378 -1.37566,-2.25777 -2.15926,-3.28934 -1.68587,-2.10988 -3.56985,-3.98398 -5.45973,-5.83591 -0.14979,-0.10142 -0.31238,-0.18386 -0.48575,-0.20674 z" />
          <path
             id="path69022"
             style="fill:url(#linearGradient69110);fill-opacity:1;stroke:#000000;stroke-width:0.264583;stroke-linejoin:round;stroke-miterlimit:4;stroke-dasharray:none;paint-order:markers fill stroke"
             d="m -838.61777,568.45661 c -0.32431,0.006 -0.63597,0.14889 -0.95655,0.20519 -2.3715,0.60134 -4.7769,1.09356 -7.06676,2.05739 -1.43366,0.63385 -2.82432,1.51386 -3.89743,2.81389 -0.88528,1.19896 -1.15819,2.84626 -1.13657,4.39131 0.0241,1.38424 0.34691,2.82909 1.17974,3.85582 0.67643,0.85251 1.55015,1.44176 2.40511,2.01399 1.98454,1.24915 4.14381,2.05656 6.30715,2.76094 2.76139,0.81389 5.73882,0.70552 8.42253,-0.43357 0.54521,-0.24328 1.11773,-0.48465 1.52383,-0.99949 0.62894,-0.76147 0.99419,-1.75359 1.3396,-2.71669 0.48969,-1.46523 0.55889,-3.16945 -0.0159,-4.61679 -0.49682,-1.27378 -1.37566,-2.25777 -2.15926,-3.28934 -1.68587,-2.10988 -3.56985,-3.98398 -5.45973,-5.83591 -0.14979,-0.10142 -0.31238,-0.18386 -0.48575,-0.20674 z" />
          <path
             style="fill:url(#linearGradient69112);fill-opacity:1;stroke:#000000;stroke-width:0.198437;stroke-linecap:butt;stroke-linejoin:miter;stroke-miterlimit:4;stroke-dasharray:none;stroke-opacity:1"
             d="m -849.6524,580.33899 c -2.28695,-6.24577 20.71656,0.92682 15.14479,4.7922"
             id="path69024"
             sodipodi:nodetypes="cc" />
          <path
             id="path69026"
             style="fill:#fdfded;stroke:#000000;stroke-width:0.264583;stroke-linejoin:round;stroke-miterlimit:4;stroke-dasharray:none;paint-order:markers fill stroke"
             d="m -844.37622,578.25776 c -0.2254,0.14315 -0.26239,0.46925 -0.32839,0.7305 -0.25814,1.16241 -0.51898,2.32419 -0.75755,3.49234 -0.11899,0.60712 -0.22049,1.21881 -0.3158,1.83154 -0.12004,0.77894 -0.23209,1.55955 -0.33624,2.3416 -0.0892,0.69897 -0.18578,1.40201 -0.17046,2.111 0.0198,0.44721 0.0704,0.90398 0.24068,1.31051 0.18565,0.44328 0.45765,0.83289 0.77697,1.15388 0.29981,0.31116 0.64457,0.5645 1.01932,0.73231 0.54226,0.26665 1.13368,0.3777 1.71981,0.38051 0.31733,-0.008 0.63254,-0.088 0.92666,-0.22663 0.35256,-0.16562 0.67882,-0.41456 0.93547,-0.7439 0.26781,-0.32363 0.45312,-0.73452 0.54596,-1.17064 0.15359,-0.70538 0.22685,-1.42947 0.32441,-2.14718 0.23983,-1.83378 0.47674,-3.6681 0.72874,-5.49966 0.0836,-0.51994 0.2097,-1.02839 0.3328,-1.53689 0.0659,-0.27333 0.15878,-0.54173 0.19473,-0.82268 -0.0106,-0.24228 -0.22123,-0.37593 -0.39637,-0.44395 -0.43826,-0.1914 -0.86559,-0.42278 -1.32004,-0.5592 -0.44487,-0.14416 -0.89672,-0.25642 -1.34671,-0.37616 -0.71156,-0.1795 -1.42369,-0.36282 -2.14554,-0.47668 -0.21011,-0.018 -0.41689,-0.0939 -0.62845,-0.0806 z" />
          <path
             id="path69028"
             style="fill:url(#linearGradient69114);fill-opacity:1;stroke:#000000;stroke-width:0.264583;stroke-linejoin:round;stroke-miterlimit:4;stroke-dasharray:none;stroke-opacity:1;paint-order:markers fill stroke"
             d="m -848.84761,589.11445 c -0.24258,0.0768 -0.37752,0.38037 -0.38403,0.65839 -0.0132,0.28146 0.11336,0.55567 0.32147,0.69715 0.18639,0.15284 0.37958,0.295 0.55511,0.4653 0.15895,0.18203 0.2885,0.39812 0.37735,0.63691 0.1434,0.41795 0.13734,0.87605 0.15027,1.31874 0.0126,0.26413 0.0346,0.53022 0.10482,0.78308 0.18945,0.78555 0.40421,1.56234 0.60814,2.34283 0.27116,1.00131 0.55129,2.00119 0.90292,2.96847 0.17266,0.47106 0.35428,0.93826 0.56771,1.38628 0.34662,0.74841 0.74014,1.46659 1.17389,2.14993 0.17153,0.27726 0.3525,0.54664 0.537,0.8122 0.30642,0.44158 0.63228,0.86399 0.96535,1.27813 0.34363,0.42111 0.70069,0.82706 1.07035,1.21684 0.58352,0.61807 1.19761,1.19608 1.83257,1.74009 0.38269,0.32675 0.77478,0.63836 1.17658,0.93209 0.61388,0.45161 1.24296,0.87416 1.87465,1.29053 1.20359,0.791 2.41732,1.56077 3.61537,2.36331 0.43047,0.29033 0.86253,0.57863 1.27949,0.89509 0.26639,0.20285 0.52088,0.42694 0.76707,0.66184 0.31932,0.31144 0.59739,0.67579 0.85654,1.05486 0.26256,0.38144 0.49806,0.78744 0.70939,1.21009 0.31203,0.66538 0.5743,1.36302 0.77714,2.08414 0.12307,0.42877 0.21412,0.86911 0.30091,1.30953 0.137,0.73926 0.2358,1.48914 0.27881,2.24422 0.0399,0.64982 0.0696,1.30056 0.0798,1.95202 0.0285,1.48847 0.0243,2.97742 0.0314,4.46617 0.009,2.1697 0.006,4.33954 0.032,6.50909 0.0138,1.0333 0.0395,2.06639 0.0747,3.09896 0.0329,0.80877 0.0686,1.61814 0.15008,2.4226 0.0804,0.82662 0.18142,1.65089 0.3192,2.46725 0.0937,0.56713 0.19851,1.13204 0.33107,1.68866 0.1853,0.79049 0.39216,1.57575 0.66056,2.33364 0.19239,0.5427 0.42425,1.07247 0.7438,1.52893 0.22659,0.33807 0.51368,0.61981 0.83786,0.82158 0.23559,0.12752 0.4883,0.21906 0.74861,0.23654 0.32139,0.0369 0.64683,-0.0143 0.95302,-0.13187 0.43838,-0.16298 0.83141,-0.46302 1.17605,-0.81477 0.25374,-0.26348 0.48885,-0.55327 0.68821,-0.87505 0.32002,-0.49951 0.56349,-1.06147 0.75339,-1.64345 0.13683,-0.42457 0.22898,-0.86656 0.30906,-1.30983 0.16049,-0.94543 0.16158,-1.92178 0.0508,-2.87488 -0.11383,-0.94703 -0.31881,-1.87437 -0.51303,-2.80205 -0.43849,-2.08813 -0.89267,-4.17175 -1.32036,-6.26296 -0.21142,-1.03949 -0.40039,-2.08523 -0.57003,-3.1351 -0.12886,-0.81844 -0.23993,-1.64055 -0.33945,-2.46454 -0.19567,-1.61826 -0.37592,-3.23904 -0.56767,-4.85795 -0.15222,-1.3267 -0.31475,-2.65177 -0.49088,-3.97443 -0.0658,-0.4892 -0.13487,-0.97795 -0.22115,-1.46288 -0.0825,-0.4965 -0.19287,-0.98637 -0.31521,-1.47132 -0.19584,-0.76492 -0.42502,-1.51922 -0.71052,-2.24499 -0.18656,-0.48963 -0.39977,-0.96493 -0.63299,-1.42628 -0.22495,-0.44897 -0.46997,-0.88444 -0.7343,-1.30298 -0.40198,-0.63178 -0.85448,-1.2195 -1.34989,-1.75274 -0.35386,-0.38375 -0.73149,-0.73628 -1.11332,-1.08091 -0.50689,-0.45596 -1.03887,-0.87185 -1.56986,-1.28799 -1.34094,-1.02772 -2.68747,-2.04554 -4.02244,-3.08388 -0.62499,-0.49532 -1.25849,-0.97801 -1.85252,-1.52418 -0.31197,-0.28736 -0.62963,-0.57059 -0.90156,-0.91101 -0.15298,-0.18978 -0.2997,-0.38733 -0.43659,-0.59332 -0.35573,-0.53365 -0.64162,-1.13035 -0.84931,-1.76172 -0.13433,-0.39588 -0.22137,-0.81031 -0.29871,-1.22569 -0.10438,-0.55859 -0.19742,-1.12013 -0.28722,-1.68215 -0.0591,-0.37212 -0.11483,-0.74501 -0.16008,-1.11981 -0.0226,-0.26356 0.0515,-0.54192 0.22874,-0.71505 0.17665,-0.18775 0.42192,-0.25844 0.65578,-0.2572 0.49139,-0.0234 0.98619,0.0474 1.47473,-0.0417 0.23214,-0.0704 0.47313,-0.17221 0.63281,-0.3927 0.10612,-0.16134 0.12829,-0.40048 0.0317,-0.57439 -0.1223,-0.18575 -0.33244,-0.23746 -0.51259,-0.30868 -0.3193,-0.11963 -0.62939,-0.27207 -0.92333,-0.46107 -0.40016,-0.23677 -0.79026,-0.51528 -1.22904,-0.6442 -0.45781,-0.13056 -0.92952,-0.16745 -1.39399,-0.25324 -0.68072,-0.1141 -1.35322,-0.29061 -2.0135,-0.51476 -0.37663,-0.12677 -0.75486,-0.2492 -1.14094,-0.33038 -0.64842,-0.14874 -1.30787,-0.21205 -1.96584,-0.27065 -0.82821,-0.0702 -1.65767,-0.11829 -2.48694,-0.16773 -0.15293,-0.004 -0.30617,-0.0283 -0.45903,-0.015 z" />
        </g>
        <g
           id="g69044"
           transform="translate(77.174076,-7.0158251)">
          <path
             id="path69032"
             style="fill:#fdfded;stroke:#000000;stroke-width:0.264583;stroke-linejoin:round;stroke-miterlimit:4;stroke-dasharray:none;paint-order:markers fill stroke"
             d="m -906.76753,607.82405 c 0.60531,-0.27942 1.39334,-0.20004 2.13473,0.29216 0.54914,0.39863 0.9975,1.08061 1.28574,1.7809 0.60429,1.33707 1.50049,2.49637 2.11075,3.82976 0.319,0.76008 0.33696,1.5999 0.0404,2.11477 -0.34355,0.71263 -0.97859,1.1324 -1.73076,1.10018 -0.631,-0.0376 -1.37268,-0.60507 -1.78758,-1.41259 -0.47135,-0.86472 -0.64963,-1.83716 -1.14514,-2.69074 -0.4426,-0.71727 -0.98174,-1.37794 -1.3036,-2.17598 -0.34469,-0.8291 -0.40735,-1.76395 -0.0857,-2.3386 0.11968,-0.2199 0.28395,-0.39118 0.4812,-0.49987 z" />
          <path
             id="path69034"
             style="fill:url(#linearGradient69116);fill-opacity:1;stroke:#000000;stroke-width:0.264583;stroke-linejoin:round;stroke-miterlimit:4;stroke-dasharray:none;stroke-opacity:1;paint-order:markers fill stroke"
             d="m -905.71757,613.34626 c 1.13638,-0.4435 2.29367,-0.84367 3.44153,-1.2626 0.30686,-0.10899 0.61372,-0.21798 0.92057,-0.32696 0.41287,0.26263 0.58861,0.90892 0.54732,1.34279 0.46953,1.97925 1.56682,3.81309 2.4462,5.67403 2.1713,4.34031 4.95056,8.39875 8.15757,11.64511 1.72463,1.85397 3.54626,3.68227 5.51759,4.75114 1.72886,0.85876 3.39468,0.89363 5.06735,1.19185 1.0703,0.2596 2.26512,0.8136 3.17311,2.00137 0.91831,1.23506 1.14369,3.15696 0.34352,3.86899 -0.6059,0.5354 -1.57629,0.33241 -2.42536,-0.2081 -1.84444,-0.89866 -3.66392,-1.21828 -5.48669,-1.73876 -2.0763,-0.72161 -4.10995,-2.37106 -5.98493,-4.18436 -4.53903,-4.26 -8.5376,-9.65134 -11.93055,-15.40221 -1.28758,-2.18231 -2.56403,-4.37528 -3.90616,-6.51474 -0.17562,-0.34125 -0.13047,-0.76742 0.11913,-0.83757 z" />
          <g
             id="g69042"
             transform="translate(-35.760091,41.341146)">
            <path
               id="path69036"
               style="fill:#f0e2a3;fill-opacity:1;stroke:#000000;stroke-width:0.164977;stroke-linejoin:round;paint-order:stroke markers fill"
               d="m -873.62848,553.23349 c -1.22185,0.13335 -2.31768,0.78243 -3.24929,1.55139 -1.04268,0.88879 -1.79373,2.08395 -2.25569,3.36657 -0.29847,0.7474 -0.59694,1.4948 -0.89541,2.2422 -0.27772,1.33593 -0.76316,2.63322 -0.86523,4.00195 -0.0423,1.227 0.0955,2.50597 0.70776,3.59268 0.43957,0.81166 1.09826,1.51825 1.9231,1.94443 0.70258,0.24147 1.45784,0.11206 2.17326,0.007 3.29957,-0.55872 6.61211,-1.05834 9.87925,-1.79036 0.87969,-0.1888 1.75406,-0.46785 2.52366,-0.94347 0.51097,-0.32339 0.99677,-0.73937 1.23406,-1.31041 0.33841,-0.77023 0.33935,-1.63259 0.32204,-2.4586 -0.0536,-1.45064 -0.44879,-2.89619 -1.20845,-4.13824 -0.67093,-1.13041 -1.61832,-2.0864 -2.71636,-2.8051 -1.59547,-1.13838 -3.30501,-2.1221 -5.10643,-2.89598 -0.78182,-0.30438 -1.63075,-0.41647 -2.46627,-0.36433 z" />
            <path
               id="path69038"
               style="fill:url(#linearGradient69118);fill-opacity:1;stroke:none;stroke-width:0.164977;stroke-linejoin:round;paint-order:stroke markers fill"
               d="m -873.62848,553.23376 c -1.22185,0.13335 -2.31768,0.78243 -3.24929,1.55139 -1.04268,0.88879 -1.79373,2.08395 -2.25569,3.36657 -0.29847,0.7474 -0.59694,1.4948 -0.89541,2.2422 -0.27772,1.33593 -0.76316,2.63322 -0.86523,4.00195 -0.0423,1.227 0.0955,2.50597 0.70776,3.59268 0.43957,0.81166 1.09826,1.51825 1.9231,1.94443 0.70258,0.24147 1.45784,0.11206 2.17326,0.007 3.29957,-0.55872 6.61211,-1.05834 9.87925,-1.79036 0.87969,-0.1888 1.75406,-0.46785 2.52366,-0.94347 0.51097,-0.32339 0.99677,-0.73937 1.23406,-1.31041 0.33841,-0.77023 0.33935,-1.63259 0.32204,-2.4586 -0.0536,-1.45064 -0.44879,-2.89619 -1.20845,-4.13824 -0.67093,-1.13041 -1.61832,-2.0864 -2.71636,-2.8051 -1.59547,-1.13838 -3.30501,-2.1221 -5.10643,-2.89598 -0.78182,-0.30438 -1.63075,-0.41647 -2.46627,-0.36433 z" />
            <path
               id="path69040"
               style="fill:url(#linearGradient69120);fill-opacity:1;fill-rule:nonzero;stroke:#1b1b1b;stroke-width:0.264583;stroke-linejoin:round;stroke-miterlimit:4;stroke-dasharray:none;stroke-opacity:1;paint-order:markers fill stroke"
               d="m -873.62848,553.23349 c -1.22185,0.13335 -2.31768,0.78243 -3.24929,1.55139 -1.04268,0.88879 -1.79373,2.08395 -2.25569,3.36657 -0.29847,0.7474 -0.59694,1.4948 -0.89541,2.2422 -0.27772,1.33593 -0.76316,2.63322 -0.86523,4.00195 -0.0423,1.227 0.0955,2.50597 0.70776,3.59268 0.43957,0.81166 1.09826,1.51825 1.9231,1.94443 0.70258,0.24147 1.45784,0.11206 2.17326,0.007 3.29957,-0.55872 6.61211,-1.05834 9.87925,-1.79036 0.87969,-0.1888 1.75406,-0.46785 2.52366,-0.94347 0.51097,-0.32339 0.99677,-0.73937 1.23406,-1.31041 0.33841,-0.77023 0.33935,-1.63259 0.32204,-2.4586 -0.0536,-1.45064 -0.44879,-2.89619 -1.20845,-4.13824 -0.67093,-1.13041 -1.61832,-2.0864 -2.71636,-2.8051 -1.59547,-1.13838 -3.30501,-2.1221 -5.10643,-2.89598 -0.78182,-0.30438 -1.63075,-0.41647 -2.46627,-0.36433 z" />
          </g>
        </g>
        <g
           id="g69056"
           transform="translate(26.172524,-4.9903178)">
          <path
             id="path69046"
             style="fill:#fdfded;stroke:#000000;stroke-width:0.264583;stroke-linejoin:round;stroke-miterlimit:4;stroke-dasharray:none;paint-order:markers fill stroke"
             d="m -802.317,588.63522 c -0.26369,0.0113 -0.5275,0.048 -0.78515,0.12398 -0.24754,0.0693 -0.48638,0.18243 -0.71307,0.32101 -0.22189,0.13979 -0.43708,0.29861 -0.62826,0.49326 -0.16949,0.17137 -0.32326,0.36642 -0.44699,0.58577 -0.12161,0.22188 -0.21823,0.46057 -0.29585,0.70702 -0.0929,0.29475 -0.14649,0.60395 -0.1719,0.91449 -0.0525,0.52524 -0.0657,1.05419 -0.13736,1.57745 -0.11043,0.84899 -0.26359,1.69053 -0.38214,2.53814 -0.0393,0.2843 -0.076,0.56922 -0.10685,0.85467 -0.0336,0.31544 -0.0474,0.63597 -0.006,0.94899 0.033,0.28566 0.11052,0.56218 0.22311,0.81558 0.0962,0.22613 0.21556,0.44093 0.37039,0.61663 0.15516,0.18957 0.33981,0.34221 0.53422,0.47175 0.21025,0.14118 0.43374,0.257 0.66609,0.34078 0.24212,0.0903 0.4951,0.14193 0.75024,0.15769 0.23894,0.0141 0.48068,6.1e-4 0.71798,-0.0475 0.20845,-0.0421 0.41421,-0.11332 0.60823,-0.21599 0.21351,-0.11616 0.41004,-0.27498 0.58176,-0.46535 0.1606,-0.16601 0.29225,-0.36796 0.4022,-0.58243 0.11743,-0.22385 0.20794,-0.46634 0.26703,-0.71868 0.0677,-0.27792 0.0926,-0.56627 0.0955,-0.85264 0.008,-0.38649 0.0425,-0.77185 0.0759,-1.15697 0.008,-0.2763 -0.0171,-0.55123 -0.0633,-0.82019 -0.0417,-0.26598 -0.0392,-0.54125 6e-5,-0.81 0.0582,-0.42764 0.16016,-0.84588 0.24574,-1.26739 0.0826,-0.3938 0.16652,-0.78855 0.20678,-1.19081 0.0222,-0.26152 0.0284,-0.52555 0.0105,-0.78638 -0.0165,-0.26443 -0.063,-0.52519 -0.13324,-0.77532 -0.0711,-0.23134 -0.15189,-0.46063 -0.26781,-0.66525 -0.11133,-0.20196 -0.2461,-0.38641 -0.40079,-0.54367 -0.15133,-0.16215 -0.33015,-0.2864 -0.51944,-0.37877 -0.19163,-0.0952 -0.39536,-0.16222 -0.60475,-0.18143 -0.0309,-0.003 -0.0618,-0.005 -0.0928,-0.008 z" />
          <path
             id="path69048"
             style="fill:#f0e2a3;fill-opacity:1;stroke:#000000;stroke-width:0.151743;stroke-linejoin:round;paint-order:stroke markers fill"
             d="m -800.83525,577.61299 c -0.48489,-0.0108 -0.96117,0.27328 -1.38174,0.63625 -0.88563,0.72586 -1.81307,1.33725 -2.75969,1.86115 -1.13928,0.64209 -2.29955,1.20651 -3.40914,1.96426 -0.58295,0.41223 -1.15551,0.91495 -1.58803,1.62281 -0.34648,0.57896 -0.55289,1.30488 -0.60252,2.03266 -0.0571,0.74585 0.0176,1.48098 0.0892,2.20617 0.0842,0.75219 0.20978,1.50026 0.44271,2.17673 0.15949,0.33489 0.45579,0.47203 0.73847,0.50747 1.13713,0.21181 2.29935,0.17863 3.45299,0.20964 1.50666,0.024 3.01778,0.053 4.50037,0.33211 1.58208,0.27345 3.13296,0.74165 4.67132,1.25389 0.65829,0.21138 1.32299,0.40224 2.00282,0.48659 0.37233,-0.22284 0.65244,-0.70206 0.79289,-1.22381 0.38908,-1.12213 0.8099,-2.24435 1.01436,-3.4516 0.16229,-1.06264 -0.0653,-2.16422 -0.54421,-2.93766 -0.6034,-1.0268 -1.36683,-1.83188 -2.13126,-2.61014 -1.15189,-1.18607 -2.32932,-2.32481 -3.52449,-3.42758 -0.41701,-0.41185 -0.75499,-0.95689 -1.17512,-1.36281 -0.17534,-0.15277 -0.37659,-0.25562 -0.58893,-0.27613 z" />
          <path
             id="path69050"
             style="fill:url(#linearGradient69122);fill-opacity:1;stroke:none;stroke-width:0.151743;stroke-linejoin:round;paint-order:stroke markers fill"
             d="m -800.83525,577.61299 c -0.48489,-0.0108 -0.96117,0.27328 -1.38174,0.63625 -0.88563,0.72586 -1.81307,1.33725 -2.75969,1.86115 -1.13928,0.64209 -2.29955,1.20651 -3.40914,1.96426 -0.58295,0.41223 -1.15551,0.91495 -1.58802,1.62281 -0.34649,0.57896 -0.5529,1.30488 -0.60253,2.03266 -0.0571,0.74585 0.0176,1.48098 0.0892,2.20617 0.0842,0.75219 0.20978,1.50026 0.44271,2.17673 0.15949,0.33489 0.45579,0.47203 0.73847,0.50747 1.13713,0.21181 2.29935,0.17863 3.45299,0.20964 1.50666,0.024 3.01778,0.053 4.50037,0.33211 1.58208,0.27345 3.13297,0.74165 4.67132,1.25389 0.65829,0.21138 1.32299,0.40224 2.00282,0.48659 0.37233,-0.22284 0.65244,-0.70206 0.79289,-1.22381 0.38908,-1.12213 0.8099,-2.24435 1.01436,-3.4516 0.16229,-1.06264 -0.0653,-2.16422 -0.54421,-2.93766 -0.6034,-1.0268 -1.36683,-1.83188 -2.13126,-2.61014 -1.15189,-1.18607 -2.32932,-2.32481 -3.52449,-3.42758 -0.41701,-0.41185 -0.75499,-0.95689 -1.17512,-1.36281 -0.17534,-0.15277 -0.37659,-0.25562 -0.58893,-0.27613 z" />
          <path
             id="path69052"
             style="fill:url(#linearGradient69124);fill-opacity:1;stroke:#000000;stroke-width:0.264583;stroke-linejoin:round;stroke-miterlimit:4;stroke-dasharray:none;paint-order:markers fill stroke"
             d="m -800.83525,577.61299 c -0.48489,-0.0108 -0.96117,0.27328 -1.38174,0.63625 -0.88563,0.72586 -1.81307,1.33725 -2.75969,1.86115 -1.13928,0.64209 -2.29955,1.20651 -3.40914,1.96426 -0.58295,0.41223 -1.15551,0.91495 -1.58802,1.62281 -0.34649,0.57896 -0.5529,1.30488 -0.60253,2.03266 -0.0571,0.74585 0.0176,1.48098 0.0892,2.20617 0.0842,0.75219 0.20978,1.50026 0.44271,2.17673 0.15949,0.33489 0.45579,0.47203 0.73847,0.50747 1.13713,0.21181 2.29935,0.17863 3.45299,0.20964 1.50666,0.024 3.01778,0.053 4.50037,0.33211 1.58208,0.27345 3.13297,0.74165 4.67133,1.25389 0.65828,0.21138 1.32298,0.40224 2.00281,0.48659 0.37233,-0.22284 0.65244,-0.70206 0.79289,-1.22381 0.38908,-1.12213 0.8099,-2.24435 1.01436,-3.4516 0.16229,-1.06264 -0.0653,-2.16422 -0.54421,-2.93766 -0.6034,-1.0268 -1.36683,-1.83188 -2.13126,-2.61014 -1.15189,-1.18607 -2.32932,-2.32481 -3.52449,-3.42758 -0.41701,-0.41185 -0.75499,-0.95689 -1.17512,-1.36281 -0.17534,-0.15277 -0.37659,-0.25562 -0.58893,-0.27613 z" />
          <path
             id="path69054"
             style="fill:url(#linearGradient69126);fill-opacity:1;stroke:#000000;stroke-width:0.264583;stroke-linejoin:round;stroke-miterlimit:4;stroke-dasharray:none;stroke-opacity:1;paint-order:markers fill stroke"
             d="m -800.34759,594.97893 c -2.1607,-0.0516 -4.32376,0.12591 -6.48557,0.17287 -0.35726,0.29228 -0.26375,0.89014 -0.19284,1.31156 0.15116,0.65344 0.27449,1.31752 0.26895,2.00313 0.12087,2.82809 -0.27833,5.65307 -0.58762,8.46133 -0.6181,4.46844 -1.93079,8.80513 -3.73139,12.83414 -1.0022,2.66361 -0.9355,5.70198 -2.12577,8.28803 -0.9271,1.75225 -2.51502,2.7571 -3.92919,3.87177 -1.36588,1.06863 -2.74337,2.368 -3.36255,4.21199 -0.321,1.03835 -0.0614,2.41406 0.83831,2.87442 1.04446,0.57724 2.28151,0.14265 3.24167,-0.53639 1.43368,-0.95311 2.70252,-2.20744 4.00843,-3.38148 1.55311,-1.51882 2.86959,-3.47357 3.45544,-5.7622 0.81238,-2.71748 1.31488,-5.58664 2.56216,-8.10944 1.47085,-3.29489 2.72916,-6.73905 3.48461,-10.34348 1.14321,-4.67917 1.78822,-9.48317 2.5743,-14.24334 0.14919,-0.43607 0.66422,-0.76443 0.52586,-1.28558 -0.10402,-0.22897 -0.32808,-0.35462 -0.54483,-0.36733 z" />
        </g>
        <g
           id="g69068"
           transform="translate(-2.1924454,-0.87697815)">
          <path
             id="path69058"
             style="fill:#fdfded;stroke:#000000;stroke-width:0.264583;stroke-linejoin:round;stroke-miterlimit:4;stroke-dasharray:none;paint-order:markers fill stroke"
             d="m -772.46621,620.59024 c -0.89312,0.71038 -1.10957,2.16661 -1.95583,2.93825 -0.24691,0.1989 -0.46472,0.47028 -0.51366,0.85113 -0.11038,0.59782 -0.0758,1.24898 -0.27641,1.81104 -0.0417,0.42299 0.19842,0.98821 0.59185,0.97574 0.52943,-0.22113 0.98283,-0.65434 1.34211,-1.16415 0.27323,-0.40864 0.38255,-0.93997 0.46809,-1.45939 0.19923,-0.92279 0.60259,-1.75825 0.70066,-2.7215 0.0193,-0.42012 -0.039,-0.89203 -0.2941,-1.22447 l -0.0317,-0.01 z" />
          <path
             id="path69060"
             style="fill:url(#linearGradient69128);fill-opacity:1;stroke:#000000;stroke-width:0.264583;stroke-linejoin:round;stroke-miterlimit:4;stroke-dasharray:none;stroke-opacity:1;paint-order:markers fill stroke"
             d="m -774.99373,623.74628 c -0.32275,1.19191 -0.75968,2.36266 -1.4892,3.23441 -0.98261,1.4201 -2.12843,2.79256 -3.64009,3.32592 -1.99689,0.74974 -4.15881,0.59527 -6.25991,0.64596 -1.90311,0.0243 -3.84554,-0.0268 -5.65854,0.61037 -0.58783,0.30806 -1.08807,1.04838 -0.96389,1.90715 0.23536,0.88483 0.96348,1.37177 1.61496,1.70016 1.47844,0.74863 3.06228,0.62647 4.56968,0.49662 2.25595,-0.19733 4.56663,-0.23299 6.70498,-1.07451 1.46586,-0.6605 2.6081,-2.02995 3.50657,-3.54693 1.09098,-1.64855 2.20507,-3.27585 3.40748,-4.8007 0.32639,-0.56097 0.0448,-1.49045 -0.50306,-1.74875 -0.39804,-0.32991 -0.84182,-0.54462 -1.26971,-0.79646 l -0.0195,0.0463 z" />
          <path
             id="path69062"
             style="fill:#f0e2a3;fill-opacity:1;stroke:#000000;stroke-width:0.264583;stroke-linejoin:round;stroke-miterlimit:4;stroke-dasharray:none;paint-order:markers fill stroke"
             d="m -769.37953,612.09439 c -2.81883,1.1608 -5.00558,4.21826 -5.48807,7.89758 0.0379,1.14482 0.96374,2.10958 1.86145,2.12975 1.24539,0.47348 2.49078,0.94709 3.73616,1.42064 1.20608,-0.18658 1.98051,-1.78317 1.73796,-3.25374 -0.28274,-2.084 -0.48344,-4.17573 -0.73083,-6.26314 -0.0444,-0.39272 -0.0889,-0.78546 -0.13337,-1.17819 -0.24124,-0.39014 -0.5966,-0.68329 -0.9833,-0.7529 z" />
          <path
             id="path69064"
             style="fill:url(#linearGradient69130);fill-opacity:1;stroke:none;stroke-width:0.264583;stroke-linejoin:round;stroke-miterlimit:4;stroke-dasharray:none;paint-order:stroke markers fill"
             d="m -769.37953,612.09439 c -2.81883,1.1608 -5.00558,4.21826 -5.48807,7.89758 0.0379,1.14482 0.96374,2.10958 1.86145,2.12975 1.24539,0.47348 2.49078,0.94709 3.73616,1.42064 1.20608,-0.18658 1.98051,-1.78317 1.73796,-3.25374 -0.28274,-2.084 -0.48344,-4.17573 -0.73083,-6.26314 -0.0444,-0.39272 -0.0889,-0.78546 -0.13337,-1.17819 -0.24124,-0.39014 -0.5966,-0.68329 -0.9833,-0.7529 z" />
          <path
             id="path69066"
             style="fill:url(#linearGradient69132);fill-opacity:1;stroke:#000000;stroke-width:0.264583;stroke-linejoin:round;stroke-miterlimit:4;stroke-dasharray:none;paint-order:markers fill stroke"
             d="m -769.37953,612.09439 c -2.81883,1.1608 -5.00558,4.21826 -5.48807,7.89758 0.0379,1.14482 0.96374,2.10958 1.86145,2.12975 1.24539,0.47348 2.49078,0.94709 3.73616,1.42064 1.20608,-0.18658 1.98051,-1.78317 1.73796,-3.25374 -0.28274,-2.084 -0.48344,-4.17573 -0.73083,-6.26314 -0.0444,-0.39272 -0.0889,-0.78546 -0.13337,-1.17819 -0.24124,-0.39014 -0.5966,-0.68329 -0.9833,-0.7529 z" />
        </g>
        <g
           id="g69080"
           transform="translate(25.389772,-1.1693042)">
          <path
             id="path69070"
             style="fill:#fdfded;stroke:#000000;stroke-width:0.264583;stroke-linejoin:round;stroke-miterlimit:4;stroke-dasharray:none;paint-order:markers fill stroke"
             d="m -817.24551,623.6119 c -0.37676,0.10378 -0.6218,0.41111 -0.59603,0.71194 -0.0186,0.29115 0.003,0.58594 -0.0732,0.87324 -0.13615,0.18745 -0.24869,0.42986 -0.093,0.6311 0.2632,0.24012 0.48587,0.54256 0.8957,0.65137 0.29329,0.0726 0.68887,0.0219 0.83516,-0.20631 0.12498,-0.2143 0.20393,-0.4445 0.3618,-0.64729 0.0812,-0.26066 -0.31098,-0.42556 -0.29822,-0.68068 -0.0465,-0.36106 0.0427,-0.75502 -0.22001,-1.08032 -0.16237,-0.20142 -0.50544,-0.33597 -0.81224,-0.25304 z" />
          <path
             id="path69072"
             style="fill:url(#linearGradient69134);fill-opacity:1;stroke:#000000;stroke-width:0.264583;stroke-linejoin:round;stroke-miterlimit:4;stroke-dasharray:none;stroke-opacity:1;paint-order:markers fill stroke"
             d="m -817.92061,625.45175 c -0.28483,0.0738 -0.35347,0.37203 -0.19855,0.54942 0.27865,0.37975 0.24691,0.83057 0.25286,1.25084 -3.3e-4,0.4475 -0.10235,0.88978 -0.24216,1.32316 -0.16494,0.56744 -0.32582,1.13582 -0.5271,1.69664 -0.32174,0.56152 -0.82242,1.04652 -1.2621,1.5554 -0.58512,0.65831 -1.35863,1.19944 -2.03785,1.79895 -0.17639,0.17868 -0.16519,0.41263 -0.13845,0.62334 -0.003,0.46431 0.21415,0.91672 0.56011,1.29585 0.22663,0.27857 0.61745,0.53354 1.07465,0.50298 0.48657,-0.0126 0.92673,-0.19139 1.38229,-0.30227 0.4117,-0.11219 0.82601,-0.22047 1.22265,-0.36146 0.38749,-0.20536 0.51795,-0.58852 0.49795,-0.93049 -0.006,-0.52159 -0.0305,-1.06047 0.22282,-1.55545 0.36914,-0.88075 0.88265,-1.74543 0.95246,-2.68036 0.11996,-1.08989 0.19833,-2.18219 0.26538,-3.27457 0.0135,-0.2664 0.0265,-0.53284 0.0471,-0.79899 0.0421,-0.19333 0.25677,-0.36992 0.18335,-0.57317 -0.11167,-0.17982 -0.40971,-0.2179 -0.6448,-0.22729 -0.53794,0.0136 -1.0802,0.0356 -1.61059,0.10747 z" />
          <path
             id="path69074"
             style="fill:#f0e2a3;fill-opacity:1;stroke:#000000;stroke-width:0.0594083;stroke-linejoin:round;paint-order:stroke markers fill"
             d="m -818.84508,619.67184 c -0.53607,0.1286 -0.87474,0.49878 -1.14829,0.8489 -0.39409,0.5005 -0.86058,0.98994 -1.02999,1.56875 -0.1419,0.59752 0.0258,1.22195 0.37874,1.76083 0.22802,0.32583 0.66451,0.5607 1.14859,0.60508 0.95702,0.13119 1.9194,-0.0586 2.84537,-0.22996 0.67378,-0.12422 1.34659,-0.26214 1.98293,-0.47447 0.36486,-0.17744 0.45299,-0.52952 0.48303,-0.8344 0.0832,-0.58441 0.002,-1.21388 -0.44297,-1.7116 -0.288,-0.36083 -0.70649,-0.64892 -1.16341,-0.88363 -0.66868,-0.37471 -1.45367,-0.67843 -2.30044,-0.69436 -0.25323,-0.012 -0.50596,0.002 -0.75357,0.0449 z" />
          <path
             id="path69076"
             style="fill:url(#linearGradient69136);fill-opacity:1;stroke:none;stroke-width:0.0594083;stroke-linejoin:round;paint-order:stroke markers fill"
             d="m -818.84508,619.67184 c -0.53607,0.1286 -0.87474,0.49878 -1.14829,0.8489 -0.39409,0.5005 -0.86058,0.98994 -1.02999,1.56875 -0.1419,0.59752 0.0258,1.22195 0.37874,1.76083 0.22802,0.32583 0.66451,0.5607 1.14859,0.60508 0.95702,0.13119 1.9194,-0.0586 2.84537,-0.22996 0.67378,-0.12422 1.34659,-0.26214 1.98293,-0.47447 0.36486,-0.17744 0.45299,-0.52952 0.48303,-0.8344 0.0832,-0.58441 0.002,-1.21388 -0.44297,-1.7116 -0.288,-0.36083 -0.70649,-0.64892 -1.16341,-0.88363 -0.66868,-0.37471 -1.45367,-0.67843 -2.30044,-0.69436 -0.25323,-0.012 -0.50596,0.002 -0.75357,0.0449 z" />
          <path
             id="path69078"
             style="fill:url(#linearGradient69138);fill-opacity:1;stroke:#000000;stroke-width:0.264583;stroke-linejoin:round;stroke-miterlimit:4;stroke-dasharray:none;paint-order:markers fill stroke"
             d="m -818.84508,619.67184 c -0.53607,0.1286 -0.87474,0.49878 -1.14829,0.8489 -0.39409,0.5005 -0.86058,0.98994 -1.02999,1.56875 -0.1419,0.59752 0.0258,1.22195 0.37874,1.76083 0.22802,0.32583 0.66451,0.5607 1.14859,0.60508 0.95702,0.13119 1.9194,-0.0586 2.84537,-0.22996 0.67378,-0.12422 1.34659,-0.26214 1.98293,-0.47447 0.36486,-0.17744 0.45299,-0.52952 0.48303,-0.8344 0.0832,-0.58441 0.002,-1.21388 -0.44297,-1.7116 -0.288,-0.36083 -0.70649,-0.64892 -1.16341,-0.88363 -0.66868,-0.37471 -1.45367,-0.67843 -2.30044,-0.69436 -0.25323,-0.012 -0.50596,0.002 -0.75357,0.0449 z" />
        </g>
        <g
           id="g69096"
           transform="translate(34.640636,-1.9001192)">
          <g
             id="g69088">
            <path
               id="path69082"
               style="fill:#f0e2a3;fill-opacity:1;stroke:#000000;stroke-width:0.0988085;stroke-linejoin:round;paint-order:stroke markers fill"
               d="m -845.29051,609.72694 c -1.32001,0.45246 -2.60913,1.16663 -3.546,2.38246 -0.90104,1.23672 -1.37687,2.8911 -1.49796,4.58087 -0.026,0.74362 0.24456,1.48533 0.63473,2.07991 0.47546,0.77844 1.07899,1.4814 1.80356,1.87826 0.65904,0.34079 1.35976,0.5085 2.05312,0.60606 0.85791,0.045 1.65358,-0.31729 2.47089,-0.51299 1.47334,-0.4152 2.9566,-0.88499 4.26293,-1.78548 0.5239,-0.42709 0.72907,-1.21954 0.82962,-1.9662 0.16927,-1.17292 -0.0891,-2.49013 -0.76064,-3.45229 -0.46089,-0.69547 -1.00177,-1.30502 -1.54422,-1.90251 -0.77254,-0.79625 -1.68835,-1.3908 -2.65717,-1.63251 -0.66521,-0.19478 -1.34671,-0.30875 -2.01728,-0.284 l -0.0204,0.006 z" />
            <path
               id="path69084"
               style="fill:url(#linearGradient69140);fill-opacity:1;stroke:none;stroke-width:0.0988085;stroke-linejoin:round;paint-order:stroke markers fill"
               d="m -845.29051,609.72694 c -1.32001,0.45246 -2.60913,1.16663 -3.546,2.38246 -0.90104,1.23672 -1.37687,2.8911 -1.49796,4.58087 -0.026,0.74362 0.24456,1.48533 0.63473,2.07991 0.47546,0.77844 1.07899,1.4814 1.80356,1.87826 0.65904,0.34079 1.35976,0.5085 2.05312,0.60606 0.85791,0.045 1.65358,-0.31729 2.47089,-0.51299 1.47334,-0.4152 2.9566,-0.88499 4.26293,-1.78548 0.5239,-0.42709 0.72907,-1.21954 0.82962,-1.9662 0.16927,-1.17292 -0.0891,-2.49013 -0.76064,-3.45229 -0.46089,-0.69547 -1.00177,-1.30502 -1.54422,-1.90251 -0.77254,-0.79625 -1.68835,-1.3908 -2.65717,-1.63251 -0.66521,-0.19478 -1.34671,-0.30875 -2.01728,-0.284 l -0.0204,0.006 z" />
            <path
               id="path69086"
               style="fill:url(#linearGradient69142);fill-opacity:1;stroke:#000000;stroke-width:0.264583;stroke-linejoin:round;stroke-miterlimit:4;stroke-dasharray:none;paint-order:markers fill stroke"
               d="m -845.25893,609.71852 c -1.32001,0.45246 -2.60913,1.16663 -3.546,2.38246 -0.90104,1.23672 -1.37687,2.8911 -1.49796,4.58087 -0.026,0.74362 0.24456,1.48533 0.63473,2.07991 0.47546,0.77844 1.07899,1.4814 1.80356,1.87826 0.65904,0.34079 1.35976,0.5085 2.05312,0.60606 0.85791,0.045 1.65358,-0.31729 2.47089,-0.51299 1.47334,-0.4152 2.9566,-0.88499 4.26293,-1.78548 0.5239,-0.42709 0.72907,-1.21954 0.82962,-1.9662 0.16927,-1.17292 -0.0891,-2.49013 -0.76064,-3.45229 -0.46089,-0.69547 -1.00177,-1.30502 -1.54422,-1.90251 -0.77254,-0.79625 -1.68835,-1.3908 -2.65717,-1.63251 -0.66521,-0.19478 -1.34671,-0.30875 -2.01728,-0.284 l -0.0204,0.006 z" />
          </g>
          <path
             style="fill:url(#linearGradient69144);fill-opacity:1;stroke:#000000;stroke-width:0.198437;stroke-linecap:butt;stroke-linejoin:miter;stroke-miterlimit:4;stroke-dasharray:none;stroke-opacity:1"
             d="m -847.98579,619.34582 c -2.06263,-2.71035 9.26902,-4.68545 8.64488,-2.46241"
             id="path69090"
             sodipodi:nodetypes="cc" />
          <path
             id="path69092"
             style="fill:#fdfded;stroke:#000000;stroke-width:0.264583;stroke-linejoin:round;stroke-miterlimit:4;stroke-dasharray:none;paint-order:markers fill stroke"
             d="m -843.5432,616.2198 c -0.65423,0.17615 -1.34949,0.23635 -1.94429,0.61382 -0.25783,0.59366 0.0627,1.28226 0.11904,1.91567 0.20118,1.11819 0.40324,2.24761 0.78786,3.31302 0.53525,0.79952 1.48965,0.89367 2.17253,0.53135 0.67425,-0.25608 1.16393,-1.19925 0.87387,-2.09171 -0.2832,-1.15725 -0.73392,-2.25335 -1.04275,-3.4019 -0.10386,-0.28597 -0.14821,-0.62733 -0.31467,-0.86675 -0.20827,-0.14399 -0.4442,-0.0682 -0.65159,-0.0135 z" />
          <path
             id="path69094"
             style="fill:url(#linearGradient69146);fill-opacity:1;stroke:#000000;stroke-width:0.264583;stroke-linejoin:round;stroke-miterlimit:4;stroke-dasharray:none;stroke-opacity:1;paint-order:markers fill stroke"
             d="m -844.54427,620.30679 c -0.2981,0.0854 -0.59185,0.20353 -0.84638,0.40442 0.20316,0.80658 0.92795,1.2591 1.08833,2.0905 1.06958,2.64053 1.9947,5.42995 3.60762,7.69807 1.56674,2.30211 3.61137,4.23365 5.94193,5.05894 1.01771,0.45643 2.0165,1.02318 3.0722,1.29395 0.75068,-0.11232 1.25546,-1.27974 0.80323,-2.12891 -0.51425,-0.932 -1.42759,-1.26933 -2.23447,-1.60607 -1.44873,-0.56881 -2.99067,-1.07125 -4.18111,-2.36229 -1.77061,-2.01633 -3.15511,-4.57831 -3.86549,-7.36634 -0.16654,-0.95167 -0.0982,-1.93248 0.15248,-2.81283 -0.0295,-0.53059 -0.55545,-0.80816 -0.92147,-0.70001 -0.88807,0.0372 -1.75896,0.21178 -2.61687,0.43057 z" />
        </g>
      </g>
    </g>
  </g>
</svg>
