<?xml version="1.0" encoding="UTF-8" standalone="no"?>
<!-- Created with Inkscape (http://www.inkscape.org/) -->

<svg
   width="500"
   height="500"
   viewBox="0 0 132.29166 132.29167"
   version="1.1"
   id="svg7886"
   inkscape:version="1.1 (c68e22c387, 2021-05-23)"
   sodipodi:docname="LibertyCap.svg"
   xmlns:inkscape="http://www.inkscape.org/namespaces/inkscape"
   xmlns:sodipodi="http://sodipodi.sourceforge.net/DTD/sodipodi-0.dtd"
   xmlns:xlink="http://www.w3.org/1999/xlink"
   xmlns="http://www.w3.org/2000/svg"
   xmlns:svg="http://www.w3.org/2000/svg">
  <sodipodi:namedview
     id="namedview7888"
     pagecolor="#ffffff"
     bordercolor="#999999"
     borderopacity="1"
     inkscape:pageshadow="0"
     inkscape:pageopacity="0"
     inkscape:pagecheckerboard="0"
     inkscape:document-units="mm"
     showgrid="false"
     units="px"
     inkscape:zoom="0.64854097"
     inkscape:cx="212.01436"
     inkscape:cy="310.69741"
     inkscape:window-width="1920"
     inkscape:window-height="1001"
     inkscape:window-x="-9"
     inkscape:window-y="-9"
     inkscape:window-maximized="1"
     inkscape:current-layer="layer1" />
  <defs
     id="defs7883">
    <linearGradient
       inkscape:collect="always"
       id="linearGradient5491">
      <stop
         style="stop-color:#e9c6af;stop-opacity:1"
         offset="0"
         id="stop5487" />
      <stop
         style="stop-color:#000000;stop-opacity:1"
         offset="1"
         id="stop5489" />
    </linearGradient>
    <radialGradient
       inkscape:collect="always"
       xlink:href="#linearGradient23584"
       id="radialGradient231248"
       gradientUnits="userSpaceOnUse"
       gradientTransform="matrix(-2.2037194,0.78632122,0.96052345,3.8242385,-3177.3642,-696.06174)"
       cx="-827.36591"
       cy="459.48401"
       fx="-827.36591"
       fy="459.48401"
       r="5.9845757" />
    <linearGradient
       inkscape:collect="always"
       id="linearGradient23584">
      <stop
         style="stop-color:#e9ddaf;stop-opacity:1"
         offset="0"
         id="stop23580" />
      <stop
         style="stop-color:#ada073;stop-opacity:1"
         offset="1"
         id="stop23582" />
    </linearGradient>
    <linearGradient
       inkscape:collect="always"
       xlink:href="#linearGradient5491"
       id="linearGradient231238"
       gradientUnits="userSpaceOnUse"
       gradientTransform="matrix(-0.72074658,-0.03363698,-0.02140566,0.53012919,-899.69977,322.47926)"
       x1="96.796494"
       y1="-15.395849"
       x2="96.46109"
       y2="29.945986" />
    <radialGradient
       inkscape:collect="always"
       xlink:href="#linearGradient186820"
       id="radialGradient231240"
       gradientUnits="userSpaceOnUse"
       gradientTransform="matrix(1.1926396,0.06692637,-0.09286249,1.7809922,95.682993,-615.39177)"
       cx="-849.64392"
       cy="556.25385"
       fx="-849.64386"
       fy="556.25385"
       r="13.980898" />
    <linearGradient
       inkscape:collect="always"
       id="linearGradient186820">
      <stop
         style="stop-color:#e9c6af;stop-opacity:0"
         offset="0"
         id="stop186816" />
      <stop
         style="stop-color:#000000;stop-opacity:1"
         offset="1"
         id="stop186818" />
    </linearGradient>
    <linearGradient
       inkscape:collect="always"
       xlink:href="#linearGradient154192"
       id="linearGradient231242"
       gradientUnits="userSpaceOnUse"
       gradientTransform="translate(-6.7414969,13.074418)"
       x1="-933.11615"
       y1="611.96271"
       x2="-932.7428"
       y2="584.1709" />
    <linearGradient
       inkscape:collect="always"
       id="linearGradient154192">
      <stop
         style="stop-color:#000000;stop-opacity:1;"
         offset="0"
         id="stop154188" />
      <stop
         style="stop-color:#000000;stop-opacity:0;"
         offset="1"
         id="stop154190" />
    </linearGradient>
    <filter
       inkscape:collect="always"
       style="color-interpolation-filters:sRGB"
       id="filter147802"
       x="-0.00051412898"
       y="-0.0002926611"
       width="1.0010283"
       height="1.0005853">
      <feGaussianBlur
         inkscape:collect="always"
         stdDeviation="0.0019907833"
         id="feGaussianBlur147804" />
    </filter>
    <linearGradient
       inkscape:collect="always"
       xlink:href="#linearGradient154192"
       id="linearGradient231244"
       gradientUnits="userSpaceOnUse"
       gradientTransform="translate(-6.7414969,13.074418)"
       x1="-933.06555"
       y1="612.2276"
       x2="-932.42151"
       y2="586.17377" />
    <radialGradient
       inkscape:collect="always"
       xlink:href="#linearGradient44128"
       id="radialGradient44260"
       cx="-890.89612"
       cy="398.75357"
       fx="-890.89612"
       fy="398.75357"
       r="7.9063563"
       gradientTransform="matrix(2.3926732,1.0155783,-1.4334552,3.3771803,1812.2109,-41.512919)"
       gradientUnits="userSpaceOnUse" />
    <linearGradient
       inkscape:collect="always"
       id="linearGradient44128">
      <stop
         style="stop-color:#ece3c5;stop-opacity:1"
         offset="0"
         id="stop44124" />
      <stop
         style="stop-color:#a3986a;stop-opacity:1"
         offset="1"
         id="stop44126" />
    </linearGradient>
    <linearGradient
       inkscape:collect="always"
       xlink:href="#linearGradient5491"
       id="linearGradient176683"
       gradientUnits="userSpaceOnUse"
       gradientTransform="matrix(-0.85928214,0.0600507,0.04928298,0.70520383,-848.31951,272.75115)"
       x1="96.796494"
       y1="-15.395849"
       x2="96.46109"
       y2="29.945986" />
    <radialGradient
       inkscape:collect="always"
       xlink:href="#linearGradient186820"
       id="radialGradient190409"
       cx="-849.64392"
       cy="556.25385"
       fx="-849.64386"
       fy="556.25385"
       r="13.980898"
       gradientTransform="matrix(1.423465,-0.08444659,0.1407301,2.3722034,199.75654,-1113.811)"
       gradientUnits="userSpaceOnUse" />
    <linearGradient
       inkscape:collect="always"
       xlink:href="#linearGradient154192"
       id="linearGradient964"
       gradientUnits="userSpaceOnUse"
       gradientTransform="translate(-6.7414969,13.074418)"
       x1="-933.11615"
       y1="611.96271"
       x2="-932.7428"
       y2="584.1709" />
    <linearGradient
       inkscape:collect="always"
       xlink:href="#linearGradient154192"
       id="linearGradient966"
       gradientUnits="userSpaceOnUse"
       gradientTransform="translate(-6.7414969,13.074418)"
       x1="-933.06555"
       y1="612.2276"
       x2="-932.42151"
       y2="586.17377" />
  </defs>
  <g
     inkscape:label="Layer 1"
     inkscape:groupmode="layer"
     id="layer1">
    <g
       id="g1008"
       transform="translate(-141.91735,1.6870473)">
      <ellipse
         style="display:inline;fill:#ecf0c6;fill-opacity:1;stroke:#000000;stroke-width:0.79375;stroke-miterlimit:4;stroke-dasharray:none;stroke-opacity:1"
         id="ellipse13642"
         cx="208.06319"
         cy="64.458786"
         rx="65.619385"
         ry="65.619377"
         inkscape:export-filename="C:\Users\Anna Pedersen\Desktop\path4850.png"
         inkscape:export-xdpi="96"
         inkscape:export-ydpi="96" />
      <g
         id="g64337"
         transform="translate(1112.464,-323.64208)">
        <g
           id="g63823">
          <path
             id="path231246"
             style="fill:url(#radialGradient231248);fill-opacity:1;stroke:#000000;stroke-width:0.396875;stroke-miterlimit:4;stroke-dasharray:none;stroke-opacity:1"
             d="m -924.62558,376.8932 c -0.67912,0.10839 -1.33857,0.27418 -2.00201,0.42614 2.64124,4.92378 3.08213,10.37118 2.38028,15.5731 -0.14943,2.05354 -0.0922,4.27059 1.34396,6.09902 2.1197,2.59646 5.7235,4.25344 7.49589,7.04864 1.68179,3.03092 1.78947,6.36352 2.12165,9.58409 0.38001,4.88844 -0.2134,9.83972 -2.17976,14.44883 -0.53841,1.49042 -0.99893,3.17233 -0.12381,4.67182 0.31622,0.46323 1.17956,0.59805 1.63627,0.21602 0.84455,-0.45083 1.08109,-1.34078 0.93206,-2.10988 0.37743,-3.46816 2.68058,-6.56907 2.931,-10.05832 0.76739,-5.26844 0.20942,-10.6383 -1.03279,-15.87633 -0.65747,-2.22746 -2.21125,-4.29499 -4.38448,-5.82918 -1.92834,-1.56804 -3.94861,-3.25156 -4.6705,-5.4142 -1.15907,-3.0743 -0.76489,-6.28347 -0.80659,-9.42128 0.0284,-2.7308 -0.15498,-5.59768 -1.80879,-8.09467 -0.37482,-0.51729 -0.87642,-1.07679 -1.59073,-1.29224 -0.0806,0.009 -0.16107,0.019 -0.2416,0.0284 z"
             inkscape:export-filename="C:\Users\Anna Pedersen\Desktop\path4850.png"
             inkscape:export-xdpi="96"
             inkscape:export-ydpi="96" />
          <g
             id="g63767"
             transform="translate(47.128906,63.251954)">
            <g
               id="g63754">
              <path
                 id="path231224"
                 style="fill:url(#linearGradient231238);fill-opacity:1;stroke:#000000;stroke-width:0.366758;stroke-linecap:butt;stroke-linejoin:miter;stroke-miterlimit:4;stroke-dasharray:none;stroke-opacity:1"
                 d="m -969.09893,303.20402 c -0.79235,0.27842 -1.29994,0.92896 -1.73276,1.55238 -1.08035,1.45216 -2.61258,2.55548 -4.09007,3.66453 -1.09312,0.80249 -2.17383,1.65637 -2.92786,2.74201 -2.25286,2.93239 -3.41458,6.54878 -3.18919,10.1378 0.0788,0.80884 0.46203,1.59015 1.0727,2.19642 0.70417,0.7299 1.6628,1.21826 2.65689,1.55401 4.90835,1.84676 10.60672,1.89453 15.47195,0.083 0.95328,-0.36134 1.89394,-0.7721 2.72362,-1.32854 0.49395,-0.34971 0.79927,-0.87217 0.92266,-1.42237 0.16503,-0.69852 0.1303,-1.42069 0.14437,-2.1324 -0.0169,-2.47577 -0.53269,-4.97278 -1.65413,-7.25733 -0.93204,-1.78295 -2.41664,-3.27136 -3.92037,-4.68615 -1.29084,-1.20821 -2.65828,-2.36614 -3.73442,-3.74098 -0.28467,-0.33425 -0.53207,-0.69812 -0.85946,-1.0007 -0.21706,-0.18744 -0.48425,-0.33442 -0.77952,-0.392 -0.0348,0.0101 -0.0696,0.0202 -0.10438,0.0304 z"
                 inkscape:export-filename="C:\Users\Anna Pedersen\Desktop\path4850.png"
                 inkscape:export-xdpi="96"
                 inkscape:export-ydpi="96" />
              <path
                 id="path231226"
                 style="opacity:0.802559;fill:url(#radialGradient231240);fill-opacity:1;stroke:none;stroke-width:0.366758;stroke-linecap:butt;stroke-linejoin:miter;stroke-miterlimit:4;stroke-dasharray:none;stroke-opacity:1"
                 d="m -968.99452,303.17368 c -0.79236,0.27842 -1.29994,0.92895 -1.73276,1.55238 -1.08035,1.45215 -2.61259,2.55547 -4.09007,3.66453 -1.09313,0.80249 -2.17383,1.65636 -2.92787,2.74201 -2.25286,2.93239 -3.41458,6.54878 -3.18918,10.1378 0.0788,0.80884 0.46203,1.59015 1.07269,2.19642 0.70417,0.72989 1.66281,1.21826 2.6569,1.55401 4.90835,1.84675 10.60672,1.89453 15.47195,0.083 0.95327,-0.36133 1.89393,-0.77209 2.72361,-1.32853 0.49396,-0.34971 0.79927,-0.87217 0.92267,-1.42237 0.16502,-0.69852 0.13029,-1.42069 0.14436,-2.1324 -0.0169,-2.47578 -0.53269,-4.97278 -1.65413,-7.25733 -0.93204,-1.78295 -2.41663,-3.27136 -3.92036,-4.68615 -1.29085,-1.20822 -2.65829,-2.36614 -3.73442,-3.74098 -0.28468,-0.33425 -0.53207,-0.69812 -0.85947,-1.0007 -0.21705,-0.18745 -0.48425,-0.33443 -0.77952,-0.392 -0.0348,0.0101 -0.0695,0.0202 -0.10438,0.0304 z"
                 inkscape:export-filename="C:\Users\Anna Pedersen\Desktop\path4850.png"
                 inkscape:export-xdpi="96"
                 inkscape:export-ydpi="96" />
              <path
                 id="path231228"
                 style="fill:none;fill-opacity:1;stroke:#000000;stroke-width:0.396875;stroke-linecap:butt;stroke-linejoin:miter;stroke-miterlimit:4;stroke-dasharray:none;stroke-opacity:1"
                 d="m -969.30771,303.26473 c -0.79236,0.27842 -1.29994,0.92895 -1.73276,1.55238 -1.08035,1.45215 -2.61259,2.55547 -4.09007,3.66453 -1.09313,0.80249 -2.17384,1.65636 -2.92787,2.74201 -2.25286,2.93239 -3.41458,6.54878 -3.18918,10.1378 0.0788,0.80884 0.46203,1.59015 1.07269,2.19642 0.70417,0.72989 1.66281,1.21826 2.6569,1.55401 4.90835,1.84675 10.60672,1.89453 15.47195,0.083 0.95327,-0.36134 1.89393,-0.77209 2.72361,-1.32853 0.49396,-0.34971 0.79927,-0.87217 0.92267,-1.42237 0.16502,-0.69852 0.13029,-1.42069 0.14436,-2.1324 -0.0169,-2.47578 -0.53269,-4.97278 -1.65413,-7.25733 -0.93204,-1.78295 -2.41663,-3.27136 -3.92036,-4.68615 -1.29085,-1.20822 -2.65829,-2.36614 -3.73442,-3.74098 -0.28468,-0.33425 -0.53207,-0.69812 -0.85947,-1.0007 -0.21705,-0.18745 -0.48425,-0.33443 -0.77952,-0.392 -0.0348,0.0101 -0.0695,0.0202 -0.10438,0.0304 z"
                 inkscape:export-filename="C:\Users\Anna Pedersen\Desktop\path4850.png"
                 inkscape:export-xdpi="96"
                 inkscape:export-ydpi="96" />
            </g>
            <g
               id="g63758"
               transform="translate(9.427515,-17.247237)">
              <path
                 style="fill:url(#linearGradient964);fill-opacity:1;stroke:none;stroke-width:0.175633px;stroke-linecap:butt;stroke-linejoin:miter;stroke-opacity:1;filter:url(#filter147802)"
                 d="m -936.80773,611.43125 c -0.87365,-0.3328 -0.74221,-2.95449 -0.86813,-4.47382 -0.13632,-1.63476 -0.48961,-5.15399 -0.66342,-4.95168 -0.17381,0.20231 0.41879,3.57718 0.40715,5.10336 -0.0116,1.52618 0.10571,3.18023 -0.12478,4.42009 -0.23049,1.23986 -0.89641,2.49463 -1.23753,1.80244 -0.34113,-0.69219 -0.37419,-2.2847 -0.42151,-3.13489 -0.10694,-2.11264 -0.0948,-5.7763 -0.20605,-5.74948 -0.11127,0.0268 -0.1022,3.60326 -0.20087,5.70484 -0.0987,2.10159 -0.11339,2.79438 -0.47295,3.3225 -0.35956,0.52812 -1.10312,0.31623 -1.47104,-0.37991 -0.36791,-0.69614 -0.40018,-2.69497 -0.41197,-4.22902 -0.0118,-1.53404 0.0946,-6.04308 -0.083,-6.0041 -0.17762,0.039 -0.15086,5.64459 -0.32217,7.60047 -0.17132,1.95587 -0.0395,4.62917 -1.43671,3.89864 -0.97844,2.27458 1.63774,2.13896 2.479,1.96156 2.11365,-0.51805 6.1669,-1.49456 6.52332,-4.81908 -0.24271,-0.43019 0.12436,-0.52591 0.0692,-1.05398 -0.11055,-1.32708 -0.13615,-0.74426 -0.27735,-3.92784 -0.14124,-3.18358 -1.42392,-8.21152 -1.29221,-7.05531 0.13171,1.1562 0.80705,3.66134 0.90607,6.13757 0.099,2.47622 -0.0214,6.16044 -0.89503,5.82764 z"
                 id="path231232"
                 sodipodi:nodetypes="zczzzzczzzzzzzcccczzzz"
                 transform="matrix(1.3093512,-0.0745475,0.0661919,0.74902901,216.5829,-188.03481)" />
              <path
                 style="fill:url(#linearGradient966);fill-opacity:1;stroke:none;stroke-width:0.175633px;stroke-linecap:butt;stroke-linejoin:miter;stroke-opacity:1;filter:url(#filter147802)"
                 d="m -936.53125,599.80078 c 0.0206,0.34376 0.10743,0.67839 0.16953,1.016 0.21476,1.08173 0.47986,2.15292 0.68306,3.23703 0.0494,0.26113 0.0939,0.52348 0.13112,0.78658 0.0692,0.56401 0.12918,1.12966 0.15098,1.69774 0.0186,0.44398 0.0171,0.88888 -0.009,1.33256 -0.0335,0.61881 -0.1045,1.23603 -0.227,1.84378 -0.071,0.3701 -0.16293,0.73583 -0.25107,1.10209 -0.0669,0.24539 -0.13385,0.49078 -0.20077,0.73617 -0.0513,0.20792 -0.34755,0.36324 -0.50391,0.16602 -0.1745,-0.17671 -0.23335,-0.43009 -0.26785,-0.66799 -0.047,-0.33657 -0.0538,-0.67721 -0.078,-1.01591 -0.0523,-0.87043 -0.10186,-1.74131 -0.18209,-2.60969 -0.0633,-0.58085 -0.16271,-1.15707 -0.27663,-1.72996 -0.11718,-0.61824 -0.25647,-1.23217 -0.4073,-1.843 -0.11936,-0.47799 -0.24711,-0.95381 -0.37214,-1.43032 -0.0555,0.27231 0.0343,0.54315 0.0859,0.80859 0.12284,0.63894 0.24786,1.27762 0.34598,1.92095 0.10058,0.60182 0.16694,1.20885 0.21345,1.81711 0.0557,0.71314 0.0729,1.42983 0.0328,2.1443 -0.0348,0.65491 -0.10975,1.30725 -0.21195,1.95492 -0.0625,0.42002 -0.13742,0.84008 -0.27223,1.24374 -0.0905,0.27954 -0.19715,0.55451 -0.32877,0.81742 -0.0719,0.14776 -0.21821,0.33376 -0.4043,0.25586 -0.20762,-0.10865 -0.28145,-0.35922 -0.32642,-0.57282 -0.0643,-0.33577 -0.0569,-0.68014 -0.0488,-1.02046 0.0355,-0.77649 0.0687,-1.55371 0.0545,-2.33117 -0.006,-0.68597 -0.0628,-1.37012 -0.11869,-2.05344 -0.0514,-0.51239 -0.10281,-1.02525 -0.18625,-1.5336 -0.0731,-0.46066 -0.16292,-0.91993 -0.30526,-1.36477 -0.0719,-0.15232 -0.0587,-0.3527 -0.1999,-0.46554 0.005,0.26307 0.0458,0.52311 0.0766,0.78384 0.0569,0.5094 0.12871,1.01705 0.17995,1.52712 0.0906,0.79345 0.1509,1.59061 0.16859,2.38913 0.024,0.6517 0.007,1.30547 -0.0615,1.95408 -0.0511,0.49025 -0.14135,0.97846 -0.29941,1.44605 -0.15818,0.46664 -0.4142,0.89365 -0.70145,1.29142 -0.47457,0.68736 -1.17154,0.87059 -1.57175,0.15723 -0.36186,-0.66769 -0.1667,-1.53382 -0.13772,-2.23485 0.0739,-1.86992 0.19751,-3.87801 0.16915,-5.59784 0.007,-1.19932 -0.29028,-1.81434 -0.29338,-0.12924 0.049,1.81744 -0.0929,3.47974 -0.33594,5.12223 -0.35152,3.14034 -1.29038,3.33066 -2.3875,3.08343 -0.13443,1.9748 1.62344,2.24566 2.42955,2.25377 2.59821,-0.13859 4.01002,-0.10301 6.38595,-2.03853 1.01696,-1.5757 1.381,-2.87063 1.26677,-4.8608 -0.0764,-1.09148 -0.15306,-2.18299 -0.24148,-3.27357 -0.0722,-0.83334 -0.1665,-1.66565 -0.32008,-2.4883 -0.12963,-0.70722 -0.30477,-1.40547 -0.5044,-2.09598 -0.13593,-0.46013 -0.27089,-0.92058 -0.40593,-1.38096 -0.0215,-0.0706 -0.0557,-0.13945 -0.11328,-0.1875 z"
                 id="path231234"
                 sodipodi:nodetypes="zcczzzzccczzzzzzccccczccczzccczccccccccccccccccccccz"
                 transform="matrix(-1.2984168,-0.19625108,-0.12631801,0.74004465,-2127.3106,-297.0184)" />
            </g>
          </g>
        </g>
        <g
           id="g63792"
           transform="translate(1.2402344,4.1341146)">
          <path
             id="path230114"
             style="fill:url(#radialGradient44260);fill-opacity:1;stroke:#000000;stroke-width:0.396875;stroke-miterlimit:4;stroke-dasharray:none;stroke-opacity:1"
             d="m -887.62133,365.64752 c -0.80169,0.009 -1.59595,-0.29508 -2.39441,-0.175 -0.81353,2.63699 -1.56101,5.48851 -0.46921,8.21798 1.36115,3.24558 2.8353,6.6313 2.40742,10.06628 -0.40856,5.53915 -2.09703,10.93568 -4.58374,15.99816 -1.50198,2.22688 -4.18866,3.83241 -5.03841,6.38128 -1.6137,4.13907 -2.41668,8.5845 -1.8089,13.00354 0.25512,1.57273 0.68233,3.13452 0.70553,4.72042 0.11998,2.29779 -0.13254,4.61251 -0.95361,6.78175 0.55092,1.18161 2.95429,1.11347 3.27937,-0.0974 1.55742,-2.70063 1.31746,-5.85476 0.92243,-8.81393 -0.50333,-3.55795 -1.02053,-7.21982 0.0364,-10.69001 0.72345,-2.87551 2.12128,-5.68034 4.55123,-7.80156 1.55729,-1.61555 2.35667,-3.63179 2.92988,-5.64374 1.66337,-4.81248 3.66428,-9.66097 3.54213,-14.79351 -0.091,-3.29601 -1.5475,-6.45358 -2.68502,-9.6051 -0.68099,-2.39671 -0.29329,-4.86238 0.40737,-7.1734 -0.15791,-0.26001 -0.52787,-0.35957 -0.84851,-0.3758 z"
             inkscape:export-filename="C:\Users\Anna Pedersen\Desktop\path4850.png"
             inkscape:export-xdpi="96"
             inkscape:export-ydpi="96" />
          <g
             id="g63783"
             transform="translate(41.341146,85.989584)">
            <path
               id="path176681"
               style="fill:url(#linearGradient176683);fill-opacity:1;stroke:#000000;stroke-width:0.462564;stroke-linecap:butt;stroke-linejoin:miter;stroke-miterlimit:4;stroke-dasharray:none;stroke-opacity:1"
               d="m -933.31651,257.29487 c -0.90023,0.48373 -1.41043,1.41895 -1.83579,2.30742 -1.07638,2.08 -2.73767,3.7636 -4.33324,5.44684 -1.18302,1.22145 -2.3441,2.50915 -3.0852,4.0564 -2.25809,4.21057 -3.12615,9.16868 -2.35344,13.88922 0.2073,1.05979 0.77175,2.03893 1.58117,2.75324 0.93769,0.86447 2.14306,1.37214 3.36898,1.67253 6.07962,1.73349 12.84255,0.96979 18.35582,-2.13549 1.07935,-0.6169 2.13678,-1.29742 3.04212,-2.15477 0.53639,-0.53483 0.82481,-1.27108 0.89362,-2.01767 0.0973,-0.94907 -0.0456,-1.90046 -0.12916,-2.84508 -0.36868,-3.27644 -1.33194,-6.50859 -2.98331,-9.37147 -1.35617,-2.22605 -3.32598,-3.98184 -5.30812,-5.63734 -1.70064,-1.41281 -3.48501,-2.7479 -4.95454,-4.41256 -0.3846,-0.40135 -0.72917,-0.84735 -1.15995,-1.20058 -0.28375,-0.21675 -0.62125,-0.37263 -0.97944,-0.40603 -0.0398,0.0184 -0.0796,0.0368 -0.11948,0.0554 z"
               inkscape:export-filename="C:\Users\Anna Pedersen\Desktop\path4850.png"
               inkscape:export-xdpi="96"
               inkscape:export-ydpi="96" />
            <path
               id="path186508"
               style="opacity:0.802559;fill:url(#radialGradient190409);fill-opacity:1;stroke:none;stroke-width:0.462564;stroke-linecap:butt;stroke-linejoin:miter;stroke-miterlimit:4;stroke-dasharray:none;stroke-opacity:1"
               d="m -933.19699,257.23953 c -0.90024,0.48373 -1.41043,1.41895 -1.8358,2.30743 -1.07638,2.08 -2.73767,3.76359 -4.33324,5.44683 -1.18302,1.22146 -2.34409,2.50915 -3.0852,4.0564 -2.25809,4.21057 -3.12615,9.16868 -2.35343,13.88923 0.20729,1.05978 0.77175,2.03892 1.58116,2.75323 0.93769,0.86448 2.14307,1.37214 3.36898,1.67254 6.07962,1.73348 12.84256,0.96978 18.35583,-2.1355 1.07934,-0.6169 2.13678,-1.29741 3.04211,-2.15476 0.5364,-0.53484 0.82481,-1.27109 0.89362,-2.01768 0.0973,-0.94906 -0.0456,-1.90046 -0.12916,-2.84508 -0.36868,-3.27644 -1.33193,-6.50859 -2.98331,-9.37147 -1.35616,-2.22605 -3.32598,-3.98184 -5.30812,-5.63734 -1.70064,-1.41281 -3.485,-2.7479 -4.95454,-4.41255 -0.3846,-0.40136 -0.72917,-0.84736 -1.15995,-1.20059 -0.28375,-0.21674 -0.62125,-0.37262 -0.97944,-0.40602 -0.0398,0.0184 -0.0796,0.0368 -0.11948,0.0554 z"
               inkscape:export-filename="C:\Users\Anna Pedersen\Desktop\path4850.png"
               inkscape:export-xdpi="96"
               inkscape:export-ydpi="96" />
            <path
               id="path193207"
               style="fill:none;fill-opacity:1;stroke:#000000;stroke-width:0.396875;stroke-linecap:butt;stroke-linejoin:miter;stroke-miterlimit:4;stroke-dasharray:none;stroke-opacity:1"
               d="m -933.5555,257.40557 c -0.90024,0.48373 -1.41043,1.41895 -1.83579,2.30743 -1.07639,2.08 -2.73768,3.76359 -4.33324,5.44683 -1.18303,1.22145 -2.3441,2.50915 -3.08521,4.0564 -2.25808,4.21057 -3.12614,9.16868 -2.35343,13.88922 0.2073,1.05979 0.77175,2.03893 1.58117,2.75324 0.93768,0.86447 2.14306,1.37214 3.36897,1.67253 6.07962,1.73349 12.84256,0.96979 18.35583,-2.13549 1.07935,-0.6169 2.13678,-1.29741 3.04211,-2.15477 0.5364,-0.53483 0.82481,-1.27108 0.89362,-2.01767 0.0973,-0.94906 -0.0456,-1.90046 -0.12915,-2.84508 -0.36869,-3.27644 -1.33194,-6.50859 -2.98331,-9.37147 -1.35617,-2.22605 -3.32599,-3.98184 -5.30812,-5.63734 -1.70064,-1.41281 -3.48501,-2.7479 -4.95455,-4.41256 -0.38459,-0.40135 -0.72916,-0.84735 -1.15995,-1.20058 -0.28375,-0.21675 -0.62125,-0.37263 -0.97944,-0.40603 -0.0398,0.0184 -0.0796,0.0368 -0.11948,0.0554 z"
               inkscape:export-filename="C:\Users\Anna Pedersen\Desktop\path4850.png"
               inkscape:export-xdpi="96"
               inkscape:export-ydpi="96" />
            <path
               style="fill:url(#linearGradient231242);fill-opacity:1;stroke:none;stroke-width:0.175633px;stroke-linecap:butt;stroke-linejoin:miter;stroke-opacity:1;filter:url(#filter147802)"
               d="m -936.80773,611.43125 c -0.87365,-0.3328 -0.74221,-2.95449 -0.86813,-4.47382 -0.13632,-1.63476 -0.48961,-5.15399 -0.66342,-4.95168 -0.17381,0.20231 0.41879,3.57718 0.40715,5.10336 -0.0116,1.52618 0.10571,3.18023 -0.12478,4.42009 -0.23049,1.23986 -0.89641,2.49463 -1.23753,1.80244 -0.34113,-0.69219 -0.37419,-2.2847 -0.42151,-3.13489 -0.10694,-2.11264 -0.0948,-5.7763 -0.20605,-5.74948 -0.11127,0.0268 -0.1022,3.60326 -0.20087,5.70484 -0.0987,2.10159 -0.11339,2.79438 -0.47295,3.3225 -0.35956,0.52812 -1.10312,0.31623 -1.47104,-0.37991 -0.36791,-0.69614 -0.40018,-2.69497 -0.41197,-4.22902 -0.0118,-1.53404 0.0946,-6.04308 -0.083,-6.0041 -0.17762,0.039 -0.15086,5.64459 -0.32217,7.60047 -0.17132,1.95587 -0.0395,4.62917 -1.43671,3.89864 -0.97844,2.27458 1.63774,2.13896 2.479,1.96156 2.11365,-0.51805 6.1669,-1.49456 6.52332,-4.81908 -0.24271,-0.43019 0.12436,-0.52591 0.0692,-1.05398 -0.11055,-1.32708 -0.13615,-0.74426 -0.27735,-3.92784 -0.14124,-3.18358 -1.42392,-8.21152 -1.29221,-7.05531 0.13171,1.1562 0.80705,3.66134 0.90607,6.13757 0.099,2.47622 -0.0214,6.16044 -0.89503,5.82764 z"
               id="path154684"
               sodipodi:nodetypes="zczzzzczzzzzzzcccczzzz"
               transform="matrix(1.5419178,-0.28875093,0.18397142,0.98239968,412.00589,-589.87046)" />
            <path
               style="fill:url(#linearGradient231244);fill-opacity:1;stroke:none;stroke-width:0.175633px;stroke-linecap:butt;stroke-linejoin:miter;stroke-opacity:1;filter:url(#filter147802)"
               d="m -936.53125,599.80078 c 0.0206,0.34376 0.10743,0.67839 0.16953,1.016 0.21476,1.08173 0.47986,2.15292 0.68306,3.23703 0.0494,0.26113 0.0939,0.52348 0.13112,0.78658 0.0692,0.56401 0.12918,1.12966 0.15098,1.69774 0.0186,0.44398 0.0171,0.88888 -0.009,1.33256 -0.0335,0.61881 -0.1045,1.23603 -0.227,1.84378 -0.071,0.3701 -0.16293,0.73583 -0.25107,1.10209 -0.0669,0.24539 -0.13385,0.49078 -0.20077,0.73617 -0.0513,0.20792 -0.34755,0.36324 -0.50391,0.16602 -0.1745,-0.17671 -0.23335,-0.43009 -0.26785,-0.66799 -0.047,-0.33657 -0.0538,-0.67721 -0.078,-1.01591 -0.0523,-0.87043 -0.10186,-1.74131 -0.18209,-2.60969 -0.0633,-0.58085 -0.16271,-1.15707 -0.27663,-1.72996 -0.11718,-0.61824 -0.25647,-1.23217 -0.4073,-1.843 -0.11936,-0.47799 -0.24711,-0.95381 -0.37214,-1.43032 -0.0555,0.27231 0.0343,0.54315 0.0859,0.80859 0.12284,0.63894 0.24786,1.27762 0.34598,1.92095 0.10058,0.60182 0.16694,1.20885 0.21345,1.81711 0.0557,0.71314 0.0729,1.42983 0.0328,2.1443 -0.0348,0.65491 -0.10975,1.30725 -0.21195,1.95492 -0.0625,0.42002 -0.13742,0.84008 -0.27223,1.24374 -0.0905,0.27954 -0.19715,0.55451 -0.32877,0.81742 -0.0719,0.14776 -0.21821,0.33376 -0.4043,0.25586 -0.20762,-0.10865 -0.28145,-0.35922 -0.32642,-0.57282 -0.0643,-0.33577 -0.0569,-0.68014 -0.0488,-1.02046 0.0355,-0.77649 0.0687,-1.55371 0.0545,-2.33117 -0.006,-0.68597 -0.0628,-1.37012 -0.11869,-2.05344 -0.0514,-0.51239 -0.10281,-1.02525 -0.18625,-1.5336 -0.0731,-0.46066 -0.16292,-0.91993 -0.30526,-1.36477 -0.0719,-0.15232 -0.0587,-0.3527 -0.1999,-0.46554 0.005,0.26307 0.0458,0.52311 0.0766,0.78384 0.0569,0.5094 0.12871,1.01705 0.17995,1.52712 0.0906,0.79345 0.1509,1.59061 0.16859,2.38913 0.024,0.6517 0.007,1.30547 -0.0615,1.95408 -0.0511,0.49025 -0.14135,0.97846 -0.29941,1.44605 -0.15818,0.46664 -0.4142,0.89365 -0.70145,1.29142 -0.47457,0.68736 -1.17154,0.87059 -1.57175,0.15723 -0.36186,-0.66769 -0.1667,-1.53382 -0.13772,-2.23485 0.0739,-1.86992 0.19751,-3.87801 0.16915,-5.59784 0.007,-1.19932 -0.29028,-1.81434 -0.29338,-0.12924 0.049,1.81744 -0.0929,3.47974 -0.33594,5.12223 -0.35152,3.14034 -1.29038,3.33066 -2.3875,3.08343 -0.13443,1.9748 1.62344,2.24566 2.42955,2.25377 2.59821,-0.13859 4.01002,-0.10301 6.38595,-2.03853 1.01696,-1.5757 1.381,-2.87063 1.26677,-4.8608 -0.0764,-1.09148 -0.15306,-2.18299 -0.24148,-3.27357 -0.0722,-0.83334 -0.1665,-1.66565 -0.32008,-2.4883 -0.12963,-0.70722 -0.30477,-1.40547 -0.5044,-2.09598 -0.13593,-0.46013 -0.27089,-0.92058 -0.40593,-1.38096 -0.0215,-0.0706 -0.0557,-0.13945 -0.11328,-0.1875 z"
               id="path200424"
               sodipodi:nodetypes="zcczzzzccczzzzzzccccczccczzccczccccccccccccccccccccz"
               transform="matrix(-1.5670924,-0.0714786,-0.04554104,0.99843909,-2382.3532,-394.047)" />
          </g>
        </g>
      </g>
    </g>
  </g>
</svg>
