<?xml version="1.0" encoding="UTF-8" standalone="no"?>
<!-- Created with Inkscape (http://www.inkscape.org/) -->

<svg
   width="500"
   height="500"
   viewBox="0 0 132.29166 132.29167"
   version="1.1"
   id="svg70519"
   inkscape:version="1.1 (c68e22c387, 2021-05-23)"
   sodipodi:docname="peyote.svg"
   xmlns:inkscape="http://www.inkscape.org/namespaces/inkscape"
   xmlns:sodipodi="http://sodipodi.sourceforge.net/DTD/sodipodi-0.dtd"
   xmlns:xlink="http://www.w3.org/1999/xlink"
   xmlns="http://www.w3.org/2000/svg"
   xmlns:svg="http://www.w3.org/2000/svg">
  <sodipodi:namedview
     id="namedview70521"
     pagecolor="#ffffff"
     bordercolor="#999999"
     borderopacity="1"
     inkscape:pageshadow="0"
     inkscape:pageopacity="0"
     inkscape:pagecheckerboard="0"
     inkscape:document-units="mm"
     showgrid="false"
     units="px"
     inkscape:zoom="0.69397447"
     inkscape:cx="396.98867"
     inkscape:cy="433.01305"
     inkscape:window-width="1920"
     inkscape:window-height="1001"
     inkscape:window-x="-9"
     inkscape:window-y="-9"
     inkscape:window-maximized="1"
     inkscape:current-layer="layer1" />
  <defs
     id="defs70516">
    <radialGradient
       inkscape:collect="always"
       xlink:href="#linearGradient26765"
       id="radialGradient121434"
       gradientUnits="userSpaceOnUse"
       gradientTransform="matrix(1,0,0,0.70493041,451.41647,61.425133)"
       cx="-384.79626"
       cy="187.61031"
       fx="-384.79626"
       fy="187.61031"
       r="34.986015" />
    <linearGradient
       inkscape:collect="always"
       id="linearGradient26765">
      <stop
         style="stop-color:#7ba07d;stop-opacity:1"
         offset="0"
         id="stop26761" />
      <stop
         style="stop-color:#4c8b4e;stop-opacity:1"
         offset="1"
         id="stop26763" />
    </linearGradient>
    <filter
       inkscape:collect="always"
       style="color-interpolation-filters:sRGB"
       id="filter26509"
       x="-0.085218817"
       y="-0.13760374"
       width="1.1704376"
       height="1.2752075">
      <feGaussianBlur
         inkscape:collect="always"
         stdDeviation="1.7017371"
         id="feGaussianBlur26511" />
    </filter>
    <filter
       inkscape:collect="always"
       style="color-interpolation-filters:sRGB"
       id="filter104430"
       x="-0.12347378"
       y="-0.19937445"
       width="1.2469476"
       height="1.3987489">
      <feGaussianBlur
         inkscape:collect="always"
         stdDeviation="2.4656514"
         id="feGaussianBlur104428" />
    </filter>
    <filter
       inkscape:collect="always"
       style="color-interpolation-filters:sRGB"
       id="filter104436"
       x="-0.14594097"
       y="-0.23565246"
       width="1.2918819"
       height="1.4713049">
      <feGaussianBlur
         inkscape:collect="always"
         stdDeviation="2.9142995"
         id="feGaussianBlur104434" />
    </filter>
    <filter
       inkscape:collect="always"
       style="color-interpolation-filters:sRGB"
       id="filter44844"
       x="-1.4028324"
       y="-0.22144723"
       width="3.804538"
       height="1.4428887">
      <feGaussianBlur
         inkscape:collect="always"
         stdDeviation="0.68102997"
         id="feGaussianBlur44846" />
    </filter>
    <filter
       inkscape:collect="always"
       style="color-interpolation-filters:sRGB"
       id="filter98648"
       x="-0.34796512"
       y="-0.16778013"
       width="1.6962005"
       height="1.3355719">
      <feGaussianBlur
         inkscape:collect="always"
         stdDeviation="1.121591"
         id="feGaussianBlur98646" />
    </filter>
    <filter
       inkscape:collect="always"
       style="color-interpolation-filters:sRGB"
       id="filter100717"
       x="-0.3037559"
       y="-0.13323448"
       width="1.6073301"
       height="1.2665172">
      <feGaussianBlur
         inkscape:collect="always"
         stdDeviation="1.1679605"
         id="feGaussianBlur100715" />
    </filter>
    <filter
       inkscape:collect="always"
       style="color-interpolation-filters:sRGB"
       id="filter55489"
       x="-0.4436659"
       y="-0.16264785"
       width="1.8902737"
       height="1.3252893">
      <feGaussianBlur
         inkscape:collect="always"
         stdDeviation="0.97721968"
         id="feGaussianBlur55487" />
    </filter>
  </defs>
  <g
     inkscape:label="Layer 1"
     inkscape:groupmode="layer"
     id="layer1">
    <g
       id="g1060"
       transform="translate(-142.40229,0.56944784)">
      <ellipse
         style="display:inline;fill:#ecf0c6;fill-opacity:1;stroke:#000000;stroke-width:0.79375;stroke-miterlimit:4;stroke-dasharray:none;stroke-opacity:1"
         id="ellipse17844-0"
         cx="208.54813"
         cy="65.576385"
         rx="65.619385"
         ry="65.619377"
         inkscape:export-filename="C:\Users\Anna Pedersen\Desktop\path4850.png"
         inkscape:export-xdpi="96"
         inkscape:export-ydpi="96" />
      <g
         id="g122608"
         transform="translate(143.2447,-128.51677)">
        <path
           id="path121366"
           style="fill:url(#radialGradient121434);fill-opacity:1;stroke:#1b1b1b;stroke-width:0.661458;stroke-linejoin:round;stroke-miterlimit:4;stroke-dasharray:none"
           d="m 63.86919,171.23805 c -2.35748,0.45311 -4.70954,0.96062 -7.00106,1.68297 -0.65016,0.21044 -1.28955,0.45513 -1.95182,0.62697 -0.44177,0.10574 -0.86777,0.26566 -1.29543,0.41665 -0.75764,0.27994 -1.47104,0.67193 -2.1345,1.13083 -0.2923,0.20631 -0.55403,0.45222 -0.77506,0.73369 -0.39858,0.50004 -0.73801,1.04411 -1.13874,1.5427 -0.19443,0.24948 -0.35389,0.57814 -0.68644,0.66371 -0.49454,0.15594 -1.01139,0.0103 -1.51081,-0.041 -0.38161,-0.0504 -0.76321,-0.10069 -1.14481,-0.15103 -1.44978,0.11473 -2.89748,0.35222 -4.27744,0.82123 -0.9321,0.31547 -1.88353,0.58671 -2.77724,1.00372 -0.759,0.37921 -1.45217,0.87355 -2.13982,1.36676 -1.84951,1.38949 -3.23793,3.37415 -3.9335,5.5785 -0.2127,0.65277 -0.33239,1.34874 -0.23458,2.03413 0.14103,1.10527 0.72577,2.14089 1.58539,2.84748 0.35005,0.29387 0.72358,0.55819 1.07993,0.84427 0.19625,0.21145 0.1754,0.59356 -0.0586,0.76953 -0.78745,0.74107 -1.67896,1.38489 -2.33398,2.25586 -0.55206,0.80482 -0.81012,1.76581 -0.98665,2.71398 -0.38163,2.14015 -0.14178,4.385 0.67268,6.39995 0.78715,1.96297 2.10268,3.70148 3.7421,5.03312 0.95375,0.77577 1.99895,1.43621 3.09218,1.9969 1.94857,0.99403 4.06814,1.62378 6.22308,1.97515 1.30934,0.2181 2.6348,0.33453 3.96123,0.37309 0.90398,0.0128 1.82998,-0.10024 2.65171,-0.49837 0.66489,-0.31552 1.28171,-0.722 1.93468,-1.06022 0.21545,-0.12673 0.48667,-0.11686 0.70568,-0.004 0.26167,0.12631 0.46166,0.34552 0.69526,0.51401 0.78113,0.61323 1.56516,1.24406 2.46756,1.67194 1.12989,0.51886 2.37459,0.70472 3.60085,0.8335 1.91902,0.17455 3.84162,0.30682 5.76249,0.45907 1.31502,0.0901 2.62943,0.19822 3.94646,0.25239 2.26732,0.0422 4.53775,-0.18063 6.7592,-0.63277 1.63607,-0.34313 3.24726,-0.81948 4.79099,-1.46281 1.35117,-0.57712 2.6326,-1.3676 3.63892,-2.44912 0.60449,-0.63867 1.15581,-1.32563 1.69592,-2.01883 0.71265,-0.94545 1.3959,-1.91333 2.04721,-2.90191 0.39639,-0.65107 0.72237,-1.38891 0.68953,-2.16687 -0.002,-0.6949 -0.15784,-1.37599 -0.26686,-2.05906 -0.007,-0.28578 0.22484,-0.55395 0.50976,-0.58398 0.93841,-0.18264 1.91404,-0.32581 2.75391,-0.8125 1.24108,-0.7971 2.4254,-1.70428 3.41004,-2.8085 1.16104,-1.33846 1.91322,-3.01065 2.21394,-4.7526 0.26119,-1.50877 0.17388,-3.0772 -0.26481,-4.54482 -0.25547,-0.88007 -0.64535,-1.7152 -1.08082,-2.51919 -0.60026,-1.08862 -1.33596,-2.10204 -2.1789,-3.01538 -1.21474,-1.29603 -2.70991,-2.35731 -4.39633,-2.93959 -1.3823,-0.46413 -2.82982,-0.67704 -4.25324,-0.9733 -0.48787,-0.0968 -0.9747,-0.19865 -1.4616,-0.30014 -0.61845,-0.21037 -1.05085,-0.73286 -1.44531,-1.22656 -0.67617,-0.8464 -1.2727,-1.78214 -2.14063,-2.45117 -1.02387,-0.74943 -2.24224,-1.15695 -3.44035,-1.53352 -2.03455,-0.61966 -4.11243,-1.08185 -6.18905,-1.53499 -2.10992,-0.44143 -4.23799,-0.81056 -6.38445,-1.01828 -0.80144,-0.0645 -1.60502,-0.0944 -2.40802,-0.13196 -0.11328,0.0169 -0.22657,0.0339 -0.33985,0.0508 z" />
        <path
           id="path121368"
           style="fill:#3e3c26;fill-opacity:1;stroke:none;stroke-width:0.311343;stroke-linejoin:round"
           inkscape:transform-center-x="-0.094185608"
           inkscape:transform-center-y="-6.73976"
           d="m 50.00221,180.39306 c 1.22039,3.10822 3.61418,5.61477 6.35367,7.42117 1.19345,0.95253 2.3363,1.97212 3.39167,3.07964 -1.19532,0.17293 -2.35864,-0.39867 -3.55541,-0.22827 -3.40109,-0.0377 -6.79328,0.29153 -10.17115,0.65503 -1.7652,0.27107 -8.02473,1.56356 -9.78993,1.83462 4.60647,-0.41078 13.7382,-1.89888 18.36156,-1.47558 1.70351,0.12331 3.46257,0.0969 5.08415,0.70982 0.36172,0.15587 0.50102,0.55878 0.49748,0.92997 0.0724,0.96027 -0.1377,1.9114 -0.1959,2.86642 -0.41413,2.81896 -1.80497,5.35401 -3.22148,7.77204 -0.30183,0.73424 -2.86022,8.36713 -1.59881,7.74673 0.26409,-1.26193 0.97266,-4.32298 1.64766,-5.43214 1.43956,-2.68656 3.62053,-4.88764 4.98431,-7.62154 1.16027,-1.98418 2.29874,-3.98518 3.59927,-5.88042 0.89253,-0.50413 1.93513,-0.18876 2.88797,-0.10801 3.68706,0.43156 7.4642,0.63104 10.97625,1.95187 3.39533,1.29359 7.71956,5.05332 10.9297,6.70758 -3.798,-2.27605 -8.64692,-6.67412 -12.69445,-8.52501 -2.54873,-1.1664 -5.30765,-1.71742 -7.99815,-2.43698 -0.25734,-0.39502 0.14061,-0.83382 0.49873,-0.9753 3.55438,-2.49041 6.53124,-4.99209 10.62858,-6.42965 1.57827,-0.60185 3.78487,-2.59668 5.32736,-3.2896 -5.13283,1.252 -10.07517,4.50171 -14.67459,7.18928 -1.83214,1.08426 -3.53113,2.39216 -5.42659,3.36775 -2.01772,0.0558 -3.88927,-0.85078 -5.64974,-1.74378 -3.82423,-2.07964 -7.91282,-6.45386 -11.10575,-10.6427 z"
           sodipodi:nodetypes="cccccccccccccccccccccccccccc" />
        <path
           style="fill:#e6e5d6;fill-opacity:1;stroke:#000000;stroke-width:0.155671;stroke-linecap:butt;stroke-linejoin:miter;stroke-miterlimit:4;stroke-dasharray:none;stroke-opacity:1"
           d="m 41.28612,183.41931 c -0.35761,0.0924 -0.59178,0.40512 -0.82164,0.67371 -0.2031,0.24193 -0.46092,0.42678 -0.71764,0.60552 -0.0491,0.29068 0.15115,0.54615 0.35654,0.7234 0.32399,0.26979 0.63145,0.56869 1.00676,0.76616 0.3425,0.078 0.66635,-0.12677 1.00759,-0.11476 0.17113,-0.009 0.34227,-0.0183 0.5134,-0.0274 0.25512,-0.10173 0.36957,-0.37687 0.46853,-0.61478 0.15379,-0.36361 0.31422,-0.76137 0.22969,-1.16367 -0.0804,-0.26872 -0.35326,-0.40061 -0.59308,-0.49344 -0.46628,-0.1734 -0.94423,-0.37003 -1.45015,-0.35476 z"
           sodipodi:nodetypes="ssssss"
           id="path121370" />
        <path
           style="fill:#e6e5d6;fill-opacity:1;stroke:#000000;stroke-width:0.155671;stroke-linecap:butt;stroke-linejoin:miter;stroke-miterlimit:4;stroke-dasharray:none;stroke-opacity:1"
           d="m 44.28058,201.04538 c -0.35761,0.0924 -0.59178,0.40511 -0.82163,0.67371 -0.20311,0.24193 -0.46093,0.42678 -0.71765,0.60552 -0.0491,0.29068 0.15115,0.54615 0.35654,0.7234 0.32399,0.26979 0.63145,0.56869 1.00676,0.76615 0.3425,0.078 0.66635,-0.12676 1.00759,-0.11475 0.17114,-0.009 0.34227,-0.0183 0.5134,-0.0274 0.25513,-0.10173 0.36957,-0.37687 0.46853,-0.61478 0.15379,-0.36361 0.31423,-0.76138 0.22969,-1.16367 -0.0804,-0.26872 -0.35326,-0.40061 -0.59308,-0.49344 -0.46628,-0.1734 -0.94423,-0.37003 -1.45015,-0.35476 z"
           sodipodi:nodetypes="ssssss"
           id="path121372" />
        <path
           style="fill:#e6e5d6;fill-opacity:1;stroke:#000000;stroke-width:0.155671;stroke-linecap:butt;stroke-linejoin:miter;stroke-miterlimit:4;stroke-dasharray:none;stroke-opacity:1"
           d="m 76.50191,207.49933 c -0.35761,0.0924 -0.59178,0.40512 -0.82163,0.67371 -0.20311,0.24193 -0.46093,0.42679 -0.71765,0.60553 -0.0491,0.29067 0.15115,0.54614 0.35654,0.7234 0.32399,0.26978 0.63145,0.56869 1.00676,0.76615 0.34251,0.0779 0.66635,-0.12677 1.0076,-0.11475 0.17113,-0.009 0.34226,-0.0183 0.5134,-0.0274 0.25512,-0.10173 0.36957,-0.37687 0.46852,-0.61477 0.1538,-0.36362 0.31423,-0.76138 0.2297,-1.16368 -0.0804,-0.26872 -0.35327,-0.40061 -0.59309,-0.49343 -0.46628,-0.17341 -0.94423,-0.37003 -1.45015,-0.35477 z"
           sodipodi:nodetypes="ssssss"
           id="path121374" />
        <path
           style="fill:#e6e5d6;fill-opacity:1;stroke:#000000;stroke-width:0.155671;stroke-linecap:butt;stroke-linejoin:miter;stroke-miterlimit:4;stroke-dasharray:none;stroke-opacity:1"
           d="m 92.91465,187.52812 c -0.35761,0.0924 -0.59178,0.40511 -0.82163,0.67371 -0.2031,0.24193 -0.46092,0.42678 -0.71765,0.60552 -0.0491,0.29068 0.15116,0.54614 0.35654,0.7234 0.324,0.26978 0.63145,0.56869 1.00676,0.76615 0.34251,0.078 0.66636,-0.12676 1.0076,-0.11475 0.17113,-0.009 0.34227,-0.0183 0.5134,-0.0274 0.25512,-0.10173 0.36957,-0.37686 0.46852,-0.61477 0.1538,-0.36362 0.31423,-0.76138 0.2297,-1.16367 -0.0804,-0.26872 -0.35327,-0.40062 -0.59309,-0.49344 -0.46628,-0.1734 -0.94423,-0.37003 -1.45015,-0.35477 z"
           sodipodi:nodetypes="ssssss"
           id="path121376" />
        <path
           id="path121378"
           style="fill:#3e3c26;fill-opacity:1;stroke:none;stroke-width:0.311343;stroke-linejoin:round;filter:url(#filter26509)"
           inkscape:transform-center-x="-0.094185608"
           inkscape:transform-center-y="-6.73976"
           d="m 49.38935,180.18877 c 1.22039,3.10822 3.61418,5.61477 6.35367,7.42117 1.19345,0.95253 2.3363,1.97212 3.39167,3.07964 -1.19532,0.17293 -2.35864,-0.39867 -3.55541,-0.22827 -3.40109,-0.0377 -6.79328,0.29153 -10.17115,0.65503 -1.7652,0.27107 -3.5304,0.54212 -5.2956,0.81318 4.60647,-0.41078 9.24387,-0.87744 13.86723,-0.45414 1.70351,0.12331 3.46257,0.0969 5.08415,0.70982 0.36172,0.15587 0.50102,0.55878 0.49748,0.92997 0.0724,0.96027 -0.1377,1.9114 -0.1959,2.86642 -0.41413,2.81896 -1.80497,5.35401 -3.22148,7.77204 -0.92545,1.82393 -1.55539,3.85237 -1.49688,5.91991 -0.14009,0.21308 0.35483,0.28074 0.28111,0.0393 0.26409,-1.26193 0.58962,-2.53546 1.26462,-3.64462 1.43956,-2.68656 3.62053,-4.88764 4.98431,-7.62154 1.16027,-1.98418 2.29874,-3.98518 3.59927,-5.88042 0.89253,-0.50413 1.93513,-0.18876 2.88797,-0.10801 3.68706,0.43156 7.4642,0.63104 10.97625,1.95187 3.39533,1.29359 6.1874,3.72545 9.39754,5.37971 -3.798,-2.27605 -7.11476,-5.34625 -11.16229,-7.19714 -2.54873,-1.1664 -5.30765,-1.71742 -7.99815,-2.43698 -0.25734,-0.39502 0.14061,-0.83382 0.49873,-0.9753 3.55438,-2.49041 7.34839,-4.68566 11.44573,-6.12322 1.57827,-0.60185 3.17201,-1.16666 4.7145,-1.85958 -5.13283,1.252 -10.27946,2.76526 -14.87888,5.45283 -1.83214,1.08426 -3.53113,2.39216 -5.42659,3.36775 -2.01772,0.0558 -3.88927,-0.85078 -5.64974,-1.74378 -3.82423,-2.07964 -7.19781,-4.9217 -10.18645,-8.0891 z"
           sodipodi:nodetypes="ccccccccccc" />
        <path
           id="path121380"
           style="fill:#3e3c26;fill-opacity:1;stroke:none;stroke-width:0.311343;stroke-linejoin:round;filter:url(#filter104430)"
           inkscape:transform-center-x="-0.094185608"
           inkscape:transform-center-y="-6.73976"
           d="m 49.73084,180.59735 c 1.22039,3.10822 3.61418,5.61477 6.35367,7.42117 1.19345,0.95253 2.3363,1.97212 3.39167,3.07964 -1.19532,0.17293 -2.35864,-0.39867 -3.55541,-0.22827 -3.40109,-0.0377 -6.79328,0.29153 -10.17115,0.65503 -1.7652,0.27107 -3.5304,0.54212 -5.2956,0.81318 4.60647,-0.41078 9.24387,-0.87744 13.86723,-0.45414 1.70351,0.12331 3.46257,0.0969 5.08415,0.70982 0.36172,0.15587 0.50102,0.55878 0.49748,0.92997 0.0724,0.96027 -0.1377,1.9114 -0.1959,2.86642 -0.41413,2.81896 -1.80497,5.35401 -3.22148,7.77204 -0.92545,1.82393 -1.55539,3.85237 -1.49688,5.91991 -0.14009,0.21308 0.35483,0.28074 0.28111,0.0393 0.26409,-1.26193 0.58962,-2.53546 1.26462,-3.64462 1.43956,-2.68656 3.62053,-4.88764 4.98431,-7.62154 1.16027,-1.98418 2.29874,-3.98518 3.59927,-5.88042 0.89253,-0.50413 1.93513,-0.18876 2.88797,-0.10801 3.68706,0.43156 7.4642,0.63104 10.97625,1.95187 3.39533,1.29359 6.1874,3.72545 9.39754,5.37971 -3.798,-2.27605 -7.11476,-5.34625 -11.16229,-7.19714 -2.54873,-1.1664 -5.30765,-1.71742 -7.99815,-2.43698 -0.25734,-0.39502 0.14061,-0.83382 0.49873,-0.9753 3.55438,-2.49041 7.34839,-4.68566 11.44573,-6.12322 1.57827,-0.60185 3.17201,-1.16666 4.7145,-1.85958 -5.13283,1.252 -10.27946,2.76526 -14.87888,5.45283 -1.83214,1.08426 -3.53113,2.39216 -5.42659,3.36775 -2.01772,0.0558 -3.88927,-0.85078 -5.64974,-1.74378 -3.82423,-2.07964 -7.19781,-4.9217 -10.18645,-8.0891 z"
           sodipodi:nodetypes="ccccccccccc" />
        <path
           id="path121382"
           style="mix-blend-mode:normal;fill:#3e3c26;fill-opacity:1;stroke:none;stroke-width:0.311343;stroke-linejoin:round;filter:url(#filter104436)"
           inkscape:transform-center-x="-0.094185608"
           inkscape:transform-center-y="-6.73976"
           d="m 48.86412,180.88626 c 1.22039,3.10822 3.61418,5.61477 6.35367,7.42117 1.19345,0.95253 2.3363,1.97212 3.39167,3.07964 -1.19532,0.17293 -2.35864,-0.39867 -3.55541,-0.22827 -3.40109,-0.0377 -6.79328,0.29153 -10.17115,0.65503 -1.7652,0.27107 -3.5304,0.54212 -5.2956,0.81318 4.60647,-0.41078 9.24387,-0.87744 13.86723,-0.45414 1.70351,0.12331 3.46257,0.0969 5.08415,0.70982 0.36172,0.15587 0.50102,0.55878 0.49748,0.92997 0.0724,0.96027 -0.1377,1.9114 -0.1959,2.86642 -0.41413,2.81896 -1.80497,5.35401 -3.22148,7.77204 -0.92545,1.82393 -1.55539,3.85237 -1.49688,5.91991 -0.14009,0.21308 0.35483,0.28074 0.28111,0.0393 0.26409,-1.26193 0.58962,-2.53546 1.26462,-3.64462 1.43956,-2.68656 3.62053,-4.88764 4.98431,-7.62154 1.16027,-1.98418 2.29874,-3.98518 3.59927,-5.88042 0.89253,-0.50413 1.93513,-0.18876 2.88797,-0.10801 3.68706,0.43156 7.4642,0.63104 10.97625,1.95187 3.39533,1.29359 6.1874,3.72545 9.39754,5.37971 -3.798,-2.27605 -7.11476,-5.34625 -11.16229,-7.19714 -2.54873,-1.1664 -5.30765,-1.71742 -7.99815,-2.43698 -0.25734,-0.39502 0.14061,-0.83382 0.49873,-0.9753 3.55438,-2.49041 7.34839,-4.68566 11.44573,-6.12322 1.57827,-0.60185 3.17201,-1.16666 4.7145,-1.85958 -5.13283,1.252 -10.27946,2.76526 -14.87888,5.45283 -1.83214,1.08426 -3.53113,2.39216 -5.42659,3.36775 -2.01772,0.0558 -3.88927,-0.85078 -5.64974,-1.74378 -3.82423,-2.07964 -7.19781,-4.9217 -10.18645,-8.0891 z"
           sodipodi:nodetypes="ccccccccccc" />
        <g
           id="g121430"
           transform="matrix(0.91224626,0,0,0.91224626,521.65644,78.718814)">
          <g
             id="g121428"
             transform="translate(5.5157701,-17.977325)">
            <path
               id="path121384"
               style="fill:#f4e3ed;fill-opacity:1;stroke:#000000;stroke-width:0.661458;stroke-linejoin:round;stroke-miterlimit:4;stroke-dasharray:none"
               d="m -506.22259,126.97983 c -0.83236,0.34741 -1.62148,0.82643 -2.17176,1.49565 -0.41052,0.52744 -0.65856,1.14749 -0.77858,1.77871 -0.17203,1.22747 -0.13541,2.46998 -0.0287,3.70076 0.21729,2.48181 0.73809,4.93675 0.86717,7.42557 0.0288,0.52107 0.031,1.0428 0.0515,1.56404 0.0716,0.43137 0.50872,0.83 1.01386,0.79899 0.46086,-0.0337 0.88401,-0.2329 1.26344,-0.45746 0.40654,-0.26412 0.74086,-0.68156 0.72244,-1.14901 10e-4,-0.41008 -0.17202,-0.79739 -0.26947,-1.19311 -0.16491,-0.54374 -0.3053,-1.12266 -0.15069,-1.68213 0.23526,-1.15915 0.63594,-2.28574 0.86284,-3.44654 0.34819,-1.61369 0.65974,-3.25018 0.59959,-4.90004 -0.0159,-0.73824 -0.20271,-1.47002 -0.52965,-2.14695 -0.26711,-0.61508 -0.58749,-1.24008 -1.14316,-1.69029 -0.0863,-0.0619 -0.19292,-0.12298 -0.30886,-0.0982 z" />
            <path
               id="path121386"
               style="fill:#f4e3ed;fill-opacity:1;stroke:#000000;stroke-width:0.661458;stroke-linejoin:round;stroke-miterlimit:4;stroke-dasharray:none"
               d="m -516.60053,128.36502 c -0.32591,0.0602 -0.54665,0.35724 -0.53159,0.64831 -0.03,0.70735 -0.0601,1.41471 -0.0901,2.12206 0.10711,0.78026 0.34573,1.54502 0.71028,2.26008 0.32898,0.64398 0.73912,1.25174 1.15921,1.85055 0.77006,1.075 1.60949,2.10818 2.4395,3.14612 0.88229,1.07504 1.79737,2.14366 2.91614,3.03165 0.37276,0.29491 0.77357,0.5601 1.18434,0.81065 0.40139,0.18777 0.8777,0.20373 1.31166,0.10871 0.31785,-0.17543 0.35304,-0.5811 0.19744,-0.85917 -0.51325,-0.99072 -1.12483,-1.94196 -1.54445,-2.97033 -0.90738,-2.0232 -1.65748,-4.10217 -2.64106,-6.09789 -0.32037,-0.61299 -0.64968,-1.22576 -1.07481,-1.7871 -0.61376,-0.61565 -1.46522,-0.96682 -2.19132,-1.45708 -0.54931,-0.34975 -1.12507,-0.72675 -1.81013,-0.81182 z" />
            <path
               id="path121388"
               style="fill:#f4e3ed;fill-opacity:1;stroke:#000000;stroke-width:0.661458;stroke-linejoin:round;stroke-miterlimit:4;stroke-dasharray:none"
               d="m -523.13928,133.11323 c -0.66192,-0.0193 -0.94096,0.75401 -0.64435,1.20665 0.42852,1.83981 2.0999,3.20307 3.86745,4.07538 2.54761,1.2084 5.23655,2.17013 7.72174,3.48515 1.46838,0.62576 3.09246,0.93965 4.48328,1.71262 0.40117,0.1026 0.62632,-0.34553 0.46427,-0.63269 -0.25726,-0.83119 -1.20709,-1.25943 -2.08506,-1.41324 -0.72146,-0.14703 -1.44633,-0.3842 -1.95015,-0.89347 -1.18455,-0.99689 -2.02485,-2.26726 -3.17658,-3.29285 -1.74992,-1.73231 -3.79218,-3.40065 -6.35663,-4.0492 -0.75861,-0.1664 -1.545,-0.21328 -2.32397,-0.19835 z" />
            <path
               id="path121390"
               style="fill:#f4e3ed;fill-opacity:1;stroke:#000000;stroke-width:0.661458;stroke-linejoin:round;stroke-miterlimit:4;stroke-dasharray:none"
               d="m -496.10268,129.94834 c -2.27432,0.0683 -4.24333,1.39937 -5.55685,2.98334 -2.01898,2.42564 -3.58774,5.13007 -4.85432,7.92984 0.0192,0.6148 0.80036,0.85772 1.38007,0.86443 0.48339,0.14966 1.24549,0.28006 1.50181,-0.24608 0.26773,-0.65962 0.41751,-1.47286 1.1722,-1.83867 2.62723,-1.97827 5.23091,-4.18155 6.59922,-7.06411 0.29995,-0.72994 0.68816,-1.49267 0.59257,-2.28683 -0.12064,-0.29694 -0.51982,-0.38318 -0.8347,-0.34192 z" />
            <path
               id="path121392"
               style="fill:#f7db77;stroke:#000000;stroke-width:0.524482;stroke-linejoin:round;stroke-miterlimit:4;stroke-dasharray:none"
               d="m -506.46497,139.67447 c -1.35563,0.26668 -2.7243,0.47589 -4.08627,0.70961 -0.81128,0.14629 -1.78422,0.48694 -1.95597,1.30856 -0.15853,0.65985 -0.0353,1.53534 0.73099,1.8454 0.67896,0.28826 1.42437,0.45002 2.16249,0.56016 1.89006,0.20493 3.7566,-0.34644 5.47703,-0.99164 0.68296,-0.26789 1.27037,-0.947 0.99356,-1.63757 -0.3555,-0.92177 -1.42883,-1.41214 -2.39723,-1.70159 -0.30164,-0.0708 -0.61255,-0.10865 -0.9246,-0.0929 z" />
            <path
               id="path121394"
               style="fill:#f4e3ed;fill-opacity:1;stroke:#000000;stroke-width:0.661458;stroke-linejoin:round;stroke-miterlimit:4;stroke-dasharray:none"
               d="m -522.71119,139.26242 c -1.49134,0.1399 -3.14702,0.26813 -4.28292,1.25193 -0.41446,0.53106 0.24091,1.18888 0.86339,1.21027 2.525,0.72125 5.19742,0.79349 7.79121,1.20344 1.88706,0.12007 3.78201,-0.0357 5.66895,0.041 0.34572,-0.012 0.53134,-0.36908 0.3256,-0.61894 -0.45329,-0.82464 -1.51548,-1.1338 -2.40949,-1.43717 -1.08579,-0.31412 -2.14825,-0.68737 -3.2268,-1.01764 -1.52865,-0.42091 -3.12599,-0.68403 -4.72994,-0.63293 z" />
            <path
               id="path121396"
               style="fill:#f4e3ed;fill-opacity:1;stroke:#000000;stroke-width:0.661458;stroke-linejoin:round;stroke-miterlimit:4;stroke-dasharray:none"
               d="m -513.54325,142.6798 c -1.72276,0.23323 -3.62139,0.39449 -4.97119,1.49201 -0.74243,0.69079 -1.4705,1.44826 -1.79822,2.3795 0.10453,0.5521 0.88013,0.60114 1.36363,0.45953 2.96811,-0.27262 5.84728,-1.35175 8.10729,-3.10542 0.0653,-0.58277 -0.67472,-0.80312 -1.15148,-0.98897 -0.48855,-0.18178 -1.02269,-0.25583 -1.55003,-0.23665 z" />
            <path
               id="path121398"
               style="fill:#f4e3ed;fill-opacity:1;stroke:#000000;stroke-width:0.661458;stroke-linejoin:round;stroke-miterlimit:4;stroke-dasharray:none"
               d="m -493.96883,136.78131 c -1.33378,0.12383 -2.70338,0.29261 -3.90174,0.86794 -1.67068,0.71337 -3.3156,1.51208 -4.7423,2.57926 -0.27744,0.17253 -0.59486,0.36598 -0.66229,0.68524 -0.0828,0.25114 -0.0872,0.51552 -0.0942,0.77534 0.0665,0.25698 0.41778,0.41811 0.68808,0.31386 1.46019,-0.29262 2.9624,-0.33928 4.43549,-0.56093 1.01568,-0.14352 2.05417,-0.19916 3.04178,-0.47057 1.07591,-0.30622 2.05819,-0.86936 2.81536,-1.62081 0.57731,-0.53377 1.17804,-1.04925 1.70778,-1.62249 0.25803,-0.14949 0.15335,-0.59369 -0.1742,-0.58636 -0.96567,-0.10923 -1.9278,-0.24165 -2.8909,-0.36749 -0.0743,0.003 -0.14856,0.004 -0.22285,0.007 z" />
            <path
               id="path121400"
               style="fill:#f4e3ed;fill-opacity:1;stroke:#000000;stroke-width:0.661458;stroke-linejoin:round;stroke-miterlimit:4;stroke-dasharray:none"
               d="m -502.83767,141.97314 c -0.65604,0.24203 -1.28255,0.54246 -1.8981,0.85741 -0.21169,0.151 -0.25467,0.50957 0.015,0.63053 0.57093,0.35145 1.24914,0.51185 1.87725,0.75897 0.63814,0.22516 1.27531,0.45309 1.89803,0.71108 1.22585,0.34962 2.48709,0.59631 3.75905,0.76448 0.73334,0.0857 1.5036,0.10173 2.20304,-0.14553 0.69123,-0.21943 1.37114,-0.46648 2.06035,-0.69084 0.3397,-0.13029 0.71208,-0.36289 0.73696,-0.72416 0.0129,-0.35 -0.31901,-0.58941 -0.5884,-0.79429 -0.52058,-0.35254 -1.10873,-0.6127 -1.68164,-0.88824 -0.4095,-0.2127 -0.87958,-0.29705 -1.34713,-0.32215 -2.3083,-0.13703 -4.62262,-0.13894 -6.93476,-0.16954 -0.0332,0.004 -0.0665,0.008 -0.0997,0.0123 z" />
            <path
               id="path121402"
               style="fill:#f4e3ed;fill-opacity:1;stroke:#000000;stroke-width:0.661458;stroke-linejoin:round;stroke-miterlimit:4;stroke-dasharray:none"
               d="m -505.91373,143.33206 c -0.43983,0.0619 -0.87966,0.12391 -1.31948,0.18586 -0.32881,0.15155 -0.41952,0.52863 -0.36051,0.83172 0.1596,0.79839 0.40194,1.6102 0.93494,2.27849 0.33307,0.40371 0.83897,0.64254 1.3243,0.87002 0.66524,0.31871 1.29006,0.73182 2.03427,0.89296 0.44467,0.10624 0.89759,0.18224 1.34577,0.27481 0.23558,0.0373 0.48547,0.0181 0.70482,-0.0701 0.23962,-0.23813 0.21381,-0.59374 0.1212,-0.88196 -0.20722,-0.76738 -0.35561,-1.56728 -0.80146,-2.26013 -0.24282,-0.32836 -0.62938,-0.53671 -0.98912,-0.7487 -0.49695,-0.27643 -1.02397,-0.5219 -1.4485,-0.88898 -0.31869,-0.24594 -0.67422,-0.49521 -1.10641,-0.53829 -0.1466,0.0181 -0.29322,0.0363 -0.43982,0.0543 z" />
            <path
               id="path121404"
               style="fill:#f4e3ed;fill-opacity:1;stroke:#000000;stroke-width:0.661458;stroke-linejoin:round;stroke-miterlimit:4;stroke-dasharray:none"
               d="m -509.04138,143.64066 c -0.75841,-0.0267 -1.59771,0.0574 -2.1355,0.59439 -0.70125,0.5345 -1.38917,1.1379 -1.81299,1.87408 -0.27756,1.02264 0.33545,2.0134 0.85858,2.88482 0.29699,0.43809 0.65458,1.00522 1.27977,1.06066 0.83442,-0.088 1.24404,-0.8448 1.73097,-1.36503 0.88337,-1.07775 1.33366,-2.40086 1.37439,-3.73182 -0.005,-0.37854 0.0755,-0.84139 -0.19795,-1.15274 -0.30517,-0.22111 -0.73331,-0.16572 -1.09727,-0.16436 z" />
            <g
               id="g121426"
               transform="matrix(1.000849,0,0,0.89774225,41.718077,14.316714)">
              <path
                 id="path121406"
                 style="mix-blend-mode:normal;fill:#e7b4da;fill-opacity:1;stroke:#000000;stroke-width:1.5;stroke-linejoin:round;stroke-opacity:0;paint-order:stroke markers fill;filter:url(#filter44844)"
                 d="m -462.86914,172.10352 c -0.27154,0.005 -0.44885,0.27284 -0.49538,0.51581 -0.0811,0.50332 0.0252,1.01635 0.18483,1.49395 0.32396,2.20321 0.44587,4.4287 0.62193,6.64682 0.0736,0.89701 0.14481,1.7955 0.25784,2.68814 0.0254,0.20884 -0.0424,0.50729 0.16347,0.63884 0.30583,0.0532 0.36825,-0.37194 0.34473,-0.59804 0.0101,-1.30089 0.0808,-2.60039 0.13224,-3.90009 0.0615,-1.50238 0.13006,-3.00457 0.22979,-4.50497 -0.0254,-0.69441 -0.0441,-1.42861 -0.39648,-2.04882 -0.24304,-0.37981 -0.53716,-0.7704 -0.97656,-0.92969 l -0.0332,-0.006 z"
                 transform="matrix(1.0068218,0.06913994,-0.06913994,1.0068218,-70.579497,-12.961795)"
                 sodipodi:nodetypes="scccccccccccccccss" />
              <path
                 id="path121408"
                 style="mix-blend-mode:normal;fill:#e7b4da;fill-opacity:1;stroke:#000000;stroke-width:1.5;stroke-linejoin:round;stroke-opacity:0;paint-order:stroke markers fill;filter:url(#filter44844)"
                 d="m -462.66016,172.64062 c -0.68469,0.34422 -0.71495,1.25444 -0.47133,1.88749 0.36251,3.15732 0.61008,6.32607 0.86587,9.49337 0.25605,0.24159 0.65166,-0.20043 0.45507,-0.45703 0.0826,-3.12801 0.29766,-6.25687 0.22752,-9.38602 -0.0689,-0.61848 -0.2774,-1.37355 -0.94041,-1.58663 -0.0456,0.0163 -0.0911,0.0325 -0.13672,0.0488 z"
                 transform="matrix(0.57416167,-0.82994514,0.82994514,0.57416167,-441.48409,-349.01546)"
                 sodipodi:nodetypes="scccccccccccccccss" />
              <path
                 id="path121410"
                 style="mix-blend-mode:normal;fill:#e7b4da;fill-opacity:1;stroke:#000000;stroke-width:1.5;stroke-linejoin:round;stroke-opacity:0;paint-order:stroke markers fill;filter:url(#filter44844)"
                 d="m -462.52344,172.3125 c -0.66028,0.31154 -0.64001,1.20473 -0.39879,1.78835 0.6452,2.77716 0.44253,5.65107 0.59881,8.47672 0.0256,0.50431 0.0634,1.00775 0.11248,1.51032 0.38489,0.15355 0.50061,-0.39763 0.42409,-0.66689 0.23369,-2.73441 0.4418,-5.47285 0.59358,-8.21231 -0.008,-1.00154 -0.12241,-2.14917 -0.89974,-2.86612 -0.13187,-0.0724 -0.29186,-0.10265 -0.43043,-0.0301 z"
                 transform="matrix(0.14334443,-0.99896093,0.99896093,0.14334443,-671.33654,-345.79784)"
                 sodipodi:nodetypes="scccccccccccccccss" />
              <path
                 id="path121412"
                 style="mix-blend-mode:normal;fill:#e7b4da;fill-opacity:1;stroke:#000000;stroke-width:1.5;stroke-linejoin:round;stroke-opacity:0;paint-order:stroke markers fill;filter:url(#filter98648)"
                 d="m -458.68555,169.46094 c -3.27816,3.07645 -3.58187,7.83312 -5.3748,11.73083 -0.99579,2.68702 -2.11686,5.339 -2.80293,8.12854 0.77279,1.00728 1.9126,-0.24047 2.44293,-0.8908 2.86914,-3.0035 5.56009,-6.38944 6.91162,-10.36265 0.83111,-2.91276 0.80713,-6.25789 -0.86041,-8.88131 -0.10547,0.0918 -0.21094,0.18359 -0.31641,0.27539 z"
                 transform="matrix(-0.22179051,-0.24531103,0.24531103,-0.22179051,-703.57644,71.932444)"
                 sodipodi:nodetypes="cccc" />
              <path
                 id="path121414"
                 style="mix-blend-mode:normal;fill:#e7b4da;fill-opacity:1;stroke:#000000;stroke-width:1.5;stroke-linejoin:round;stroke-opacity:0;paint-order:stroke markers fill;filter:url(#filter100717)"
                 d="m -456.11914,164.45703 c -2.50702,0.93859 -4.19081,3.22594 -5.36524,5.53125 -1.25549,2.46219 -2.5396,4.98318 -2.91043,7.7574 -0.7167,3.81303 -1.07663,7.69839 -2.11886,11.44573 -0.70911,0.92839 0.61735,2.39195 1.60742,1.75586 1.53345,-1.18464 2.75264,-2.73199 3.76253,-4.37272 1.82814,-3.16175 2.26505,-6.86019 3.55702,-10.23486 1.06761,-2.93772 2.23282,-5.89497 2.48816,-9.03986 0.0721,-0.90347 0.30489,-2.06326 -0.45224,-2.74514 -0.16137,-0.11987 -0.37565,-0.16919 -0.56836,-0.0977 z"
                 transform="matrix(-0.11255777,0.25130711,-0.1877006,-0.05234724,-564.59594,271.5243)"
                 sodipodi:nodetypes="cccc" />
              <path
                 id="path121416"
                 style="mix-blend-mode:normal;fill:#e7b4da;fill-opacity:1;stroke:#000000;stroke-width:1.5;stroke-linejoin:round;stroke-opacity:0;paint-order:stroke markers fill;filter:url(#filter44844)"
                 d="m -462.60352,172.21094 c -0.78439,0.23555 -0.86874,1.25569 -0.5884,1.90611 0.43428,2.39856 0.46134,4.85252 0.68146,7.2778 0.0894,0.89227 0.13816,1.81049 0.32206,2.67935 0.24656,0.19243 0.54444,-0.18195 0.38328,-0.40726 0.0785,-3.12609 0.29277,-6.24956 0.32903,-9.37562 -0.0688,-0.7622 -0.23801,-1.70881 -0.99691,-2.07492 -0.0426,-0.0143 -0.087,-0.004 -0.13052,-0.005 z"
                 transform="matrix(0.80026361,0.61485666,-0.61485666,0.80026361,-63.224947,277.15777)"
                 sodipodi:nodetypes="scccccccccccccccss" />
              <path
                 id="path121418"
                 style="mix-blend-mode:normal;fill:#e7b4da;fill-opacity:1;stroke:#000000;stroke-width:1.5;stroke-linejoin:round;stroke-opacity:0;paint-order:stroke markers fill;filter:url(#filter44844)"
                 d="m -462.98633,171.58789 c -0.21632,0.27857 -0.21887,0.64683 -0.29466,0.97702 -0.21121,1.23809 -0.0225,2.50289 0.26788,3.71189 0.46678,1.8154 1.23103,3.53582 2.03732,5.22204 0.19234,0.39018 0.40115,0.77222 0.62423,1.14569 0.23879,-0.34807 0.24778,-0.78807 0.27355,-1.19442 0.0335,-0.92951 -0.14035,-1.8501 -0.31467,-2.75887 -0.36097,-1.78183 -0.87447,-3.53053 -1.17959,-5.32405 -0.14124,-0.65823 -0.54561,-1.24607 -1.08593,-1.64258 -0.11745,-0.0261 -0.19613,-0.16131 -0.32813,-0.13672 z"
                 transform="matrix(0.07840802,0.70960496,-0.70960496,0.07840802,-377.41677,453.41439)"
                 sodipodi:nodetypes="cccc" />
              <path
                 id="path121420"
                 style="mix-blend-mode:normal;fill:#e7b4da;fill-opacity:1;stroke:#000000;stroke-width:1.5;stroke-linejoin:round;stroke-opacity:0;paint-order:stroke markers fill;filter:url(#filter44844)"
                 d="m -463.0332,171.58203 c -0.42719,1.20425 -0.39458,2.51845 -0.17441,3.76134 0.31092,1.70587 0.92479,3.34291 1.67557,4.90103 0.33961,0.69497 0.68885,1.38563 0.99688,2.09544 0.22746,-0.25928 0.28378,-0.61334 0.35833,-0.93822 0.1542,-0.94164 -0.064,-1.88874 -0.23487,-2.8122 -0.34982,-1.7131 -0.83785,-3.39565 -1.14695,-5.11749 -0.0911,-0.48115 -0.27733,-0.95703 -0.62426,-1.31251 -0.21961,-0.24176 -0.48235,-0.44995 -0.78193,-0.58325 l -0.0352,-0.004 z"
                 transform="matrix(-0.31636765,0.70737678,-0.68124386,-0.26009486,-566.17148,516.32937)"
                 sodipodi:nodetypes="cccc" />
              <path
                 id="path121422"
                 style="mix-blend-mode:normal;fill:#e7b4da;fill-opacity:1;stroke:#000000;stroke-width:1.5;stroke-linejoin:round;stroke-opacity:0;paint-order:stroke markers fill;filter:url(#filter44844)"
                 d="m -462.42969,172.29688 c -0.36505,0.22513 -0.5234,0.65275 -0.64776,1.04222 -0.10487,0.35498 -0.0796,0.73651 0.007,1.09254 0.30086,3.18426 0.50334,6.37677 0.78711,9.5625 0.14556,0.2031 0.4633,0.0431 0.48956,-0.17359 0.007,-0.26146 -0.0485,-0.5235 -0.008,-0.78751 0.10881,-2.38122 0.20782,-4.76312 0.35506,-7.14234 0.0242,-0.47892 0.0954,-0.95773 0.0506,-1.43755 -0.031,-0.57241 -0.1472,-1.15566 -0.45062,-1.64985 -0.11014,-0.18796 -0.17912,-0.44461 -0.40344,-0.52791 -0.0628,-0.0266 -0.12588,-0.0221 -0.17969,0.0215 z"
                 transform="matrix(0.9071231,-0.44226489,0.44226489,0.9071231,-213.32437,-231.38015)"
                 sodipodi:nodetypes="scccccccccccccccss" />
              <path
                 id="path121424"
                 style="mix-blend-mode:normal;fill:#e7b4da;fill-opacity:1;stroke:#000000;stroke-width:1.5;stroke-linejoin:round;stroke-opacity:0;paint-order:stroke markers fill;filter:url(#filter55489)"
                 d="m -460.57617,171.16797 c -1.91508,0.95579 -1.9006,3.40662 -2.80614,5.10193 -1.6363,4.32209 -2.61463,8.87403 -3.10011,13.46448 0.5172,0.96077 1.53925,-0.25999 1.8508,-0.83605 2.76426,-4.0807 4.92666,-8.74885 5.04932,-13.75533 -0.0427,-1.26792 0.30283,-2.66013 -0.19895,-3.84417 -0.1822,-0.32227 -0.51265,-0.27468 -0.79492,-0.13086 z"
                 transform="matrix(-0.40108528,-0.0215585,-0.02708191,-0.28294918,-732.19519,188.21073)"
                 sodipodi:nodetypes="cccc" />
            </g>
          </g>
        </g>
      </g>
    </g>
  </g>
</svg>
