<?xml version="1.0" encoding="UTF-8" standalone="no"?>
<!-- Created with Inkscape (http://www.inkscape.org/) -->

<svg
   width="500"
   height="500"
   viewBox="0 0 132.29166 132.29167"
   version="1.1"
   id="svg11427"
   inkscape:version="1.1 (c68e22c387, 2021-05-23)"
   sodipodi:docname="poppy.svg"
   xmlns:inkscape="http://www.inkscape.org/namespaces/inkscape"
   xmlns:sodipodi="http://sodipodi.sourceforge.net/DTD/sodipodi-0.dtd"
   xmlns="http://www.w3.org/2000/svg"
   xmlns:svg="http://www.w3.org/2000/svg">
  <sodipodi:namedview
     id="namedview11429"
     pagecolor="#ffffff"
     bordercolor="#999999"
     borderopacity="1"
     inkscape:pageshadow="0"
     inkscape:pageopacity="0"
     inkscape:pagecheckerboard="0"
     inkscape:document-units="mm"
     showgrid="false"
     units="px"
     inkscape:zoom="0.45858772"
     inkscape:cx="596.39626"
     inkscape:cy="293.29176"
     inkscape:window-width="1920"
     inkscape:window-height="1001"
     inkscape:window-x="-9"
     inkscape:window-y="-9"
     inkscape:window-maximized="1"
     inkscape:current-layer="layer1" />
  <defs
     id="defs11424" />
  <g
     inkscape:label="Layer 1"
     inkscape:groupmode="layer"
     id="layer1">
    <g
       id="g1315"
       transform="translate(-123.09458,-65.976283)">
      <ellipse
         style="display:inline;fill:#ecf0c6;fill-opacity:1;stroke:#000000;stroke-width:0.79375;stroke-miterlimit:4;stroke-dasharray:none;stroke-opacity:1"
         id="ellipse2475-6"
         cx="189.24042"
         cy="132.12212"
         rx="65.619385"
         ry="65.619392"
         inkscape:export-filename="C:\Users\Anna Pedersen\Desktop\path4850.png"
         inkscape:export-xdpi="96"
         inkscape:export-ydpi="96" />
      <g
         id="g5980"
         transform="translate(272.0823,-304.87073)">
        <rect
           style="opacity:0.745887;fill:#005600;fill-opacity:1;stroke:#000000;stroke-width:0.264583;stroke-miterlimit:4;stroke-dasharray:none"
           id="rect5753"
           width="3.8351874"
           height="63.63102"
           x="-85.91394"
           y="423.69626"
           ry="0" />
        <g
           id="g5775"
           transform="translate(141.47096,61.430348)"
           style="stroke-width:0.264583;stroke-miterlimit:4;stroke-dasharray:none">
          <path
             id="path5755"
             style="fill:#69853b;fill-opacity:1;stroke:#000000;stroke-width:0.264583;stroke-linecap:butt;stroke-linejoin:miter;stroke-miterlimit:4;stroke-dasharray:none;stroke-opacity:1"
             d="m -225.37143,330.49696 -5.64593,0.19485 c -0.12059,3.169 -7.56672,4.88926 -7.56672,15.24984 0,9.08005 11.69931,8.96364 11.69931,11.64109 0,4.0744 -1.86258,1.33874 -1.86258,3.60875 0,1.33872 0.93129,1.04769 3.37592,1.04769 2.44463,0 3.37592,0.29103 3.37592,-1.04769 0,-2.27002 -1.86258,0.46564 -1.86258,-3.60875 0,-2.67745 11.69931,-2.56104 11.69931,-11.64109 0,-10.36057 -7.44613,-12.08084 -7.56672,-15.24984 z" />
          <path
             id="path5757"
             style="fill:#d4ff2a;stroke:#000000;stroke-width:0.264583;stroke-linecap:butt;stroke-linejoin:miter;stroke-miterlimit:4;stroke-dasharray:none;stroke-opacity:1"
             d="m -226.61966,326.51853 c -0.77103,0.0186 -0.53499,3.90818 -0.53499,3.90818 0,0 -0.71679,-3.65057 -1.41604,-3.63102 -0.94982,0.0265 -0.34491,3.47823 -0.34491,3.47823 0,0 -1.93161,-3.31366 -2.7136,-2.9844 -0.78199,0.32927 1.5881,2.99569 1.30576,3.20744 0,0 -2.77907,-1.99766 -2.9437,-1.62725 -0.16463,0.37042 2.08358,2.0995 2.08358,2.0995 h 5.81213 5.81191 c 0,0 2.24843,-1.72908 2.0838,-2.0995 -0.16463,-0.37041 -2.94392,1.62725 -2.94392,1.62725 -0.28235,-0.21175 2.08775,-2.87817 1.30576,-3.20744 -0.782,-0.32926 -2.71338,2.9844 -2.71338,2.9844 0,0 0.60468,-3.4517 -0.34514,-3.47823 -0.69925,-0.0195 -1.41603,3.63102 -1.41603,3.63102 0,0 0.25156,-4.14444 -0.61275,-3.89749 -0.86431,0.24694 -1.17025,3.96774 -1.17025,3.96774 0,0 -0.30617,-3.7208 -1.17047,-3.96774 -0.027,-0.008 -0.0529,-0.0113 -0.0778,-0.0107 z" />
          <path
             style="fill:#f4eed7;stroke:#000000;stroke-width:0.264583;stroke-linecap:butt;stroke-linejoin:miter;stroke-miterlimit:4;stroke-dasharray:none;stroke-opacity:1"
             d="m -219.63175,336.67835 c 0,0 2.11182,2.36629 0.68002,2.64105 -1.4318,0.27476 -0.68002,-2.64105 -0.68002,-2.64105 z"
             id="path5759" />
          <path
             style="fill:#f4eed7;stroke:#000000;stroke-width:0.264583;stroke-linecap:butt;stroke-linejoin:miter;stroke-miterlimit:4;stroke-dasharray:none;stroke-opacity:1"
             d="m -218.49135,341.89908 c 0,0 2.50256,4.02489 0.19757,4.02489 -2.305,0 -0.19757,-4.02489 -0.19757,-4.02489 z"
             id="path5761" />
          <path
             style="fill:#f4eed7;stroke:#000000;stroke-width:0.264583;stroke-linecap:butt;stroke-linejoin:miter;stroke-miterlimit:4;stroke-dasharray:none;stroke-opacity:1"
             d="m -225.08991,347.44423 c 0,0 -1.39008,4.1867 0.3645,3.95727 1.75457,-0.22942 -0.3645,-3.95727 -0.3645,-3.95727 z"
             id="path5763" />
          <path
             style="fill:#f4eed7;stroke:#000000;stroke-width:0.264583;stroke-linecap:butt;stroke-linejoin:miter;stroke-miterlimit:4;stroke-dasharray:none;stroke-opacity:1"
             d="m -225.08448,342.21046 c 0,0 -1.4076,2.63004 -0.0737,2.61425 1.33385,-0.0158 0.0737,-2.61425 0.0737,-2.61425 z"
             id="path5765" />
          <path
             style="fill:#f4eed7;stroke:#000000;stroke-width:0.264583;stroke-linecap:butt;stroke-linejoin:miter;stroke-miterlimit:4;stroke-dasharray:none;stroke-opacity:1"
             d="m -225.12564,336.57188 c 0,0 -1.40759,2.63004 -0.0737,2.61426 1.33385,-0.0158 0.0737,-2.61426 0.0737,-2.61426 z"
             id="path5767" />
          <path
             style="fill:#f4eed7;stroke:#000000;stroke-width:0.264583;stroke-linecap:butt;stroke-linejoin:miter;stroke-miterlimit:4;stroke-dasharray:none;stroke-opacity:1"
             d="m -229.71117,333.12434 c 0,0 -2.54051,2.50163 -1.20845,2.98311 1.33208,0.48147 1.20845,-2.98311 1.20845,-2.98311 z"
             id="path5769" />
          <path
             style="fill:#f4eed7;stroke:#000000;stroke-width:0.264583;stroke-linecap:butt;stroke-linejoin:miter;stroke-miterlimit:4;stroke-dasharray:none;stroke-opacity:1"
             d="m -233.10901,339.04668 c 0,0 -1.99595,2.95441 -0.595,3.16311 1.40096,0.20868 0.595,-3.16311 0.595,-3.16311 z"
             id="path5771" />
          <path
             style="fill:#f4eed7;stroke:#000000;stroke-width:0.264583;stroke-linecap:butt;stroke-linejoin:miter;stroke-miterlimit:4;stroke-dasharray:none;stroke-opacity:1"
             d="m -233.70328,346.17694 c 0,0 -0.96129,4.13921 0.83091,3.7435 1.79221,-0.39574 -0.83091,-3.7435 -0.83091,-3.7435 z"
             id="path5773" />
        </g>
        <rect
           style="opacity:0.561801;fill:#005600;fill-opacity:1;stroke:#000000;stroke-width:0.264587;stroke-miterlimit:4;stroke-dasharray:none"
           id="rect5779"
           width="2.3200259"
           height="48.202465"
           x="-185.23854"
           y="409.40955"
           ry="0"
           transform="matrix(0.98363774,-0.18015771,0.17269554,0.98497525,0,0)" />
        <g
           id="g5801"
           transform="matrix(0.59503354,-0.10898309,0.13082221,0.74614922,-23.595189,141.54488)"
           style="opacity:0.753199;stroke-width:0.390855;stroke-miterlimit:4;stroke-dasharray:none">
          <path
             id="path5781"
             style="fill:#69853b;fill-opacity:1;stroke:#000000;stroke-width:0.390855;stroke-linecap:butt;stroke-linejoin:miter;stroke-miterlimit:4;stroke-dasharray:none;stroke-opacity:1"
             d="m -225.37143,330.49696 -5.64593,0.19485 c -0.12059,3.169 -7.56672,4.88926 -7.56672,15.24984 0,9.08005 11.69931,8.96364 11.69931,11.64109 0,4.0744 -1.86258,1.33874 -1.86258,3.60875 0,1.33872 0.93129,1.04769 3.37592,1.04769 2.44463,0 3.37592,0.29103 3.37592,-1.04769 0,-2.27002 -1.86258,0.46564 -1.86258,-3.60875 0,-2.67745 11.69931,-2.56104 11.69931,-11.64109 0,-10.36057 -7.44613,-12.08084 -7.56672,-15.24984 z" />
          <path
             id="path5783"
             style="fill:#d4ff2a;stroke:#000000;stroke-width:0.390855;stroke-linecap:butt;stroke-linejoin:miter;stroke-miterlimit:4;stroke-dasharray:none;stroke-opacity:1"
             d="m -226.61966,326.51853 c -0.77103,0.0186 -0.53499,3.90818 -0.53499,3.90818 0,0 -0.71679,-3.65057 -1.41604,-3.63102 -0.94982,0.0265 -0.34491,3.47823 -0.34491,3.47823 0,0 -1.93161,-3.31366 -2.7136,-2.9844 -0.78199,0.32927 1.5881,2.99569 1.30576,3.20744 0,0 -2.77907,-1.99766 -2.9437,-1.62725 -0.16463,0.37042 2.08358,2.0995 2.08358,2.0995 h 5.81213 5.81191 c 0,0 2.24843,-1.72908 2.0838,-2.0995 -0.16463,-0.37041 -2.94392,1.62725 -2.94392,1.62725 -0.28235,-0.21175 2.08775,-2.87817 1.30576,-3.20744 -0.782,-0.32926 -2.71338,2.9844 -2.71338,2.9844 0,0 0.60468,-3.4517 -0.34514,-3.47823 -0.69925,-0.0195 -1.41603,3.63102 -1.41603,3.63102 0,0 0.25156,-4.14444 -0.61275,-3.89749 -0.86431,0.24694 -1.17025,3.96774 -1.17025,3.96774 0,0 -0.30617,-3.7208 -1.17047,-3.96774 -0.027,-0.008 -0.0529,-0.0113 -0.0778,-0.0107 z" />
          <path
             style="fill:#f4eed7;stroke:#000000;stroke-width:0.390855;stroke-linecap:butt;stroke-linejoin:miter;stroke-miterlimit:4;stroke-dasharray:none;stroke-opacity:1"
             d="m -219.63175,336.67835 c 0,0 2.11182,2.36629 0.68002,2.64105 -1.4318,0.27476 -0.68002,-2.64105 -0.68002,-2.64105 z"
             id="path5785" />
          <path
             style="fill:#f4eed7;stroke:#000000;stroke-width:0.390855;stroke-linecap:butt;stroke-linejoin:miter;stroke-miterlimit:4;stroke-dasharray:none;stroke-opacity:1"
             d="m -218.49135,341.89908 c 0,0 2.50256,4.02489 0.19757,4.02489 -2.305,0 -0.19757,-4.02489 -0.19757,-4.02489 z"
             id="path5787" />
          <path
             style="fill:#f4eed7;stroke:#000000;stroke-width:0.390855;stroke-linecap:butt;stroke-linejoin:miter;stroke-miterlimit:4;stroke-dasharray:none;stroke-opacity:1"
             d="m -225.08991,347.44423 c 0,0 -1.39008,4.1867 0.3645,3.95727 1.75457,-0.22942 -0.3645,-3.95727 -0.3645,-3.95727 z"
             id="path5789" />
          <path
             style="fill:#f4eed7;stroke:#000000;stroke-width:0.390855;stroke-linecap:butt;stroke-linejoin:miter;stroke-miterlimit:4;stroke-dasharray:none;stroke-opacity:1"
             d="m -225.08448,342.21046 c 0,0 -1.4076,2.63004 -0.0737,2.61425 1.33385,-0.0158 0.0737,-2.61425 0.0737,-2.61425 z"
             id="path5791" />
          <path
             style="fill:#f4eed7;stroke:#000000;stroke-width:0.390855;stroke-linecap:butt;stroke-linejoin:miter;stroke-miterlimit:4;stroke-dasharray:none;stroke-opacity:1"
             d="m -225.12564,336.57188 c 0,0 -1.40759,2.63004 -0.0737,2.61426 1.33385,-0.0158 0.0737,-2.61426 0.0737,-2.61426 z"
             id="path5793" />
          <path
             style="fill:#f4eed7;stroke:#000000;stroke-width:0.390855;stroke-linecap:butt;stroke-linejoin:miter;stroke-miterlimit:4;stroke-dasharray:none;stroke-opacity:1"
             d="m -229.71117,333.12434 c 0,0 -2.54051,2.50163 -1.20845,2.98311 1.33208,0.48147 1.20845,-2.98311 1.20845,-2.98311 z"
             id="path5795" />
          <path
             style="fill:#f4eed7;stroke:#000000;stroke-width:0.390855;stroke-linecap:butt;stroke-linejoin:miter;stroke-miterlimit:4;stroke-dasharray:none;stroke-opacity:1"
             d="m -233.10901,339.04668 c 0,0 -1.99595,2.95441 -0.595,3.16311 1.40096,0.20868 0.595,-3.16311 0.595,-3.16311 z"
             id="path5797" />
          <path
             style="fill:#f4eed7;stroke:#000000;stroke-width:0.390855;stroke-linecap:butt;stroke-linejoin:miter;stroke-miterlimit:4;stroke-dasharray:none;stroke-opacity:1"
             d="m -233.70328,346.17694 c 0,0 -0.96129,4.13921 0.83091,3.7435 1.79221,-0.39574 -0.83091,-3.7435 -0.83091,-3.7435 z"
             id="path5799" />
        </g>
        <rect
           style="opacity:0.380443;fill:#005600;fill-opacity:1;stroke:#000000;stroke-width:0.264583;stroke-miterlimit:4;stroke-dasharray:none"
           id="rect5805"
           width="2.9393373"
           height="48.767635"
           x="-9.6061411"
           y="439.19928"
           ry="0"
           transform="rotate(6.3851505)" />
        <g
           id="g5827"
           transform="matrix(0.76165868,0.08523383,-0.08523383,0.76165868,145.67649,178.86443)"
           style="opacity:0.510055;stroke-width:0.345223;stroke-miterlimit:4;stroke-dasharray:none">
          <path
             id="path5807"
             style="fill:#69853b;fill-opacity:1;stroke:#000000;stroke-width:0.345223;stroke-linecap:butt;stroke-linejoin:miter;stroke-miterlimit:4;stroke-dasharray:none;stroke-opacity:1"
             d="m -225.37143,330.49696 -5.64593,0.19485 c -0.12059,3.169 -7.56672,4.88926 -7.56672,15.24984 0,9.08005 11.69931,8.96364 11.69931,11.64109 0,4.0744 -1.86258,1.33874 -1.86258,3.60875 0,1.33872 0.93129,1.04769 3.37592,1.04769 2.44463,0 3.37592,0.29103 3.37592,-1.04769 0,-2.27002 -1.86258,0.46564 -1.86258,-3.60875 0,-2.67745 11.69931,-2.56104 11.69931,-11.64109 0,-10.36057 -7.44613,-12.08084 -7.56672,-15.24984 z" />
          <path
             id="path5809"
             style="fill:#d4ff2a;stroke:#000000;stroke-width:0.345223;stroke-linecap:butt;stroke-linejoin:miter;stroke-miterlimit:4;stroke-dasharray:none;stroke-opacity:1"
             d="m -226.61966,326.51853 c -0.77103,0.0186 -0.53499,3.90818 -0.53499,3.90818 0,0 -0.71679,-3.65057 -1.41604,-3.63102 -0.94982,0.0265 -0.34491,3.47823 -0.34491,3.47823 0,0 -1.93161,-3.31366 -2.7136,-2.9844 -0.78199,0.32927 1.5881,2.99569 1.30576,3.20744 0,0 -2.77907,-1.99766 -2.9437,-1.62725 -0.16463,0.37042 2.08358,2.0995 2.08358,2.0995 h 5.81213 5.81191 c 0,0 2.24843,-1.72908 2.0838,-2.0995 -0.16463,-0.37041 -2.94392,1.62725 -2.94392,1.62725 -0.28235,-0.21175 2.08775,-2.87817 1.30576,-3.20744 -0.782,-0.32926 -2.71338,2.9844 -2.71338,2.9844 0,0 0.60468,-3.4517 -0.34514,-3.47823 -0.69925,-0.0195 -1.41603,3.63102 -1.41603,3.63102 0,0 0.25156,-4.14444 -0.61275,-3.89749 -0.86431,0.24694 -1.17025,3.96774 -1.17025,3.96774 0,0 -0.30617,-3.7208 -1.17047,-3.96774 -0.027,-0.008 -0.0529,-0.0113 -0.0778,-0.0107 z" />
          <path
             style="fill:#f4eed7;stroke:#000000;stroke-width:0.345223;stroke-linecap:butt;stroke-linejoin:miter;stroke-miterlimit:4;stroke-dasharray:none;stroke-opacity:1"
             d="m -219.63175,336.67835 c 0,0 2.11182,2.36629 0.68002,2.64105 -1.4318,0.27476 -0.68002,-2.64105 -0.68002,-2.64105 z"
             id="path5811" />
          <path
             style="fill:#f4eed7;stroke:#000000;stroke-width:0.345223;stroke-linecap:butt;stroke-linejoin:miter;stroke-miterlimit:4;stroke-dasharray:none;stroke-opacity:1"
             d="m -218.49135,341.89908 c 0,0 2.50256,4.02489 0.19757,4.02489 -2.305,0 -0.19757,-4.02489 -0.19757,-4.02489 z"
             id="path5813" />
          <path
             style="fill:#f4eed7;stroke:#000000;stroke-width:0.345223;stroke-linecap:butt;stroke-linejoin:miter;stroke-miterlimit:4;stroke-dasharray:none;stroke-opacity:1"
             d="m -225.08991,347.44423 c 0,0 -1.39008,4.1867 0.3645,3.95727 1.75457,-0.22942 -0.3645,-3.95727 -0.3645,-3.95727 z"
             id="path5815" />
          <path
             style="fill:#f4eed7;stroke:#000000;stroke-width:0.345223;stroke-linecap:butt;stroke-linejoin:miter;stroke-miterlimit:4;stroke-dasharray:none;stroke-opacity:1"
             d="m -225.08448,342.21046 c 0,0 -1.4076,2.63004 -0.0737,2.61425 1.33385,-0.0158 0.0737,-2.61425 0.0737,-2.61425 z"
             id="path5817" />
          <path
             style="fill:#f4eed7;stroke:#000000;stroke-width:0.345223;stroke-linecap:butt;stroke-linejoin:miter;stroke-miterlimit:4;stroke-dasharray:none;stroke-opacity:1"
             d="m -225.12564,336.57188 c 0,0 -1.40759,2.63004 -0.0737,2.61426 1.33385,-0.0158 0.0737,-2.61426 0.0737,-2.61426 z"
             id="path5819" />
          <path
             style="fill:#f4eed7;stroke:#000000;stroke-width:0.345223;stroke-linecap:butt;stroke-linejoin:miter;stroke-miterlimit:4;stroke-dasharray:none;stroke-opacity:1"
             d="m -229.71117,333.12434 c 0,0 -2.54051,2.50163 -1.20845,2.98311 1.33208,0.48147 1.20845,-2.98311 1.20845,-2.98311 z"
             id="path5821" />
          <path
             style="fill:#f4eed7;stroke:#000000;stroke-width:0.345223;stroke-linecap:butt;stroke-linejoin:miter;stroke-miterlimit:4;stroke-dasharray:none;stroke-opacity:1"
             d="m -233.10901,339.04668 c 0,0 -1.99595,2.95441 -0.595,3.16311 1.40096,0.20868 0.595,-3.16311 0.595,-3.16311 z"
             id="path5823" />
          <path
             style="fill:#f4eed7;stroke:#000000;stroke-width:0.345223;stroke-linecap:butt;stroke-linejoin:miter;stroke-miterlimit:4;stroke-dasharray:none;stroke-opacity:1"
             d="m -233.70328,346.17694 c 0,0 -0.96129,4.13921 0.83091,3.7435 1.79221,-0.39574 -0.83091,-3.7435 -0.83091,-3.7435 z"
             id="path5825" />
        </g>
      </g>
    </g>
  </g>
</svg>
