<?xml version="1.0" encoding="UTF-8" standalone="no"?>
<!-- Created with Inkscape (http://www.inkscape.org/) -->

<svg
   width="500"
   height="500"
   viewBox="0 0 132.29166 132.29167"
   version="1.1"
   id="svg8149"
   inkscape:version="1.1 (c68e22c387, 2021-05-23)"
   sodipodi:docname="Tobacco.svg"
   xmlns:inkscape="http://www.inkscape.org/namespaces/inkscape"
   xmlns:sodipodi="http://sodipodi.sourceforge.net/DTD/sodipodi-0.dtd"
   xmlns:xlink="http://www.w3.org/1999/xlink"
   xmlns="http://www.w3.org/2000/svg"
   xmlns:svg="http://www.w3.org/2000/svg">
  <sodipodi:namedview
     id="namedview8151"
     pagecolor="#ffffff"
     bordercolor="#999999"
     borderopacity="1"
     inkscape:pageshadow="0"
     inkscape:pageopacity="0"
     inkscape:pagecheckerboard="0"
     inkscape:document-units="mm"
     showgrid="false"
     units="px"
     inkscape:zoom="0.69397447"
     inkscape:cx="92.942901"
     inkscape:cy="306.20723"
     inkscape:window-width="1920"
     inkscape:window-height="1001"
     inkscape:window-x="-9"
     inkscape:window-y="-9"
     inkscape:window-maximized="1"
     inkscape:current-layer="layer1" />
  <defs
     id="defs8146">
    <radialGradient
       inkscape:collect="always"
       xlink:href="#linearGradient12357"
       id="radialGradient19935"
       gradientUnits="userSpaceOnUse"
       gradientTransform="matrix(0.99999988,0,0,0.96720271,-8.4157288e-5,94.077783)"
       cx="-721.03912"
       cy="2878.792"
       fx="-721.03912"
       fy="2878.792"
       r="130.7336" />
    <linearGradient
       inkscape:collect="always"
       id="linearGradient12357">
      <stop
         style="stop-color:#9bc297;stop-opacity:1;"
         offset="0"
         id="stop12353" />
      <stop
         style="stop-color:#91ce8b;stop-opacity:1"
         offset="1"
         id="stop12355" />
    </linearGradient>
    <filter
       inkscape:collect="always"
       style="color-interpolation-filters:sRGB"
       id="filter13170"
       x="-0.85603306"
       y="-0.85603306"
       width="2.7120661"
       height="2.7120661">
      <feGaussianBlur
         inkscape:collect="always"
         stdDeviation="3.7982221"
         id="feGaussianBlur13172" />
    </filter>
    <radialGradient
       inkscape:collect="always"
       xlink:href="#linearGradient12357"
       id="radialGradient19933"
       gradientUnits="userSpaceOnUse"
       gradientTransform="matrix(0.99999988,0,0,0.96720271,-8.4157316e-5,94.077783)"
       cx="-721.03912"
       cy="2878.792"
       fx="-721.03912"
       fy="2878.792"
       r="130.7336" />
    <radialGradient
       inkscape:collect="always"
       xlink:href="#linearGradient12357"
       id="radialGradient19931"
       gradientUnits="userSpaceOnUse"
       gradientTransform="matrix(0.99999988,0,0,0.96720271,-8.4157286e-5,94.077783)"
       cx="-721.03912"
       cy="2878.792"
       fx="-721.03912"
       fy="2878.792"
       r="130.7336" />
    <radialGradient
       inkscape:collect="always"
       xlink:href="#linearGradient12357"
       id="radialGradient19929"
       gradientUnits="userSpaceOnUse"
       gradientTransform="matrix(0.99999988,0,0,0.96720271,-8.415732e-5,94.077783)"
       cx="-721.03912"
       cy="2878.792"
       fx="-721.03912"
       fy="2878.792"
       r="130.7336" />
  </defs>
  <g
     inkscape:label="Layer 1"
     inkscape:groupmode="layer"
     id="layer1">
    <ellipse
       style="display:inline;fill:#ecf0c6;fill-opacity:1;stroke:#000000;stroke-width:0.79375;stroke-miterlimit:4;stroke-dasharray:none;stroke-opacity:1"
       id="ellipse13644"
       cx="66.145836"
       cy="66.145836"
       rx="65.619385"
       ry="65.619392"
       inkscape:export-filename="C:\Users\Anna Pedersen\Desktop\path4850.png"
       inkscape:export-xdpi="96"
       inkscape:export-ydpi="96" />
    <g
       id="g8953">
      <path
         style="fill:#427827;fill-opacity:1;stroke:#000000;stroke-width:0.26697;stroke-linecap:butt;stroke-linejoin:miter;stroke-miterlimit:4;stroke-dasharray:none;stroke-opacity:1;paint-order:markers fill stroke"
         d="m 64.712156,75.082246 c 4.773361,-0.507282 4.612431,-8.520832 11.788837,-11.249964 6.033186,-2.294278 8.252677,7.770648 11.345468,8.362301 -2.914573,0.199753 -8.316629,-3.094256 -10.624265,-2.285706 -6.322435,2.215301 -8.775668,3.19105 -11.313108,6.316993 z"
         id="path19925"
         sodipodi:nodetypes="cscscc"
         inkscape:transform-center-x="4.7857483"
         inkscape:transform-center-y="-12.048535" />
      <path
         style="fill:#376521;fill-opacity:1;stroke:#000000;stroke-width:0.26697;stroke-linecap:butt;stroke-linejoin:miter;stroke-miterlimit:4;stroke-dasharray:none;stroke-opacity:1;paint-order:markers fill stroke"
         d="m 66.180431,102.34833 c 6.912671,-3.676948 1.885409,-14.974395 11.104252,-23.298941 7.750269,-6.998313 18.996901,-0.06357 24.649087,-0.105078 -8.530363,4.262342 0.83264,1.476 -13.103065,14.993757 -7.777362,7.544122 -18.188737,3.278695 -20.158265,9.295572 z"
         id="path19819"
         sodipodi:nodetypes="cscscc"
         inkscape:transform-center-x="5.6619293"
         inkscape:transform-center-y="-4.0425348" />
      <path
         style="fill:#427827;fill-opacity:1;stroke:#000000;stroke-width:0.26697;stroke-linecap:butt;stroke-linejoin:miter;stroke-miterlimit:4;stroke-dasharray:none;stroke-opacity:1;paint-order:markers fill stroke"
         d="m 66.180431,102.34833 c 6.912671,-3.676948 7.471336,-7.226187 16.690179,-15.550734 7.750269,-6.998312 13.410974,-7.811774 19.06316,-7.853285 -8.530363,4.262342 0.83264,1.476 -13.103065,14.993757 -7.777362,7.544122 -18.188737,3.278695 -20.158265,9.295572 z"
         id="path22519"
         sodipodi:nodetypes="cscscc"
         inkscape:transform-center-x="5.6619341"
         inkscape:transform-center-y="-4.0425348" />
      <path
         style="fill:#376521;fill-opacity:1;stroke:#000000;stroke-width:0.26697;stroke-linecap:butt;stroke-linejoin:miter;stroke-miterlimit:4;stroke-dasharray:none;stroke-opacity:1;paint-order:markers fill stroke"
         d="M 67.316706,90.999165 C 61.09513,86.957862 66.344963,75.958023 58.225323,67.155474 51.399161,59.755246 38.306579,61.277091 34.887835,65.947706 c 5.662612,-2.116484 3.81019,3.060931 12.185262,12.249311 7.040219,7.72384 16.371277,7.441931 17.885986,13.550984 z"
         id="path19809"
         sodipodi:nodetypes="cscscc"
         inkscape:transform-center-x="-5.5450792"
         inkscape:transform-center-y="-3.970625" />
      <path
         style="fill:#427827;fill-opacity:1;stroke:#000000;stroke-width:0.26697;stroke-linecap:butt;stroke-linejoin:miter;stroke-miterlimit:4;stroke-dasharray:none;stroke-opacity:1;paint-order:markers fill stroke"
         d="M 67.316706,90.999165 C 61.09513,86.957862 64.624866,79.079631 56.505226,70.277082 49.679064,62.876854 38.306579,61.277091 34.887835,65.947706 c 5.662612,-2.116484 3.81019,3.060931 12.185262,12.249311 7.040219,7.72384 16.371277,7.441931 17.885986,13.550984 z"
         id="path23097"
         sodipodi:nodetypes="cscscc"
         inkscape:transform-center-x="-5.5450792"
         inkscape:transform-center-y="-3.970625" />
      <path
         style="fill:#427827;fill-opacity:1;stroke:#000000;stroke-width:0.26697;stroke-linecap:butt;stroke-linejoin:miter;stroke-miterlimit:4;stroke-dasharray:none;stroke-opacity:1;paint-order:markers fill stroke"
         d="m 70.092106,36.374629 1.219249,-0.597817 c 1.772241,13.337554 -5.222663,27.744378 -5.472586,41.332828 -0.249942,13.58845 5.40379,29.07928 3.503741,43.92192 l -3.386922,0.5017 C 67.477269,105.06003 63.560942,90.454899 63.441552,76.740953 63.322172,63.027199 71.309718,51.844558 70.092106,36.374629 Z"
         id="path19821"
         sodipodi:nodetypes="ccsccsc" />
      <path
         style="fill:#427827;fill-opacity:1;stroke:#000000;stroke-width:0.26697;stroke-linecap:butt;stroke-linejoin:miter;stroke-miterlimit:4;stroke-dasharray:none;stroke-opacity:1;paint-order:markers fill stroke"
         d="M 69.023473,105.08257 C 59.249094,104.31312 59.17189,88.666844 44.377212,83.672521 31.939369,79.473841 27.916268,99.21873 21.629787,100.51626 c 5.96256,0.25533 6.209459,-12.145194 21.532463,-6.870599 12.880798,4.433876 18.13404,7.740789 23.474629,13.723959 z"
         id="path19823"
         sodipodi:nodetypes="cscscc"
         inkscape:transform-center-x="-9.8556411"
         inkscape:transform-center-y="-24.441894" />
      <g
         id="g79155"
         transform="matrix(0.96313242,0,0,0.96313242,-423.06733,-1101.65)">
        <path
           style="fill:#376521;fill-opacity:1;stroke:#000000;stroke-width:0.277283;stroke-linecap:butt;stroke-linejoin:miter;stroke-miterlimit:4;stroke-dasharray:none;stroke-opacity:1;paint-order:markers fill stroke"
           d="m 507.94502,1229.098 c -9.13637,-0.3687 -14.76318,0.9726 -16.74834,4.2933 -1.21588,2.0339 4.18677,5.2493 6.54528,6.4797 -0.59496,-2.8413 15.12487,-0.896 16.9092,-5.5297 1.75194,-4.5494 -5.91782,-3.4854 -6.70614,-5.2433 z"
           id="path19927"
           sodipodi:nodetypes="cscsc" />
        <path
           style="fill:#427827;fill-opacity:1;stroke:#000000;stroke-width:0.277283;stroke-linecap:butt;stroke-linejoin:miter;stroke-miterlimit:4;stroke-dasharray:none;stroke-opacity:1;paint-order:markers fill stroke"
           d="m 507.94502,1229.098 c -1.26502,0.2266 -5.23818,0.3111 -7.22334,3.6318 -1.21588,2.0339 -2.42781,3.4634 -2.97972,7.1412 0.72796,-3.172 15.12487,-0.896 16.9092,-5.5297 1.75194,-4.5494 -5.91782,-3.4854 -6.70614,-5.2433 z"
           id="path22677"
           sodipodi:nodetypes="cscsc" />
      </g>
      <g
         id="g19817"
         transform="matrix(-0.15075657,-0.14261484,0.14884252,-0.1444488,8.4096968,153.25604)"
         style="fill:#a0c58e;fill-opacity:1;stroke-width:1.22884;stroke-miterlimit:4;stroke-dasharray:none;paint-order:markers fill stroke">
        <path
           id="path19811"
           style="fill:#a0c58e;fill-opacity:1;stroke:#000000;stroke-width:1.22884;stroke-linecap:butt;stroke-linejoin:miter;stroke-miterlimit:4;stroke-dasharray:none;stroke-opacity:1;paint-order:markers fill stroke"
           d="m 199.41368,531.38271 c -4.41305,-2.60687 -9.05854,3.58388 -9.57929,5.73619 -2.81753,-5.82268 -6.8353,-5.91062 -10.88609,-7.8213 0.95345,3.77696 -3.51042,3.37314 0.083,10.54464 -2.462,-2.85339 -7.42091,-4.25793 -12.60491,1.2281 10.52389,3.3219 12.95879,12.95421 22.29124,19.48381 9.33247,6.52959 7.34051,14.6466 7.34051,14.6466 l 4.42225,-0.52692 -2.37598,-15.80381 c 0.8631,-13.20721 -1.25825,-12.31338 1.30926,-27.48731 z m -12.97621,22.99979 c 0.005,0.004 0.008,0.008 0.0137,0.0107 l -0.008,0.004 c -0.002,-0.005 -0.004,-0.01 -0.005,-0.0145 z"
           sodipodi:nodetypes="ccccczccccccccc" />
        <path
           style="fill:#a0c58e;fill-opacity:1;stroke:#000000;stroke-width:1.22884;stroke-linecap:butt;stroke-linejoin:miter;stroke-miterlimit:4;stroke-dasharray:none;stroke-opacity:1;paint-order:markers fill stroke"
           d="m 197.25169,574.89866 5.58194,-0.42296 c 3.1334,12.19666 2.73652,25.30459 -1.66082,39.44517 l -5.63188,1.19929 c 5.75954,-15.30031 6.32978,-28.70747 1.71076,-40.2215 z"
           id="path19813"
           sodipodi:nodetypes="ccccc" />
        <path
           style="fill:#a0c58e;fill-opacity:1;stroke:#000000;stroke-width:1.22884;stroke-linecap:butt;stroke-linejoin:miter;stroke-miterlimit:4;stroke-dasharray:none;stroke-opacity:1;paint-order:markers fill stroke"
           d="m 193.9813,558.49774 c 4.06268,-14.17779 14.17143,16.93008 6.98697,19.58703 -6.18231,2.28635 -20.93335,-27.77291 -6.98697,-19.58703 z"
           id="path19815"
           sodipodi:nodetypes="csc" />
      </g>
      <g
         id="g78041"
         transform="matrix(0.96313242,0,0,0.96313242,-437.95295,-1059.7088)">
        <path
           style="fill:#a0c58e;fill-opacity:1;stroke:#000000;stroke-width:0.264583;stroke-linecap:butt;stroke-linejoin:miter;stroke-miterlimit:4;stroke-dasharray:none;stroke-opacity:1;paint-order:markers fill stroke"
           d="m 537.56317,1128.4883 -1.43311,-1.2062 c -3.37721,2.6817 -5.98125,6.3001 -7.70916,10.98 l 1.28609,1.4256 c 1.59678,-5.2596 4.21551,-8.9927 7.85618,-11.1994 z"
           id="path19825"
           sodipodi:nodetypes="ccccc" />
        <path
           style="fill:#a0c58e;fill-opacity:1;stroke:#000000;stroke-width:0.264583;stroke-linecap:butt;stroke-linejoin:miter;stroke-miterlimit:4;stroke-dasharray:none;stroke-opacity:1;paint-order:markers fill stroke"
           d="m 544.43576,1121.2018 2.4462,4.0708 -8.65527,3.5315 -1.3874,-2.332 z"
           id="path19827" />
        <g
           id="g19843"
           transform="matrix(0.10157002,0.18336048,-0.13546797,0.07552592,665.03967,1078.8858)"
           style="stroke-width:1.53732;stroke-miterlimit:4;stroke-dasharray:none;paint-order:markers fill stroke">
          <path
             style="fill:#f8f3f7;fill-opacity:1;stroke:#000000;stroke-width:1.53732;stroke-linecap:butt;stroke-linejoin:miter;stroke-miterlimit:4;stroke-dasharray:none;stroke-opacity:1;paint-order:markers fill stroke"
             d="m -92.404514,795.26233 c -28.083356,-36.2198 -5.91861,-26.1147 1.32482,-41.5028 6.33536,15.2043 28.80358,4.7901 -1.32482,41.5028 z"
             id="path19829"
             sodipodi:nodetypes="ccc" />
          <path
             style="fill:#f8f3f7;fill-opacity:1;stroke:#000000;stroke-width:1.53732;stroke-linecap:butt;stroke-linejoin:miter;stroke-miterlimit:4;stroke-dasharray:none;stroke-opacity:1;paint-order:markers fill stroke"
             d="m -92.404514,795.26233 c 25.33126,-38.19535 22.848532,-13.96258 39.745251,-12.02301 -12.378254,10.86677 4.676935,28.82209 -39.745251,12.02301 z"
             id="path19831"
             sodipodi:nodetypes="ccc" />
          <path
             style="fill:#f8f3f7;fill-opacity:1;stroke:#000000;stroke-width:1.53732;stroke-linecap:butt;stroke-linejoin:miter;stroke-miterlimit:4;stroke-dasharray:none;stroke-opacity:1;paint-order:markers fill stroke"
             d="m -92.404514,795.26233 c 44.352596,11.55002 20.627514,17.07377 24.282007,33.68416 -14.298457,-8.17696 -25.739783,13.78599 -24.282007,-33.68416 z"
             id="path19833"
             sodipodi:nodetypes="ccc" />
          <path
             style="fill:#f8f3f7;fill-opacity:1;stroke:#000000;stroke-width:1.53732;stroke-linecap:butt;stroke-linejoin:miter;stroke-miterlimit:4;stroke-dasharray:none;stroke-opacity:1;paint-order:markers fill stroke"
             d="m -92.404514,795.26233 c 0.911929,45.82277 -10.839416,24.48508 -25.836076,32.50753 3.99255,-15.98035 -20.25021,-21.03634 25.836076,-32.50753 z"
             id="path19835"
             sodipodi:nodetypes="ccc" />
          <path
             style="fill:#f8f3f7;fill-opacity:1;stroke:#000000;stroke-width:1.53732;stroke-linecap:butt;stroke-linejoin:miter;stroke-miterlimit:4;stroke-dasharray:none;stroke-opacity:1;paint-order:markers fill stroke"
             d="m -92.404514,795.26233 c -43.092036,15.60887 -26.670726,-2.38377 -39.092316,-14.00113 16.41507,-1.36221 13.40091,-25.94239 39.092316,14.00113 z"
             id="path19837"
             sodipodi:nodetypes="ccc" />
          <path
             sodipodi:type="star"
             style="fill:url(#radialGradient19935);fill-opacity:1;stroke:none;stroke-width:5.81034;stroke-linecap:round;stroke-linejoin:round;stroke-miterlimit:4;stroke-dasharray:none;paint-order:markers fill stroke"
             id="path19839"
             inkscape:flatsided="false"
             sodipodi:sides="5"
             sodipodi:cx="-720.37878"
             sodipodi:cy="2879.4773"
             sodipodi:r1="152.91795"
             sodipodi:r2="6.3468843"
             sodipodi:arg1="0.8856325"
             sodipodi:arg2="1.6371357"
             inkscape:rounded="0"
             inkscape:randomized="0"
             transform="matrix(0.26366179,0.02206357,-0.02206357,0.26366179,161.32176,51.2326)"
             inkscape:transform-center-x="-0.64446676"
             inkscape:transform-center-y="-0.23242863"
             d="m -623.61232,2997.884 -97.1872,-112.0738 -82.28827,122.2872 76.55602,-127.0633 -141.73045,-40.472 144.50142,33.5444 -5.30597,-147.3002 12.75077,147.7949 138.45118,-50.5646 -136.62101,57.7978 z" />
          <circle
             style="mix-blend-mode:normal;fill:#1d2e1b;fill-opacity:1;stroke:none;stroke-width:1.12185;stroke-linecap:round;stroke-linejoin:round;stroke-miterlimit:4;stroke-dasharray:none;paint-order:markers fill stroke;filter:url(#filter13170)"
             id="circle19841"
             cx="-162.89984"
             cy="785.38342"
             r="5.3244047"
             transform="matrix(1.3703375,0,0,1.3703375,131.02793,-280.94953)" />
        </g>
        <path
           style="fill:#a0c58e;fill-opacity:1;stroke:#000000;stroke-width:0.264583;stroke-linecap:butt;stroke-linejoin:miter;stroke-miterlimit:4;stroke-dasharray:none;stroke-opacity:1;paint-order:markers fill stroke"
           d="m 539.61471,1126.2187 c 0.77661,-4.6383 -6.11713,-0.1441 -4.51034,2.644 1.38267,2.3992 9.4035,-0.4549 4.51034,-2.644 z"
           id="path19845"
           sodipodi:nodetypes="csc" />
      </g>
      <g
         id="g79151"
         transform="matrix(0.96313242,0,0,0.96313242,-425.95039,-1083.9913)">
        <path
           id="path19849"
           style="fill:#a0c58e;fill-opacity:1;stroke:#000000;stroke-width:0.264583;stroke-linecap:butt;stroke-linejoin:miter;stroke-miterlimit:4;stroke-dasharray:none;stroke-opacity:1;paint-order:markers fill stroke"
           d="m 516.01486,1137.8462 c -1.26754,-0.7487 -2.60183,1.0294 -2.7514,1.6476 -0.80927,-1.6724 -1.96327,-1.6977 -3.12675,-2.2465 0.27385,1.0849 -1.00828,0.9689 0.0238,3.0287 -0.70715,-0.8196 -2.13146,-1.223 -3.62043,0.3527 3.02271,0.9542 3.72207,3.7208 6.40258,5.5963 2.6805,1.8754 2.10837,4.2068 2.10837,4.2068 l 1.27017,-0.1513 -0.68244,-4.5393 c 0.24791,-3.7934 -0.3614,-3.5367 0.37605,-7.895 z m -3.72708,6.6061 c 10e-4,0 0.002,0 0.004,0 h -0.002 c -5.8e-4,0 -10e-4,0 -10e-4,0 z"
           sodipodi:nodetypes="ccccczccccccccc" />
        <path
           style="fill:#68a54a;fill-opacity:1;stroke:#000000;stroke-width:0.264583;stroke-linecap:butt;stroke-linejoin:miter;stroke-miterlimit:4;stroke-dasharray:none;stroke-opacity:1;paint-order:markers fill stroke"
           d="m 515.39388,1150.3451 1.60327,-0.1215 c 0.89999,3.5031 0.78599,7.2681 -0.47703,11.3296 l -1.61761,0.3444 c 1.65428,-4.3946 1.81806,-8.2454 0.49137,-11.5525 z"
           id="path19851"
           sodipodi:nodetypes="ccccc" />
        <path
           style="fill:#6b9f52;fill-opacity:1;stroke:#000000;stroke-width:0.264583;stroke-linecap:butt;stroke-linejoin:miter;stroke-miterlimit:4;stroke-dasharray:none;stroke-opacity:1;paint-order:markers fill stroke"
           d="m 514.45455,1145.6343 c 1.1669,-4.0722 4.07037,4.8627 2.00682,5.6259 -1.7757,0.6567 -6.01256,-7.9771 -2.00682,-5.6259 z"
           id="path19853"
           sodipodi:nodetypes="csc" />
      </g>
      <g
         id="g78016"
         transform="matrix(0.96313242,0,0,0.96313242,-403.10324,-1068.8646)">
        <path
           style="fill:#a0c58e;fill-opacity:1;stroke:#000000;stroke-width:0.264583;stroke-linecap:butt;stroke-linejoin:miter;stroke-miterlimit:4;stroke-dasharray:none;stroke-opacity:1;paint-order:markers fill stroke"
           d="m 482.67051,1149.1606 -0.31629,-1.4932 c 3.14905,-1.4705 6.67037,-2.0293 10.61355,-1.5551 l 0.52582,1.4673 c -4.30303,-0.7849 -7.91072,-0.2579 -10.82308,1.581 z"
           id="path19857"
           sodipodi:nodetypes="ccccc" />
        <path
           style="fill:#a0c58e;fill-opacity:1;stroke:#000000;stroke-width:0.264583;stroke-linecap:butt;stroke-linejoin:miter;stroke-miterlimit:4;stroke-dasharray:none;stroke-opacity:1;paint-order:markers fill stroke"
           d="m 474.97259,1151.4748 1.9584,3.2948 5.71496,-5.0076 -1.12707,-1.8773 z"
           id="path19859" />
        <g
           id="g19875"
           transform="matrix(0.09142009,0.14212289,0.10372571,-0.07086693,400.68695,1223.3732)"
           style="stroke-width:1.81629;stroke-miterlimit:4;stroke-dasharray:none;paint-order:markers fill stroke">
          <path
             style="fill:#f8f3f7;fill-opacity:1;stroke:#000000;stroke-width:1.81629;stroke-linecap:butt;stroke-linejoin:miter;stroke-miterlimit:4;stroke-dasharray:none;stroke-opacity:1;paint-order:markers fill stroke"
             d="m -92.404514,795.26233 c -28.083356,-36.2198 -5.91861,-26.1147 1.32482,-41.5028 6.33536,15.2043 28.80358,4.7901 -1.32482,41.5028 z"
             id="path19861"
             sodipodi:nodetypes="ccc" />
          <path
             style="fill:#f8f3f7;fill-opacity:1;stroke:#000000;stroke-width:1.81629;stroke-linecap:butt;stroke-linejoin:miter;stroke-miterlimit:4;stroke-dasharray:none;stroke-opacity:1;paint-order:markers fill stroke"
             d="m -92.404514,795.26233 c 25.33126,-38.19535 22.848532,-13.96258 39.745251,-12.02301 -12.378254,10.86677 4.676935,28.82209 -39.745251,12.02301 z"
             id="path19863"
             sodipodi:nodetypes="ccc" />
          <path
             style="fill:#f8f3f7;fill-opacity:1;stroke:#000000;stroke-width:1.81629;stroke-linecap:butt;stroke-linejoin:miter;stroke-miterlimit:4;stroke-dasharray:none;stroke-opacity:1;paint-order:markers fill stroke"
             d="m -92.404514,795.26233 c 44.352596,11.55002 20.627514,17.07377 24.282007,33.68416 -14.298457,-8.17696 -25.739783,13.78599 -24.282007,-33.68416 z"
             id="path19865"
             sodipodi:nodetypes="ccc" />
          <path
             style="fill:#f8f3f7;fill-opacity:1;stroke:#000000;stroke-width:1.81629;stroke-linecap:butt;stroke-linejoin:miter;stroke-miterlimit:4;stroke-dasharray:none;stroke-opacity:1;paint-order:markers fill stroke"
             d="m -92.404514,795.26233 c 0.911929,45.82277 -10.839416,24.48508 -25.836076,32.50753 3.99255,-15.98035 -20.25021,-21.03634 25.836076,-32.50753 z"
             id="path19867"
             sodipodi:nodetypes="ccc" />
          <path
             style="fill:#f8f3f7;fill-opacity:1;stroke:#000000;stroke-width:1.81629;stroke-linecap:butt;stroke-linejoin:miter;stroke-miterlimit:4;stroke-dasharray:none;stroke-opacity:1;paint-order:markers fill stroke"
             d="m -92.404514,795.26233 c -43.092036,15.60887 -26.670726,-2.38377 -39.092316,-14.00113 16.41507,-1.36221 13.40091,-25.94239 39.092316,14.00113 z"
             id="path19869"
             sodipodi:nodetypes="ccc" />
          <path
             sodipodi:type="star"
             style="fill:url(#radialGradient19933);fill-opacity:1;stroke:none;stroke-width:6.86472;stroke-linecap:round;stroke-linejoin:round;stroke-miterlimit:4;stroke-dasharray:none;paint-order:markers fill stroke"
             id="path19871"
             inkscape:flatsided="false"
             sodipodi:sides="5"
             sodipodi:cx="-720.37878"
             sodipodi:cy="2879.4773"
             sodipodi:r1="152.91795"
             sodipodi:r2="6.3468843"
             sodipodi:arg1="0.8856325"
             sodipodi:arg2="1.6371357"
             inkscape:rounded="0"
             inkscape:randomized="0"
             transform="matrix(0.26366179,0.02206357,-0.02206357,0.26366179,161.32176,51.2326)"
             inkscape:transform-center-x="-0.64446676"
             inkscape:transform-center-y="-0.23242863"
             d="m -623.61232,2997.884 -97.1872,-112.0738 -82.28827,122.2872 76.55602,-127.0633 -141.73045,-40.472 144.50142,33.5444 -5.30597,-147.3002 12.75077,147.7949 138.45118,-50.5646 -136.62101,57.7978 z" />
          <circle
             style="mix-blend-mode:normal;fill:#1d2e1b;fill-opacity:1;stroke:none;stroke-width:1.32543;stroke-linecap:round;stroke-linejoin:round;stroke-miterlimit:4;stroke-dasharray:none;paint-order:markers fill stroke;filter:url(#filter13170)"
             id="circle19873"
             cx="-162.89984"
             cy="785.38342"
             r="5.3244047"
             transform="matrix(1.3703375,0,0,1.3703375,131.02793,-280.94953)" />
        </g>
        <path
           style="fill:#a0c58e;fill-opacity:1;stroke:#000000;stroke-width:0.264583;stroke-linecap:butt;stroke-linejoin:miter;stroke-miterlimit:4;stroke-dasharray:none;stroke-opacity:1;paint-order:markers fill stroke"
           d="m 480.30603,1149.8164 c -3.55943,-1.1531 2.17787,-4.5181 3.54472,-2.3115 1.17618,1.8988 -3.82481,6.6945 -3.54472,2.3115 z"
           id="path19877"
           sodipodi:nodetypes="csc" />
      </g>
      <g
         id="g78028"
         transform="matrix(0.96313242,0,0,0.96313242,-434.70201,-1072.1773)">
        <path
           style="fill:#a0c58e;fill-opacity:1;stroke:#000000;stroke-width:0.264583;stroke-linecap:butt;stroke-linejoin:miter;stroke-miterlimit:4;stroke-dasharray:none;stroke-opacity:1;paint-order:markers fill stroke"
           d="m 532.65808,1164.1053 1.73529,-0.8489 c -1.16788,-4.135 -3.54415,-7.9225 -7.28972,-11.3162 l -1.8839,0.6292 c 4.35105,3.4974 6.83049,7.3427 7.43833,11.5359 z"
           id="path19881"
           sodipodi:nodetypes="ccccc" />
        <path
           style="fill:#a0c58e;fill-opacity:1;stroke:#000000;stroke-width:0.246637;stroke-linecap:butt;stroke-linejoin:miter;stroke-miterlimit:4;stroke-dasharray:none;stroke-opacity:1;paint-order:markers fill stroke"
           d="m 531.23173,1158.574 c 3.80596,0.7648 -0.26988,-5.9625 -2.42654,-4.4009 -1.85586,1.3438 0.96278,9.167 2.42654,4.4009 z"
           id="path19883"
           sodipodi:nodetypes="csc" />
        <g
           id="g19899"
           transform="matrix(-0.00561873,0.2170379,-0.20329891,-0.0025457,694.63107,1185.6161)"
           style="stroke-width:1.31938;stroke-miterlimit:4;stroke-dasharray:none;paint-order:markers fill stroke">
          <path
             style="fill:#f8f3f7;fill-opacity:1;stroke:#000000;stroke-width:1.31938;stroke-linecap:butt;stroke-linejoin:miter;stroke-miterlimit:4;stroke-dasharray:none;stroke-opacity:1;paint-order:markers fill stroke"
             d="m -92.404514,795.26233 c -28.083356,-36.2198 -5.91861,-26.1147 1.32482,-41.5028 6.33536,15.2043 28.80358,4.7901 -1.32482,41.5028 z"
             id="path19885"
             sodipodi:nodetypes="ccc" />
          <path
             style="fill:#f8f3f7;fill-opacity:1;stroke:#000000;stroke-width:1.31938;stroke-linecap:butt;stroke-linejoin:miter;stroke-miterlimit:4;stroke-dasharray:none;stroke-opacity:1;paint-order:markers fill stroke"
             d="m -92.404514,795.26233 c 25.33126,-38.19535 22.848532,-13.96258 39.745251,-12.02301 -12.378254,10.86677 4.676935,28.82209 -39.745251,12.02301 z"
             id="path19887"
             sodipodi:nodetypes="ccc" />
          <path
             style="fill:#f8f3f7;fill-opacity:1;stroke:#000000;stroke-width:1.31938;stroke-linecap:butt;stroke-linejoin:miter;stroke-miterlimit:4;stroke-dasharray:none;stroke-opacity:1;paint-order:markers fill stroke"
             d="m -92.404514,795.26233 c 44.352596,11.55002 20.627514,17.07377 24.282007,33.68416 -14.298457,-8.17696 -25.739783,13.78599 -24.282007,-33.68416 z"
             id="path19889"
             sodipodi:nodetypes="ccc" />
          <path
             style="fill:#f8f3f7;fill-opacity:1;stroke:#000000;stroke-width:1.31938;stroke-linecap:butt;stroke-linejoin:miter;stroke-miterlimit:4;stroke-dasharray:none;stroke-opacity:1;paint-order:markers fill stroke"
             d="m -92.404514,795.26233 c 0.911929,45.82277 -10.839416,24.48508 -25.836076,32.50753 3.99255,-15.98035 -20.25021,-21.03634 25.836076,-32.50753 z"
             id="path19891"
             sodipodi:nodetypes="ccc" />
          <path
             style="fill:#f8f3f7;fill-opacity:1;stroke:#000000;stroke-width:1.31938;stroke-linecap:butt;stroke-linejoin:miter;stroke-miterlimit:4;stroke-dasharray:none;stroke-opacity:1;paint-order:markers fill stroke"
             d="m -92.404514,795.26233 c -43.092036,15.60887 -26.670726,-2.38377 -39.092316,-14.00113 16.41507,-1.36221 13.40091,-25.94239 39.092316,14.00113 z"
             id="path19893"
             sodipodi:nodetypes="ccc" />
          <path
             sodipodi:type="star"
             style="fill:url(#radialGradient19931);fill-opacity:1;stroke:none;stroke-width:4.98665;stroke-linecap:round;stroke-linejoin:round;stroke-miterlimit:4;stroke-dasharray:none;paint-order:markers fill stroke"
             id="path19895"
             inkscape:flatsided="false"
             sodipodi:sides="5"
             sodipodi:cx="-720.37878"
             sodipodi:cy="2879.4773"
             sodipodi:r1="152.91795"
             sodipodi:r2="6.3468843"
             sodipodi:arg1="0.8856325"
             sodipodi:arg2="1.6371357"
             inkscape:rounded="0"
             inkscape:randomized="0"
             transform="matrix(0.26366179,0.02206357,-0.02206357,0.26366179,161.32176,51.2326)"
             inkscape:transform-center-x="-0.64446676"
             inkscape:transform-center-y="-0.23242863"
             d="m -623.61232,2997.884 -97.1872,-112.0738 -82.28827,122.2872 76.55602,-127.0633 -141.73045,-40.472 144.50142,33.5444 -5.30597,-147.3002 12.75077,147.7949 138.45118,-50.5646 -136.62101,57.7978 z" />
          <circle
             style="mix-blend-mode:normal;fill:#1d2e1b;fill-opacity:1;stroke:none;stroke-width:0.962817;stroke-linecap:round;stroke-linejoin:round;stroke-miterlimit:4;stroke-dasharray:none;paint-order:markers fill stroke;filter:url(#filter13170)"
             id="circle19897"
             cx="-162.89984"
             cy="785.38342"
             r="5.3244047"
             transform="matrix(1.3703375,0,0,1.3703375,131.02793,-280.94953)" />
        </g>
      </g>
      <g
         id="g19921"
         transform="matrix(-0.058254,-0.20082806,0.18732127,-0.05706022,-132.13197,47.464232)"
         style="stroke-width:1.31938;stroke-miterlimit:4;stroke-dasharray:none;paint-order:markers fill stroke">
        <g
           id="g78173">
          <g
             id="g68995"
             transform="matrix(-1.3422581,4.7241859,-4.4064585,-1.3703399,5393.3765,310.73111)"
             style="fill:#a0c58e;fill-opacity:1;stroke-width:0.264583;stroke-miterlimit:4;stroke-dasharray:none">
            <path
               style="fill:#a0c58e;fill-opacity:1;stroke:#000000;stroke-width:0.264583;stroke-linecap:butt;stroke-linejoin:miter;stroke-miterlimit:4;stroke-dasharray:none;stroke-opacity:1;paint-order:markers fill stroke"
               d="m 465.75442,1120.2699 -1.39601,1.3353 c 2.36717,3.5858 5.78038,6.474 10.37895,8.5716 l 1.60427,-1.171 c -5.20697,-2.0127 -8.73604,-4.9247 -10.58721,-8.7359 z"
               id="path19903"
               sodipodi:nodetypes="ccccc" />
            <path
               style="fill:#a0c58e;fill-opacity:1;stroke:#000000;stroke-width:0.264583;stroke-linecap:butt;stroke-linejoin:miter;stroke-miterlimit:4;stroke-dasharray:none;stroke-opacity:1;paint-order:markers fill stroke"
               d="m 466.18596,1121.5838 c -4.42132,-0.5743 0.5649,5.9265 2.9854,4.2646 2.08287,-1.4301 -1.50023,-9.0845 -2.9854,-4.2646 z"
               id="path19905"
               sodipodi:nodetypes="csc" />
          </g>
          <g
             id="g78156"
             transform="matrix(0.98461403,-0.20117612,0.17642189,0.97957991,-233.96026,125.64884)">
            <g
               id="g78146">
              <path
                 style="fill:#f8f3f7;fill-opacity:1;stroke:#000000;stroke-width:1.25938;stroke-linecap:butt;stroke-linejoin:miter;stroke-miterlimit:4;stroke-dasharray:none;stroke-opacity:1;paint-order:markers fill stroke"
                 d="m -83.514026,841.71402 c -13.243878,-40.71183 -0.863529,-27.31376 5.131814,-41.88093 2.254103,16.3137 16.958595,8.95547 -5.131814,41.88093 z"
                 id="path19907"
                 sodipodi:nodetypes="ccc" />
              <path
                 style="fill:#f8f3f7;fill-opacity:1;stroke:#000000;stroke-width:1.25938;stroke-linecap:butt;stroke-linejoin:miter;stroke-miterlimit:4;stroke-dasharray:none;stroke-opacity:1;paint-order:markers fill stroke"
                 d="m -83.514026,841.71402 c 19.337445,-35.11119 15.305107,-10.90092 25.344119,-6.52975 -8.636041,9.25321 -0.171452,29.88138 -25.344119,6.52975 z"
                 id="path19909"
                 sodipodi:nodetypes="ccc" />
              <path
                 style="fill:#f8f3f7;fill-opacity:1;stroke:#000000;stroke-width:1.25938;stroke-linecap:butt;stroke-linejoin:miter;stroke-miterlimit:4;stroke-dasharray:none;stroke-opacity:1;paint-order:markers fill stroke"
                 d="m -83.514026,841.71402 c 25.677975,18.02099 10.721767,20.24308 11.204304,37.60047 -7.813601,-10.32389 -17.039112,10.31037 -11.204304,-37.60047 z"
                 id="path19911"
                 sodipodi:nodetypes="ccc" />
              <path
                 style="fill:#f8f3f7;fill-opacity:1;stroke:#000000;stroke-width:1.25938;stroke-linecap:butt;stroke-linejoin:miter;stroke-miterlimit:4;stroke-dasharray:none;stroke-opacity:1;paint-order:markers fill stroke"
                 d="m -83.514026,841.71402 c -4.226675,46.57828 -9.123749,23.27651 -19.050174,29.27385 4.086721,-15.63025 -10.07977,-24.20605 19.050174,-29.27385 z"
                 id="path19913"
                 sodipodi:nodetypes="ccc" />
              <path
                 style="fill:#f8f3f7;fill-opacity:1;stroke:#000000;stroke-width:1.25938;stroke-linecap:butt;stroke-linejoin:miter;stroke-miterlimit:4;stroke-dasharray:none;stroke-opacity:1;paint-order:markers fill stroke"
                 d="m -83.514026,841.71402 c -27.746664,9.68818 -15.91683,-6.21269 -22.233994,-19.75681 10.091457,0.95575 10.828299,-24.38911 22.233994,19.75681 z"
                 id="path19915"
                 sodipodi:nodetypes="ccc" />
            </g>
            <path
               sodipodi:type="star"
               style="fill:url(#radialGradient19929);fill-opacity:1;stroke:none;stroke-width:4.98665;stroke-linecap:round;stroke-linejoin:round;stroke-miterlimit:4;stroke-dasharray:none;paint-order:markers fill stroke"
               id="path19917"
               inkscape:flatsided="false"
               sodipodi:sides="5"
               sodipodi:cx="-720.37878"
               sodipodi:cy="2879.4773"
               sodipodi:r1="152.91795"
               sodipodi:r2="6.3468843"
               sodipodi:arg1="0.8856325"
               sodipodi:arg2="1.6371357"
               inkscape:rounded="0"
               inkscape:randomized="0"
               transform="matrix(0.15750745,0.05989509,-0.04087346,0.26412146,147.87643,123.64072)"
               inkscape:transform-center-x="-0.64446676"
               inkscape:transform-center-y="-0.23242863"
               d="m -623.61232,2997.884 -97.1872,-112.0738 -82.28827,122.2872 76.55602,-127.0633 -141.73045,-40.472 144.50142,33.5444 -5.30597,-147.3002 12.75077,147.7949 138.45118,-50.5646 -136.62101,57.7978 z" />
            <circle
               style="mix-blend-mode:normal;fill:#1d2e1b;fill-opacity:1;stroke:none;stroke-width:0.962817;stroke-linecap:round;stroke-linejoin:round;stroke-miterlimit:4;stroke-dasharray:none;paint-order:markers fill stroke;filter:url(#filter13170)"
               id="circle19919"
               cx="-162.89984"
               cy="785.38342"
               r="5.3244047"
               transform="matrix(0.83057876,0.19505711,-0.14292893,1.3890492,164.16222,-217.38939)" />
          </g>
        </g>
      </g>
    </g>
  </g>
</svg>
